M48
; DRILL file {KiCad (5.1.0)-1} date 18.03.2021 21:30:52
; FORMAT={-:-/ absolute / inch / decimal}
; #@! TF.CreationDate,2021-03-18T21:30:52+01:00
; #@! TF.GenerationSoftware,Kicad,Pcbnew,(5.1.0)-1
; #@! TF.FileFunction,Plated,1,2,PTH
FMAT,2
INCH
T1C0.0157
T2C0.0197
T3C0.0315
T4C0.0394
%
G90
G05
T1
X4.434Y-3.801
X4.434Y-4.249
X4.435Y-4.299
X4.437Y-3.652
X4.437Y-3.851
X4.438Y-3.9
X4.454Y-4.048
X4.472Y-3.586
X4.5275Y-3.93
X4.528Y-3.701
X4.528Y-3.751
X4.529Y-3.8504
X4.529Y-4.099
X4.529Y-4.299
X4.539Y-4.471
X4.643Y-4.274
X4.656Y-4.426
X4.661Y-3.58
X4.666Y-4.002
X4.671Y-4.305
X4.674Y-3.701
X4.675Y-3.751
X4.676Y-3.801
X4.676Y-4.212
X4.678Y-4.073
X4.679Y-4.136
X4.7798Y-3.5028
X4.796Y-3.727
X4.799Y-4.346
X4.808Y-4.125
X4.822Y-4.428
X4.828Y-3.698
X4.85Y-4.08
X4.883Y-4.261
X4.887Y-3.851
X4.887Y-4.045
X4.889Y-4.197
X4.891Y-3.751
X4.893Y-3.64
X5.013Y-3.508
X5.015Y-4.147
X5.018Y-4.071
X5.045Y-3.474
X5.061Y-3.568
X5.184Y-4.468
X5.189Y-3.473
X5.193Y-3.637
X5.318Y-3.729
X5.503Y-4.423
T2
X4.3075Y-3.57
X4.3075Y-3.901
X4.3075Y-3.975
X4.3075Y-4.3525
X4.3075Y-4.43
X4.3575Y-3.4225
X4.411Y-3.422
X4.473Y-3.981
X4.525Y-3.605
X4.675Y-3.895
X4.6995Y-3.4005
X4.801Y-3.896
X4.813Y-4.043
X4.8375Y-3.5225
X5.015Y-3.4225
X5.352Y-4.071
X5.352Y-4.164
X5.44Y-4.163
X5.442Y-4.071
T3
X5.703Y-3.418
X5.703Y-3.518
X5.703Y-3.618
X5.703Y-3.718
X5.703Y-3.818
X5.703Y-3.918
X5.703Y-4.018
X5.703Y-4.118
X5.703Y-4.218
X5.703Y-4.318
X5.703Y-4.418
X5.703Y-4.518
X5.153Y-3.968
X5.153Y-4.068
X5.153Y-4.168
X5.153Y-4.268
X5.153Y-4.368
X5.253Y-3.868
X5.253Y-3.968
X5.253Y-4.068
X5.253Y-4.168
X5.253Y-4.268
X5.253Y-4.368
X5.253Y-4.468
X5.353Y-3.868
X5.353Y-3.968
X5.353Y-4.368
X5.353Y-4.468
X5.453Y-3.868
X5.453Y-3.968
X5.453Y-4.368
X5.453Y-4.468
X5.553Y-3.868
X5.553Y-3.968
X5.553Y-4.068
X5.553Y-4.168
X5.553Y-4.268
X5.553Y-4.368
X5.553Y-4.468
X5.653Y-3.968
X5.653Y-4.068
X5.653Y-4.168
X5.653Y-4.268
X5.653Y-4.368
X5.103Y-3.418
X5.103Y-3.518
X5.103Y-3.618
X5.103Y-3.718
X5.103Y-3.818
X5.103Y-3.918
X5.103Y-4.018
X5.103Y-4.118
X5.103Y-4.218
X5.103Y-4.318
X5.103Y-4.418
X5.103Y-4.518
T4
X5.319Y-3.45
X5.319Y-3.55
X5.319Y-3.65
X5.419Y-3.45
X5.419Y-3.55
X5.419Y-3.65
X4.835Y-4.518
X4.935Y-4.518
X4.389Y-4.518
X4.489Y-4.518
X4.589Y-4.518
X4.689Y-4.518
T0
M30
