G04 #@! TF.GenerationSoftware,KiCad,Pcbnew,(5.1.0)-1*
G04 #@! TF.CreationDate,2021-03-04T20:51:30+01:00*
G04 #@! TF.ProjectId,Atari OSS Cartridge,41746172-6920-44f5-9353-204361727472,rev?*
G04 #@! TF.SameCoordinates,Original*
G04 #@! TF.FileFunction,Legend,Bot*
G04 #@! TF.FilePolarity,Positive*
%FSLAX46Y46*%
G04 Gerber Fmt 4.6, Leading zero omitted, Abs format (unit mm)*
G04 Created by KiCad (PCBNEW (5.1.0)-1) date 2021-03-04 20:51:30*
%MOMM*%
%LPD*%
G04 APERTURE LIST*
%ADD10C,0.120000*%
%ADD11C,0.150000*%
%ADD12C,1.524400*%
%ADD13R,1.524400X1.524400*%
%ADD14O,1.802000X1.802000*%
%ADD15R,1.802000X1.802000*%
%ADD16C,0.100000*%
%ADD17C,1.052000*%
%ADD18C,1.527000*%
G04 APERTURE END LIST*
D10*
X118366000Y-87077733D02*
X118366000Y-87420267D01*
X117346000Y-87077733D02*
X117346000Y-87420267D01*
X139554133Y-95654400D02*
X139896667Y-95654400D01*
X139554133Y-96674400D02*
X139896667Y-96674400D01*
X121521136Y-85856400D02*
X122725264Y-85856400D01*
X121521136Y-87676400D02*
X122725264Y-87676400D01*
D11*
X116783142Y-87082333D02*
X116830761Y-87034714D01*
X116878380Y-86891857D01*
X116878380Y-86796619D01*
X116830761Y-86653761D01*
X116735523Y-86558523D01*
X116640285Y-86510904D01*
X116449809Y-86463285D01*
X116306952Y-86463285D01*
X116116476Y-86510904D01*
X116021238Y-86558523D01*
X115926000Y-86653761D01*
X115878380Y-86796619D01*
X115878380Y-86891857D01*
X115926000Y-87034714D01*
X115973619Y-87082333D01*
X116211714Y-87939476D02*
X116878380Y-87939476D01*
X115830761Y-87701380D02*
X116545047Y-87463285D01*
X116545047Y-88082333D01*
X139168166Y-95162642D02*
X139215785Y-95210261D01*
X139358642Y-95257880D01*
X139453880Y-95257880D01*
X139596738Y-95210261D01*
X139691976Y-95115023D01*
X139739595Y-95019785D01*
X139787214Y-94829309D01*
X139787214Y-94686452D01*
X139739595Y-94495976D01*
X139691976Y-94400738D01*
X139596738Y-94305500D01*
X139453880Y-94257880D01*
X139358642Y-94257880D01*
X139215785Y-94305500D01*
X139168166Y-94353119D01*
X138834833Y-94257880D02*
X138215785Y-94257880D01*
X138549119Y-94638833D01*
X138406261Y-94638833D01*
X138311023Y-94686452D01*
X138263404Y-94734071D01*
X138215785Y-94829309D01*
X138215785Y-95067404D01*
X138263404Y-95162642D01*
X138311023Y-95210261D01*
X138406261Y-95257880D01*
X138691976Y-95257880D01*
X138787214Y-95210261D01*
X138834833Y-95162642D01*
X122289866Y-89038780D02*
X122623200Y-88562590D01*
X122861295Y-89038780D02*
X122861295Y-88038780D01*
X122480342Y-88038780D01*
X122385104Y-88086400D01*
X122337485Y-88134019D01*
X122289866Y-88229257D01*
X122289866Y-88372114D01*
X122337485Y-88467352D01*
X122385104Y-88514971D01*
X122480342Y-88562590D01*
X122861295Y-88562590D01*
X121337485Y-89038780D02*
X121908914Y-89038780D01*
X121623200Y-89038780D02*
X121623200Y-88038780D01*
X121718438Y-88181638D01*
X121813676Y-88276876D01*
X121908914Y-88324495D01*
%LPC*%
D12*
X141046200Y-103327200D03*
X141046200Y-105867200D03*
X141046200Y-108407200D03*
X141046200Y-110947200D03*
X143586200Y-103327200D03*
X143586200Y-105867200D03*
X143586200Y-108407200D03*
X143586200Y-110947200D03*
X138506200Y-110947200D03*
X135966200Y-110947200D03*
X141046200Y-113487200D03*
X138506200Y-113487200D03*
X135966200Y-113487200D03*
X133426200Y-113487200D03*
X133426200Y-110947200D03*
X133426200Y-108407200D03*
X133426200Y-105867200D03*
X133426200Y-103327200D03*
X130886200Y-110947200D03*
X130886200Y-108407200D03*
X130886200Y-105867200D03*
X130886200Y-103327200D03*
X130886200Y-100787200D03*
X141046200Y-98247200D03*
X138506200Y-98247200D03*
X133426200Y-98247200D03*
X135966200Y-98247200D03*
X143586200Y-100787200D03*
X141046200Y-100787200D03*
X133426200Y-100787200D03*
X135966200Y-100787200D03*
D13*
X138506200Y-100787200D03*
D14*
X111480600Y-114757200D03*
X114020600Y-114757200D03*
X116560600Y-114757200D03*
D15*
X119100600Y-114757200D03*
D14*
X125349000Y-114757200D03*
D15*
X122809000Y-114757200D03*
D14*
X135102600Y-87630000D03*
X137642600Y-87630000D03*
X135102600Y-90170000D03*
X137642600Y-90170000D03*
X135102600Y-92710000D03*
D15*
X137642600Y-92710000D03*
D16*
G36*
X118144779Y-87549266D02*
G01*
X118170309Y-87553053D01*
X118195345Y-87559325D01*
X118219646Y-87568020D01*
X118242977Y-87579055D01*
X118265115Y-87592323D01*
X118285845Y-87607698D01*
X118304969Y-87625031D01*
X118322302Y-87644155D01*
X118337677Y-87664885D01*
X118350945Y-87687023D01*
X118361980Y-87710354D01*
X118370675Y-87734655D01*
X118376947Y-87759691D01*
X118380734Y-87785221D01*
X118382000Y-87811000D01*
X118382000Y-88437000D01*
X118380734Y-88462779D01*
X118376947Y-88488309D01*
X118370675Y-88513345D01*
X118361980Y-88537646D01*
X118350945Y-88560977D01*
X118337677Y-88583115D01*
X118322302Y-88603845D01*
X118304969Y-88622969D01*
X118285845Y-88640302D01*
X118265115Y-88655677D01*
X118242977Y-88668945D01*
X118219646Y-88679980D01*
X118195345Y-88688675D01*
X118170309Y-88694947D01*
X118144779Y-88698734D01*
X118119000Y-88700000D01*
X117593000Y-88700000D01*
X117567221Y-88698734D01*
X117541691Y-88694947D01*
X117516655Y-88688675D01*
X117492354Y-88679980D01*
X117469023Y-88668945D01*
X117446885Y-88655677D01*
X117426155Y-88640302D01*
X117407031Y-88622969D01*
X117389698Y-88603845D01*
X117374323Y-88583115D01*
X117361055Y-88560977D01*
X117350020Y-88537646D01*
X117341325Y-88513345D01*
X117335053Y-88488309D01*
X117331266Y-88462779D01*
X117330000Y-88437000D01*
X117330000Y-87811000D01*
X117331266Y-87785221D01*
X117335053Y-87759691D01*
X117341325Y-87734655D01*
X117350020Y-87710354D01*
X117361055Y-87687023D01*
X117374323Y-87664885D01*
X117389698Y-87644155D01*
X117407031Y-87625031D01*
X117426155Y-87607698D01*
X117446885Y-87592323D01*
X117469023Y-87579055D01*
X117492354Y-87568020D01*
X117516655Y-87559325D01*
X117541691Y-87553053D01*
X117567221Y-87549266D01*
X117593000Y-87548000D01*
X118119000Y-87548000D01*
X118144779Y-87549266D01*
X118144779Y-87549266D01*
G37*
D17*
X117856000Y-88124000D03*
D16*
G36*
X118144779Y-85799266D02*
G01*
X118170309Y-85803053D01*
X118195345Y-85809325D01*
X118219646Y-85818020D01*
X118242977Y-85829055D01*
X118265115Y-85842323D01*
X118285845Y-85857698D01*
X118304969Y-85875031D01*
X118322302Y-85894155D01*
X118337677Y-85914885D01*
X118350945Y-85937023D01*
X118361980Y-85960354D01*
X118370675Y-85984655D01*
X118376947Y-86009691D01*
X118380734Y-86035221D01*
X118382000Y-86061000D01*
X118382000Y-86687000D01*
X118380734Y-86712779D01*
X118376947Y-86738309D01*
X118370675Y-86763345D01*
X118361980Y-86787646D01*
X118350945Y-86810977D01*
X118337677Y-86833115D01*
X118322302Y-86853845D01*
X118304969Y-86872969D01*
X118285845Y-86890302D01*
X118265115Y-86905677D01*
X118242977Y-86918945D01*
X118219646Y-86929980D01*
X118195345Y-86938675D01*
X118170309Y-86944947D01*
X118144779Y-86948734D01*
X118119000Y-86950000D01*
X117593000Y-86950000D01*
X117567221Y-86948734D01*
X117541691Y-86944947D01*
X117516655Y-86938675D01*
X117492354Y-86929980D01*
X117469023Y-86918945D01*
X117446885Y-86905677D01*
X117426155Y-86890302D01*
X117407031Y-86872969D01*
X117389698Y-86853845D01*
X117374323Y-86833115D01*
X117361055Y-86810977D01*
X117350020Y-86787646D01*
X117341325Y-86763345D01*
X117335053Y-86738309D01*
X117331266Y-86712779D01*
X117330000Y-86687000D01*
X117330000Y-86061000D01*
X117331266Y-86035221D01*
X117335053Y-86009691D01*
X117341325Y-85984655D01*
X117350020Y-85960354D01*
X117361055Y-85937023D01*
X117374323Y-85914885D01*
X117389698Y-85894155D01*
X117407031Y-85875031D01*
X117426155Y-85857698D01*
X117446885Y-85842323D01*
X117469023Y-85829055D01*
X117492354Y-85818020D01*
X117516655Y-85809325D01*
X117541691Y-85803053D01*
X117567221Y-85799266D01*
X117593000Y-85798000D01*
X118119000Y-85798000D01*
X118144779Y-85799266D01*
X118144779Y-85799266D01*
G37*
D17*
X117856000Y-86374000D03*
D16*
G36*
X140939179Y-95639666D02*
G01*
X140964709Y-95643453D01*
X140989745Y-95649725D01*
X141014046Y-95658420D01*
X141037377Y-95669455D01*
X141059515Y-95682723D01*
X141080245Y-95698098D01*
X141099369Y-95715431D01*
X141116702Y-95734555D01*
X141132077Y-95755285D01*
X141145345Y-95777423D01*
X141156380Y-95800754D01*
X141165075Y-95825055D01*
X141171347Y-95850091D01*
X141175134Y-95875621D01*
X141176400Y-95901400D01*
X141176400Y-96427400D01*
X141175134Y-96453179D01*
X141171347Y-96478709D01*
X141165075Y-96503745D01*
X141156380Y-96528046D01*
X141145345Y-96551377D01*
X141132077Y-96573515D01*
X141116702Y-96594245D01*
X141099369Y-96613369D01*
X141080245Y-96630702D01*
X141059515Y-96646077D01*
X141037377Y-96659345D01*
X141014046Y-96670380D01*
X140989745Y-96679075D01*
X140964709Y-96685347D01*
X140939179Y-96689134D01*
X140913400Y-96690400D01*
X140287400Y-96690400D01*
X140261621Y-96689134D01*
X140236091Y-96685347D01*
X140211055Y-96679075D01*
X140186754Y-96670380D01*
X140163423Y-96659345D01*
X140141285Y-96646077D01*
X140120555Y-96630702D01*
X140101431Y-96613369D01*
X140084098Y-96594245D01*
X140068723Y-96573515D01*
X140055455Y-96551377D01*
X140044420Y-96528046D01*
X140035725Y-96503745D01*
X140029453Y-96478709D01*
X140025666Y-96453179D01*
X140024400Y-96427400D01*
X140024400Y-95901400D01*
X140025666Y-95875621D01*
X140029453Y-95850091D01*
X140035725Y-95825055D01*
X140044420Y-95800754D01*
X140055455Y-95777423D01*
X140068723Y-95755285D01*
X140084098Y-95734555D01*
X140101431Y-95715431D01*
X140120555Y-95698098D01*
X140141285Y-95682723D01*
X140163423Y-95669455D01*
X140186754Y-95658420D01*
X140211055Y-95649725D01*
X140236091Y-95643453D01*
X140261621Y-95639666D01*
X140287400Y-95638400D01*
X140913400Y-95638400D01*
X140939179Y-95639666D01*
X140939179Y-95639666D01*
G37*
D17*
X140600400Y-96164400D03*
D16*
G36*
X139189179Y-95639666D02*
G01*
X139214709Y-95643453D01*
X139239745Y-95649725D01*
X139264046Y-95658420D01*
X139287377Y-95669455D01*
X139309515Y-95682723D01*
X139330245Y-95698098D01*
X139349369Y-95715431D01*
X139366702Y-95734555D01*
X139382077Y-95755285D01*
X139395345Y-95777423D01*
X139406380Y-95800754D01*
X139415075Y-95825055D01*
X139421347Y-95850091D01*
X139425134Y-95875621D01*
X139426400Y-95901400D01*
X139426400Y-96427400D01*
X139425134Y-96453179D01*
X139421347Y-96478709D01*
X139415075Y-96503745D01*
X139406380Y-96528046D01*
X139395345Y-96551377D01*
X139382077Y-96573515D01*
X139366702Y-96594245D01*
X139349369Y-96613369D01*
X139330245Y-96630702D01*
X139309515Y-96646077D01*
X139287377Y-96659345D01*
X139264046Y-96670380D01*
X139239745Y-96679075D01*
X139214709Y-96685347D01*
X139189179Y-96689134D01*
X139163400Y-96690400D01*
X138537400Y-96690400D01*
X138511621Y-96689134D01*
X138486091Y-96685347D01*
X138461055Y-96679075D01*
X138436754Y-96670380D01*
X138413423Y-96659345D01*
X138391285Y-96646077D01*
X138370555Y-96630702D01*
X138351431Y-96613369D01*
X138334098Y-96594245D01*
X138318723Y-96573515D01*
X138305455Y-96551377D01*
X138294420Y-96528046D01*
X138285725Y-96503745D01*
X138279453Y-96478709D01*
X138275666Y-96453179D01*
X138274400Y-96427400D01*
X138274400Y-95901400D01*
X138275666Y-95875621D01*
X138279453Y-95850091D01*
X138285725Y-95825055D01*
X138294420Y-95800754D01*
X138305455Y-95777423D01*
X138318723Y-95755285D01*
X138334098Y-95734555D01*
X138351431Y-95715431D01*
X138370555Y-95698098D01*
X138391285Y-95682723D01*
X138413423Y-95669455D01*
X138436754Y-95658420D01*
X138461055Y-95649725D01*
X138486091Y-95643453D01*
X138511621Y-95639666D01*
X138537400Y-95638400D01*
X139163400Y-95638400D01*
X139189179Y-95639666D01*
X139189179Y-95639666D01*
G37*
D17*
X138850400Y-96164400D03*
D16*
G36*
X124132563Y-85841690D02*
G01*
X124158569Y-85845548D01*
X124184071Y-85851935D01*
X124208824Y-85860792D01*
X124232590Y-85872033D01*
X124255139Y-85885548D01*
X124276256Y-85901209D01*
X124295735Y-85918865D01*
X124313391Y-85938344D01*
X124329052Y-85959461D01*
X124342567Y-85982010D01*
X124353808Y-86005776D01*
X124362665Y-86030529D01*
X124369052Y-86056031D01*
X124372910Y-86082037D01*
X124374200Y-86108295D01*
X124374200Y-87424505D01*
X124372910Y-87450763D01*
X124369052Y-87476769D01*
X124362665Y-87502271D01*
X124353808Y-87527024D01*
X124342567Y-87550790D01*
X124329052Y-87573339D01*
X124313391Y-87594456D01*
X124295735Y-87613935D01*
X124276256Y-87631591D01*
X124255139Y-87647252D01*
X124232590Y-87660767D01*
X124208824Y-87672008D01*
X124184071Y-87680865D01*
X124158569Y-87687252D01*
X124132563Y-87691110D01*
X124106305Y-87692400D01*
X123115095Y-87692400D01*
X123088837Y-87691110D01*
X123062831Y-87687252D01*
X123037329Y-87680865D01*
X123012576Y-87672008D01*
X122988810Y-87660767D01*
X122966261Y-87647252D01*
X122945144Y-87631591D01*
X122925665Y-87613935D01*
X122908009Y-87594456D01*
X122892348Y-87573339D01*
X122878833Y-87550790D01*
X122867592Y-87527024D01*
X122858735Y-87502271D01*
X122852348Y-87476769D01*
X122848490Y-87450763D01*
X122847200Y-87424505D01*
X122847200Y-86108295D01*
X122848490Y-86082037D01*
X122852348Y-86056031D01*
X122858735Y-86030529D01*
X122867592Y-86005776D01*
X122878833Y-85982010D01*
X122892348Y-85959461D01*
X122908009Y-85938344D01*
X122925665Y-85918865D01*
X122945144Y-85901209D01*
X122966261Y-85885548D01*
X122988810Y-85872033D01*
X123012576Y-85860792D01*
X123037329Y-85851935D01*
X123062831Y-85845548D01*
X123088837Y-85841690D01*
X123115095Y-85840400D01*
X124106305Y-85840400D01*
X124132563Y-85841690D01*
X124132563Y-85841690D01*
G37*
D18*
X123610700Y-86766400D03*
D16*
G36*
X121157563Y-85841690D02*
G01*
X121183569Y-85845548D01*
X121209071Y-85851935D01*
X121233824Y-85860792D01*
X121257590Y-85872033D01*
X121280139Y-85885548D01*
X121301256Y-85901209D01*
X121320735Y-85918865D01*
X121338391Y-85938344D01*
X121354052Y-85959461D01*
X121367567Y-85982010D01*
X121378808Y-86005776D01*
X121387665Y-86030529D01*
X121394052Y-86056031D01*
X121397910Y-86082037D01*
X121399200Y-86108295D01*
X121399200Y-87424505D01*
X121397910Y-87450763D01*
X121394052Y-87476769D01*
X121387665Y-87502271D01*
X121378808Y-87527024D01*
X121367567Y-87550790D01*
X121354052Y-87573339D01*
X121338391Y-87594456D01*
X121320735Y-87613935D01*
X121301256Y-87631591D01*
X121280139Y-87647252D01*
X121257590Y-87660767D01*
X121233824Y-87672008D01*
X121209071Y-87680865D01*
X121183569Y-87687252D01*
X121157563Y-87691110D01*
X121131305Y-87692400D01*
X120140095Y-87692400D01*
X120113837Y-87691110D01*
X120087831Y-87687252D01*
X120062329Y-87680865D01*
X120037576Y-87672008D01*
X120013810Y-87660767D01*
X119991261Y-87647252D01*
X119970144Y-87631591D01*
X119950665Y-87613935D01*
X119933009Y-87594456D01*
X119917348Y-87573339D01*
X119903833Y-87550790D01*
X119892592Y-87527024D01*
X119883735Y-87502271D01*
X119877348Y-87476769D01*
X119873490Y-87450763D01*
X119872200Y-87424505D01*
X119872200Y-86108295D01*
X119873490Y-86082037D01*
X119877348Y-86056031D01*
X119883735Y-86030529D01*
X119892592Y-86005776D01*
X119903833Y-85982010D01*
X119917348Y-85959461D01*
X119933009Y-85938344D01*
X119950665Y-85918865D01*
X119970144Y-85901209D01*
X119991261Y-85885548D01*
X120013810Y-85872033D01*
X120037576Y-85860792D01*
X120062329Y-85851935D01*
X120087831Y-85845548D01*
X120113837Y-85841690D01*
X120140095Y-85840400D01*
X121131305Y-85840400D01*
X121157563Y-85841690D01*
X121157563Y-85841690D01*
G37*
D18*
X120635700Y-86766400D03*
D12*
X129616200Y-114757200D03*
X129616200Y-112217200D03*
X129616200Y-109677200D03*
X129616200Y-107137200D03*
X129616200Y-104597200D03*
X129616200Y-102057200D03*
X129616200Y-99517200D03*
X129616200Y-96977200D03*
X129616200Y-94437200D03*
X129616200Y-91897200D03*
X129616200Y-89357200D03*
D13*
X129616200Y-86817200D03*
D12*
X144856200Y-114757200D03*
X144856200Y-112217200D03*
X144856200Y-109677200D03*
X144856200Y-107137200D03*
X144856200Y-104597200D03*
X144856200Y-102057200D03*
X144856200Y-99517200D03*
X144856200Y-96977200D03*
X144856200Y-94437200D03*
X144856200Y-91897200D03*
X144856200Y-89357200D03*
D13*
X144856200Y-86817200D03*
M02*
