G04 #@! TF.GenerationSoftware,KiCad,Pcbnew,(5.1.0)-1*
G04 #@! TF.CreationDate,2021-03-05T09:04:21+01:00*
G04 #@! TF.ProjectId,Atari OSS Cartridge,41746172-6920-44f5-9353-204361727472,rev?*
G04 #@! TF.SameCoordinates,Original*
G04 #@! TF.FileFunction,Copper,L2,Bot*
G04 #@! TF.FilePolarity,Positive*
%FSLAX46Y46*%
G04 Gerber Fmt 4.6, Leading zero omitted, Abs format (unit mm)*
G04 Created by KiCad (PCBNEW (5.1.0)-1) date 2021-03-05 09:04:21*
%MOMM*%
%LPD*%
G04 APERTURE LIST*
%ADD10C,1.422400*%
%ADD11R,1.422400X1.422400*%
%ADD12O,1.700000X1.700000*%
%ADD13R,1.700000X1.700000*%
%ADD14C,0.100000*%
%ADD15C,0.950000*%
%ADD16C,1.425000*%
%ADD17C,0.900000*%
%ADD18C,0.800000*%
%ADD19C,0.812800*%
%ADD20C,0.406400*%
%ADD21C,0.609600*%
%ADD22C,0.254000*%
%ADD23C,0.304800*%
%ADD24C,0.250000*%
G04 APERTURE END LIST*
D10*
X141046200Y-103327200D03*
X141046200Y-105867200D03*
X141046200Y-108407200D03*
X141046200Y-110947200D03*
X143586200Y-103327200D03*
X143586200Y-105867200D03*
X143586200Y-108407200D03*
X143586200Y-110947200D03*
X138506200Y-110947200D03*
X135966200Y-110947200D03*
X141046200Y-113487200D03*
X138506200Y-113487200D03*
X135966200Y-113487200D03*
X133426200Y-113487200D03*
X133426200Y-110947200D03*
X133426200Y-108407200D03*
X133426200Y-105867200D03*
X133426200Y-103327200D03*
X130886200Y-110947200D03*
X130886200Y-108407200D03*
X130886200Y-105867200D03*
X130886200Y-103327200D03*
X130886200Y-100787200D03*
X141046200Y-98247200D03*
X138506200Y-98247200D03*
X133426200Y-98247200D03*
X135966200Y-98247200D03*
X143586200Y-100787200D03*
X141046200Y-100787200D03*
X133426200Y-100787200D03*
X135966200Y-100787200D03*
D11*
X138506200Y-100787200D03*
D12*
X111480600Y-114757200D03*
X114020600Y-114757200D03*
X116560600Y-114757200D03*
D13*
X119100600Y-114757200D03*
D12*
X125349000Y-114757200D03*
D13*
X122809000Y-114757200D03*
D12*
X135102600Y-87630000D03*
X137642600Y-87630000D03*
X135102600Y-90170000D03*
X137642600Y-90170000D03*
X135102600Y-92710000D03*
D13*
X137642600Y-92710000D03*
D14*
G36*
X118116779Y-87600144D02*
G01*
X118139834Y-87603563D01*
X118162443Y-87609227D01*
X118184387Y-87617079D01*
X118205457Y-87627044D01*
X118225448Y-87639026D01*
X118244168Y-87652910D01*
X118261438Y-87668562D01*
X118277090Y-87685832D01*
X118290974Y-87704552D01*
X118302956Y-87724543D01*
X118312921Y-87745613D01*
X118320773Y-87767557D01*
X118326437Y-87790166D01*
X118329856Y-87813221D01*
X118331000Y-87836500D01*
X118331000Y-88411500D01*
X118329856Y-88434779D01*
X118326437Y-88457834D01*
X118320773Y-88480443D01*
X118312921Y-88502387D01*
X118302956Y-88523457D01*
X118290974Y-88543448D01*
X118277090Y-88562168D01*
X118261438Y-88579438D01*
X118244168Y-88595090D01*
X118225448Y-88608974D01*
X118205457Y-88620956D01*
X118184387Y-88630921D01*
X118162443Y-88638773D01*
X118139834Y-88644437D01*
X118116779Y-88647856D01*
X118093500Y-88649000D01*
X117618500Y-88649000D01*
X117595221Y-88647856D01*
X117572166Y-88644437D01*
X117549557Y-88638773D01*
X117527613Y-88630921D01*
X117506543Y-88620956D01*
X117486552Y-88608974D01*
X117467832Y-88595090D01*
X117450562Y-88579438D01*
X117434910Y-88562168D01*
X117421026Y-88543448D01*
X117409044Y-88523457D01*
X117399079Y-88502387D01*
X117391227Y-88480443D01*
X117385563Y-88457834D01*
X117382144Y-88434779D01*
X117381000Y-88411500D01*
X117381000Y-87836500D01*
X117382144Y-87813221D01*
X117385563Y-87790166D01*
X117391227Y-87767557D01*
X117399079Y-87745613D01*
X117409044Y-87724543D01*
X117421026Y-87704552D01*
X117434910Y-87685832D01*
X117450562Y-87668562D01*
X117467832Y-87652910D01*
X117486552Y-87639026D01*
X117506543Y-87627044D01*
X117527613Y-87617079D01*
X117549557Y-87609227D01*
X117572166Y-87603563D01*
X117595221Y-87600144D01*
X117618500Y-87599000D01*
X118093500Y-87599000D01*
X118116779Y-87600144D01*
X118116779Y-87600144D01*
G37*
D15*
X117856000Y-88124000D03*
D14*
G36*
X118116779Y-85850144D02*
G01*
X118139834Y-85853563D01*
X118162443Y-85859227D01*
X118184387Y-85867079D01*
X118205457Y-85877044D01*
X118225448Y-85889026D01*
X118244168Y-85902910D01*
X118261438Y-85918562D01*
X118277090Y-85935832D01*
X118290974Y-85954552D01*
X118302956Y-85974543D01*
X118312921Y-85995613D01*
X118320773Y-86017557D01*
X118326437Y-86040166D01*
X118329856Y-86063221D01*
X118331000Y-86086500D01*
X118331000Y-86661500D01*
X118329856Y-86684779D01*
X118326437Y-86707834D01*
X118320773Y-86730443D01*
X118312921Y-86752387D01*
X118302956Y-86773457D01*
X118290974Y-86793448D01*
X118277090Y-86812168D01*
X118261438Y-86829438D01*
X118244168Y-86845090D01*
X118225448Y-86858974D01*
X118205457Y-86870956D01*
X118184387Y-86880921D01*
X118162443Y-86888773D01*
X118139834Y-86894437D01*
X118116779Y-86897856D01*
X118093500Y-86899000D01*
X117618500Y-86899000D01*
X117595221Y-86897856D01*
X117572166Y-86894437D01*
X117549557Y-86888773D01*
X117527613Y-86880921D01*
X117506543Y-86870956D01*
X117486552Y-86858974D01*
X117467832Y-86845090D01*
X117450562Y-86829438D01*
X117434910Y-86812168D01*
X117421026Y-86793448D01*
X117409044Y-86773457D01*
X117399079Y-86752387D01*
X117391227Y-86730443D01*
X117385563Y-86707834D01*
X117382144Y-86684779D01*
X117381000Y-86661500D01*
X117381000Y-86086500D01*
X117382144Y-86063221D01*
X117385563Y-86040166D01*
X117391227Y-86017557D01*
X117399079Y-85995613D01*
X117409044Y-85974543D01*
X117421026Y-85954552D01*
X117434910Y-85935832D01*
X117450562Y-85918562D01*
X117467832Y-85902910D01*
X117486552Y-85889026D01*
X117506543Y-85877044D01*
X117527613Y-85867079D01*
X117549557Y-85859227D01*
X117572166Y-85853563D01*
X117595221Y-85850144D01*
X117618500Y-85849000D01*
X118093500Y-85849000D01*
X118116779Y-85850144D01*
X118116779Y-85850144D01*
G37*
D15*
X117856000Y-86374000D03*
D14*
G36*
X140911179Y-95690544D02*
G01*
X140934234Y-95693963D01*
X140956843Y-95699627D01*
X140978787Y-95707479D01*
X140999857Y-95717444D01*
X141019848Y-95729426D01*
X141038568Y-95743310D01*
X141055838Y-95758962D01*
X141071490Y-95776232D01*
X141085374Y-95794952D01*
X141097356Y-95814943D01*
X141107321Y-95836013D01*
X141115173Y-95857957D01*
X141120837Y-95880566D01*
X141124256Y-95903621D01*
X141125400Y-95926900D01*
X141125400Y-96401900D01*
X141124256Y-96425179D01*
X141120837Y-96448234D01*
X141115173Y-96470843D01*
X141107321Y-96492787D01*
X141097356Y-96513857D01*
X141085374Y-96533848D01*
X141071490Y-96552568D01*
X141055838Y-96569838D01*
X141038568Y-96585490D01*
X141019848Y-96599374D01*
X140999857Y-96611356D01*
X140978787Y-96621321D01*
X140956843Y-96629173D01*
X140934234Y-96634837D01*
X140911179Y-96638256D01*
X140887900Y-96639400D01*
X140312900Y-96639400D01*
X140289621Y-96638256D01*
X140266566Y-96634837D01*
X140243957Y-96629173D01*
X140222013Y-96621321D01*
X140200943Y-96611356D01*
X140180952Y-96599374D01*
X140162232Y-96585490D01*
X140144962Y-96569838D01*
X140129310Y-96552568D01*
X140115426Y-96533848D01*
X140103444Y-96513857D01*
X140093479Y-96492787D01*
X140085627Y-96470843D01*
X140079963Y-96448234D01*
X140076544Y-96425179D01*
X140075400Y-96401900D01*
X140075400Y-95926900D01*
X140076544Y-95903621D01*
X140079963Y-95880566D01*
X140085627Y-95857957D01*
X140093479Y-95836013D01*
X140103444Y-95814943D01*
X140115426Y-95794952D01*
X140129310Y-95776232D01*
X140144962Y-95758962D01*
X140162232Y-95743310D01*
X140180952Y-95729426D01*
X140200943Y-95717444D01*
X140222013Y-95707479D01*
X140243957Y-95699627D01*
X140266566Y-95693963D01*
X140289621Y-95690544D01*
X140312900Y-95689400D01*
X140887900Y-95689400D01*
X140911179Y-95690544D01*
X140911179Y-95690544D01*
G37*
D15*
X140600400Y-96164400D03*
D14*
G36*
X139161179Y-95690544D02*
G01*
X139184234Y-95693963D01*
X139206843Y-95699627D01*
X139228787Y-95707479D01*
X139249857Y-95717444D01*
X139269848Y-95729426D01*
X139288568Y-95743310D01*
X139305838Y-95758962D01*
X139321490Y-95776232D01*
X139335374Y-95794952D01*
X139347356Y-95814943D01*
X139357321Y-95836013D01*
X139365173Y-95857957D01*
X139370837Y-95880566D01*
X139374256Y-95903621D01*
X139375400Y-95926900D01*
X139375400Y-96401900D01*
X139374256Y-96425179D01*
X139370837Y-96448234D01*
X139365173Y-96470843D01*
X139357321Y-96492787D01*
X139347356Y-96513857D01*
X139335374Y-96533848D01*
X139321490Y-96552568D01*
X139305838Y-96569838D01*
X139288568Y-96585490D01*
X139269848Y-96599374D01*
X139249857Y-96611356D01*
X139228787Y-96621321D01*
X139206843Y-96629173D01*
X139184234Y-96634837D01*
X139161179Y-96638256D01*
X139137900Y-96639400D01*
X138562900Y-96639400D01*
X138539621Y-96638256D01*
X138516566Y-96634837D01*
X138493957Y-96629173D01*
X138472013Y-96621321D01*
X138450943Y-96611356D01*
X138430952Y-96599374D01*
X138412232Y-96585490D01*
X138394962Y-96569838D01*
X138379310Y-96552568D01*
X138365426Y-96533848D01*
X138353444Y-96513857D01*
X138343479Y-96492787D01*
X138335627Y-96470843D01*
X138329963Y-96448234D01*
X138326544Y-96425179D01*
X138325400Y-96401900D01*
X138325400Y-95926900D01*
X138326544Y-95903621D01*
X138329963Y-95880566D01*
X138335627Y-95857957D01*
X138343479Y-95836013D01*
X138353444Y-95814943D01*
X138365426Y-95794952D01*
X138379310Y-95776232D01*
X138394962Y-95758962D01*
X138412232Y-95743310D01*
X138430952Y-95729426D01*
X138450943Y-95717444D01*
X138472013Y-95707479D01*
X138493957Y-95699627D01*
X138516566Y-95693963D01*
X138539621Y-95690544D01*
X138562900Y-95689400D01*
X139137900Y-95689400D01*
X139161179Y-95690544D01*
X139161179Y-95690544D01*
G37*
D15*
X138850400Y-96164400D03*
D14*
G36*
X124097704Y-85892604D02*
G01*
X124121973Y-85896204D01*
X124145771Y-85902165D01*
X124168871Y-85910430D01*
X124191049Y-85920920D01*
X124212093Y-85933533D01*
X124231798Y-85948147D01*
X124249977Y-85964623D01*
X124266453Y-85982802D01*
X124281067Y-86002507D01*
X124293680Y-86023551D01*
X124304170Y-86045729D01*
X124312435Y-86068829D01*
X124318396Y-86092627D01*
X124321996Y-86116896D01*
X124323200Y-86141400D01*
X124323200Y-87391400D01*
X124321996Y-87415904D01*
X124318396Y-87440173D01*
X124312435Y-87463971D01*
X124304170Y-87487071D01*
X124293680Y-87509249D01*
X124281067Y-87530293D01*
X124266453Y-87549998D01*
X124249977Y-87568177D01*
X124231798Y-87584653D01*
X124212093Y-87599267D01*
X124191049Y-87611880D01*
X124168871Y-87622370D01*
X124145771Y-87630635D01*
X124121973Y-87636596D01*
X124097704Y-87640196D01*
X124073200Y-87641400D01*
X123148200Y-87641400D01*
X123123696Y-87640196D01*
X123099427Y-87636596D01*
X123075629Y-87630635D01*
X123052529Y-87622370D01*
X123030351Y-87611880D01*
X123009307Y-87599267D01*
X122989602Y-87584653D01*
X122971423Y-87568177D01*
X122954947Y-87549998D01*
X122940333Y-87530293D01*
X122927720Y-87509249D01*
X122917230Y-87487071D01*
X122908965Y-87463971D01*
X122903004Y-87440173D01*
X122899404Y-87415904D01*
X122898200Y-87391400D01*
X122898200Y-86141400D01*
X122899404Y-86116896D01*
X122903004Y-86092627D01*
X122908965Y-86068829D01*
X122917230Y-86045729D01*
X122927720Y-86023551D01*
X122940333Y-86002507D01*
X122954947Y-85982802D01*
X122971423Y-85964623D01*
X122989602Y-85948147D01*
X123009307Y-85933533D01*
X123030351Y-85920920D01*
X123052529Y-85910430D01*
X123075629Y-85902165D01*
X123099427Y-85896204D01*
X123123696Y-85892604D01*
X123148200Y-85891400D01*
X124073200Y-85891400D01*
X124097704Y-85892604D01*
X124097704Y-85892604D01*
G37*
D16*
X123610700Y-86766400D03*
D14*
G36*
X121122704Y-85892604D02*
G01*
X121146973Y-85896204D01*
X121170771Y-85902165D01*
X121193871Y-85910430D01*
X121216049Y-85920920D01*
X121237093Y-85933533D01*
X121256798Y-85948147D01*
X121274977Y-85964623D01*
X121291453Y-85982802D01*
X121306067Y-86002507D01*
X121318680Y-86023551D01*
X121329170Y-86045729D01*
X121337435Y-86068829D01*
X121343396Y-86092627D01*
X121346996Y-86116896D01*
X121348200Y-86141400D01*
X121348200Y-87391400D01*
X121346996Y-87415904D01*
X121343396Y-87440173D01*
X121337435Y-87463971D01*
X121329170Y-87487071D01*
X121318680Y-87509249D01*
X121306067Y-87530293D01*
X121291453Y-87549998D01*
X121274977Y-87568177D01*
X121256798Y-87584653D01*
X121237093Y-87599267D01*
X121216049Y-87611880D01*
X121193871Y-87622370D01*
X121170771Y-87630635D01*
X121146973Y-87636596D01*
X121122704Y-87640196D01*
X121098200Y-87641400D01*
X120173200Y-87641400D01*
X120148696Y-87640196D01*
X120124427Y-87636596D01*
X120100629Y-87630635D01*
X120077529Y-87622370D01*
X120055351Y-87611880D01*
X120034307Y-87599267D01*
X120014602Y-87584653D01*
X119996423Y-87568177D01*
X119979947Y-87549998D01*
X119965333Y-87530293D01*
X119952720Y-87509249D01*
X119942230Y-87487071D01*
X119933965Y-87463971D01*
X119928004Y-87440173D01*
X119924404Y-87415904D01*
X119923200Y-87391400D01*
X119923200Y-86141400D01*
X119924404Y-86116896D01*
X119928004Y-86092627D01*
X119933965Y-86068829D01*
X119942230Y-86045729D01*
X119952720Y-86023551D01*
X119965333Y-86002507D01*
X119979947Y-85982802D01*
X119996423Y-85964623D01*
X120014602Y-85948147D01*
X120034307Y-85933533D01*
X120055351Y-85920920D01*
X120077529Y-85910430D01*
X120100629Y-85902165D01*
X120124427Y-85896204D01*
X120148696Y-85892604D01*
X120173200Y-85891400D01*
X121098200Y-85891400D01*
X121122704Y-85892604D01*
X121122704Y-85892604D01*
G37*
D16*
X120635700Y-86766400D03*
D10*
X129616200Y-114757200D03*
X129616200Y-112217200D03*
X129616200Y-109677200D03*
X129616200Y-107137200D03*
X129616200Y-104597200D03*
X129616200Y-102057200D03*
X129616200Y-99517200D03*
X129616200Y-96977200D03*
X129616200Y-94437200D03*
X129616200Y-91897200D03*
X129616200Y-89357200D03*
D11*
X129616200Y-86817200D03*
D10*
X144856200Y-114757200D03*
X144856200Y-112217200D03*
X144856200Y-109677200D03*
X144856200Y-107137200D03*
X144856200Y-104597200D03*
X144856200Y-102057200D03*
X144856200Y-99517200D03*
X144856200Y-96977200D03*
X144856200Y-94437200D03*
X144856200Y-91897200D03*
X144856200Y-89357200D03*
D11*
X144856200Y-86817200D03*
D17*
X135940800Y-103403400D03*
X135940800Y-105765600D03*
X138176000Y-105740200D03*
X138226800Y-103403400D03*
X109410500Y-110553500D03*
X109410500Y-99085400D03*
X118745000Y-98933000D03*
D18*
X113614200Y-101117400D03*
X118262400Y-112420400D03*
X127457200Y-103403400D03*
D17*
X122250200Y-102692200D03*
X121945400Y-98958400D03*
X112039400Y-86918800D03*
X127381000Y-86931500D03*
X122872500Y-89471500D03*
X110680500Y-86931500D03*
X114935000Y-91567000D03*
X114998500Y-99822000D03*
X109410500Y-90678000D03*
X109410500Y-100965000D03*
X109410500Y-112522000D03*
D18*
X112699800Y-92760800D03*
X115011200Y-94005400D03*
X127330200Y-89103200D03*
X131902200Y-92379800D03*
X128143000Y-88239600D03*
X131800600Y-88214200D03*
X135077200Y-94716600D03*
X121818400Y-94665800D03*
X118846600Y-105054400D03*
D17*
X119367097Y-86372903D03*
D18*
X118389400Y-90932000D03*
X121406450Y-88970650D03*
X122478800Y-112471200D03*
X124231400Y-95275400D03*
X123190000Y-103632000D03*
X124129800Y-102743002D03*
X124129800Y-97815400D03*
X115011200Y-95275400D03*
X124282202Y-92456000D03*
X115036600Y-97799600D03*
X118719600Y-94005400D03*
X112725200Y-99060000D03*
X112649000Y-109194600D03*
X112699800Y-97815400D03*
X118770400Y-96545400D03*
X112623600Y-96545400D03*
X112623602Y-107924600D03*
X115036600Y-109194600D03*
X115036600Y-104114600D03*
X118643400Y-109347000D03*
X115290601Y-113563399D03*
X118516400Y-101650800D03*
X124180600Y-106603800D03*
X113588800Y-91084400D03*
X121894600Y-110388400D03*
X131673600Y-113487200D03*
X139776200Y-112344200D03*
X128549400Y-90627200D03*
X122123200Y-104775000D03*
X118770400Y-106984800D03*
X118744994Y-95275400D03*
X122631200Y-93929200D03*
X118821200Y-103454200D03*
X117932200Y-108559600D03*
X124028200Y-108229400D03*
X113131600Y-102819200D03*
X127381000Y-105333800D03*
D19*
X130073400Y-115214400D02*
X129616200Y-114757200D01*
X135966200Y-113487200D02*
X134239000Y-115214400D01*
X134239000Y-115214400D02*
X130073400Y-115214400D01*
X129616200Y-114757200D02*
X125349000Y-114757200D01*
D20*
X141833600Y-96189800D02*
X143027400Y-94996000D01*
X146304000Y-87579200D02*
X146304000Y-85750400D01*
X143027400Y-88696800D02*
X143611600Y-88112600D01*
X143027400Y-94996000D02*
X143027400Y-88696800D01*
X140625800Y-96189800D02*
X141833600Y-96189800D01*
X143611600Y-88112600D02*
X145770600Y-88112600D01*
X145770600Y-88112600D02*
X146304000Y-87579200D01*
X140600400Y-96164400D02*
X140625800Y-96189800D01*
X146304000Y-85750400D02*
X145745200Y-85191600D01*
X135102600Y-92710000D02*
X135102600Y-90170000D01*
X135102600Y-90170000D02*
X135102600Y-87630000D01*
D21*
X116560600Y-101117400D02*
X113614200Y-101117400D01*
X118745000Y-98933000D02*
X116560600Y-101117400D01*
D19*
X125349000Y-114757200D02*
X125349000Y-113555119D01*
D22*
X121310400Y-103632000D02*
X122250200Y-102692200D01*
X127457200Y-103403400D02*
X127057201Y-103803399D01*
X127057201Y-103803399D02*
X126625401Y-103803399D01*
X126625401Y-103803399D02*
X124739400Y-105689400D01*
X124739400Y-105689400D02*
X121793000Y-105689400D01*
X121793000Y-105689400D02*
X121310400Y-105206800D01*
X121310400Y-105206800D02*
X121310400Y-103632000D01*
D21*
X122250200Y-102692200D02*
X122250200Y-99263200D01*
X122250200Y-99263200D02*
X121945400Y-98958400D01*
D19*
X123249081Y-111455200D02*
X120929400Y-111455200D01*
D23*
X132156200Y-112217200D02*
X133426200Y-110947200D01*
X129616200Y-112217200D02*
X132156200Y-112217200D01*
X130621988Y-109677200D02*
X129616200Y-109677200D01*
X134137400Y-109677200D02*
X130621988Y-109677200D01*
X134696200Y-110236000D02*
X134137400Y-109677200D01*
X133426200Y-113487200D02*
X134696200Y-112217200D01*
X134696200Y-112217200D02*
X134696200Y-110236000D01*
X132715001Y-107696001D02*
X133426200Y-108407200D01*
X132156200Y-107137200D02*
X132715001Y-107696001D01*
X132156200Y-105283000D02*
X132156200Y-107137200D01*
X129616200Y-104597200D02*
X131470400Y-104597200D01*
X131470400Y-104597200D02*
X132156200Y-105283000D01*
D22*
X129616200Y-105054400D02*
X129616200Y-104597200D01*
X126111000Y-108559600D02*
X129616200Y-105054400D01*
X125196600Y-110134400D02*
X126111000Y-109220000D01*
X123190000Y-110134400D02*
X125196600Y-110134400D01*
X110794800Y-94665800D02*
X110794800Y-109728000D01*
X126111000Y-109220000D02*
X126111000Y-108559600D01*
X122682000Y-109626400D02*
X123190000Y-110134400D01*
X112699800Y-92760800D02*
X110794800Y-94665800D01*
X110794800Y-109728000D02*
X112496600Y-111429800D01*
X112496600Y-111429800D02*
X119557800Y-111429800D01*
X119557800Y-111429800D02*
X121361200Y-109626400D01*
X121361200Y-109626400D02*
X122682000Y-109626400D01*
D23*
X130621988Y-99517200D02*
X129616200Y-99517200D01*
X131470400Y-99517200D02*
X130621988Y-99517200D01*
X132156200Y-100203000D02*
X131470400Y-99517200D01*
X132156200Y-104419400D02*
X132156200Y-100203000D01*
X133426200Y-105867200D02*
X133426200Y-105689400D01*
X133426200Y-105689400D02*
X132156200Y-104419400D01*
D22*
X126390400Y-89103200D02*
X127330200Y-89103200D01*
X123418600Y-92075000D02*
X126390400Y-89103200D01*
X118618000Y-92075000D02*
X123418600Y-92075000D01*
X115011200Y-94005400D02*
X116687600Y-94005400D01*
X116687600Y-94005400D02*
X118618000Y-92075000D01*
D23*
X129108200Y-91897200D02*
X129616200Y-91897200D01*
X127866790Y-93138610D02*
X129108200Y-91897200D01*
X127866790Y-102034990D02*
X127866790Y-93138610D01*
X130886200Y-103327200D02*
X129159000Y-103327200D01*
X129159000Y-103327200D02*
X127866790Y-102034990D01*
X133426200Y-100787200D02*
X133426200Y-100355400D01*
X133426200Y-100355400D02*
X131978400Y-98907600D01*
X131978400Y-98907600D02*
X131978400Y-92456000D01*
X131978400Y-92456000D02*
X131902200Y-92379800D01*
X131038600Y-88239600D02*
X129616200Y-86817200D01*
X128854200Y-100787200D02*
X128371600Y-100304600D01*
X130886200Y-100787200D02*
X128854200Y-100787200D01*
X128371600Y-100304600D02*
X128371600Y-93853000D01*
X131038600Y-92481400D02*
X131038600Y-88239600D01*
X128371600Y-93853000D02*
X129057400Y-93167200D01*
X129057400Y-93167200D02*
X130352800Y-93167200D01*
X130352800Y-93167200D02*
X131038600Y-92481400D01*
X136677399Y-111658399D02*
X135966200Y-110947200D01*
X137261600Y-112242600D02*
X136677399Y-111658399D01*
X137261600Y-114223800D02*
X137261600Y-112242600D01*
X138379200Y-115341400D02*
X137261600Y-114223800D01*
X144856200Y-114757200D02*
X144272000Y-115341400D01*
X144272000Y-115341400D02*
X138379200Y-115341400D01*
X139217399Y-114198399D02*
X138506200Y-113487200D01*
X139750800Y-114731800D02*
X139217399Y-114198399D01*
X144856200Y-112217200D02*
X142341600Y-114731800D01*
X142341600Y-114731800D02*
X139750800Y-114731800D01*
X143850412Y-107137200D02*
X144856200Y-107137200D01*
X142875000Y-107137200D02*
X143850412Y-107137200D01*
X142316200Y-107696000D02*
X142875000Y-107137200D01*
X141046200Y-113487200D02*
X142316200Y-112217200D01*
X142316200Y-112217200D02*
X142316200Y-107696000D01*
X145567399Y-105308399D02*
X144856200Y-104597200D01*
X146100800Y-105841800D02*
X145567399Y-105308399D01*
X146100800Y-110337600D02*
X146100800Y-105841800D01*
X143586200Y-110947200D02*
X145491200Y-110947200D01*
X145491200Y-110947200D02*
X146100800Y-110337600D01*
X143850412Y-102057200D02*
X144856200Y-102057200D01*
X142900400Y-102057200D02*
X143850412Y-102057200D01*
X142341600Y-102616000D02*
X142900400Y-102057200D01*
X142341600Y-104013000D02*
X142341600Y-102616000D01*
X143586200Y-105867200D02*
X143586200Y-105257600D01*
X143586200Y-105257600D02*
X142341600Y-104013000D01*
D22*
X131800600Y-88779885D02*
X132918200Y-89897485D01*
X131800600Y-88214200D02*
X131800600Y-88779885D01*
X132918200Y-89897485D02*
X132918200Y-94386400D01*
X132918200Y-94386400D02*
X133248400Y-94716600D01*
X133248400Y-94716600D02*
X135077200Y-94716600D01*
X121818400Y-94640400D02*
X121818400Y-94665800D01*
X121462800Y-94640400D02*
X121818400Y-94640400D01*
X120853200Y-97790000D02*
X120853200Y-95250000D01*
X120853200Y-95250000D02*
X121462800Y-94640400D01*
X128143000Y-89560400D02*
X128143000Y-88239600D01*
X123037600Y-94665800D02*
X123418600Y-94284800D01*
X121818400Y-94665800D02*
X123037600Y-94665800D01*
X123418600Y-94284800D02*
X126568200Y-94284800D01*
X126568200Y-94284800D02*
X126882571Y-93970429D01*
X126882571Y-93970429D02*
X126882571Y-90820829D01*
X126882571Y-90820829D02*
X128143000Y-89560400D01*
X120853200Y-97790000D02*
X120853200Y-103047800D01*
X119246599Y-104654401D02*
X118846600Y-105054400D01*
X120853200Y-103047800D02*
X119246599Y-104654401D01*
D23*
X146151600Y-93192600D02*
X144856200Y-91897200D01*
X146151600Y-97612200D02*
X146151600Y-93192600D01*
X142316200Y-100070272D02*
X144139272Y-98247200D01*
X144139272Y-98247200D02*
X145516600Y-98247200D01*
X141046200Y-105867200D02*
X139776200Y-104597200D01*
X140329272Y-102057200D02*
X141935200Y-102057200D01*
X139776200Y-104597200D02*
X139776200Y-102610272D01*
X139776200Y-102610272D02*
X140329272Y-102057200D01*
X142316200Y-101676200D02*
X142316200Y-100070272D01*
X141935200Y-102057200D02*
X142316200Y-101676200D01*
X145516600Y-98247200D02*
X146151600Y-97612200D01*
X146253200Y-102666800D02*
X146253200Y-98224510D01*
X143586200Y-103327200D02*
X145592800Y-103327200D01*
X145592800Y-103327200D02*
X146253200Y-102666800D01*
X146656411Y-97821299D02*
X146656411Y-91157411D01*
X146656411Y-91157411D02*
X145567399Y-90068399D01*
X145567399Y-90068399D02*
X144856200Y-89357200D01*
X146253200Y-98224510D02*
X146656411Y-97821299D01*
D21*
X120243300Y-86374000D02*
X120635700Y-86766400D01*
X117856000Y-86374000D02*
X120243300Y-86374000D01*
D19*
X143332200Y-86817200D02*
X144856200Y-86817200D01*
X141605000Y-88544400D02*
X143332200Y-86817200D01*
X141605000Y-92760800D02*
X141605000Y-88544400D01*
X138872900Y-95492900D02*
X141605000Y-92760800D01*
X138506200Y-98247200D02*
X138872900Y-97880500D01*
X138872900Y-97880500D02*
X138872900Y-95492900D01*
D22*
X118389400Y-90932000D02*
X119445100Y-90932000D01*
X119445100Y-90932000D02*
X121406450Y-88970650D01*
X121406450Y-88970650D02*
X123610700Y-86766400D01*
D23*
X136792601Y-88479999D02*
X137642600Y-87630000D01*
X136372600Y-88900000D02*
X136792601Y-88479999D01*
X136372600Y-96835012D02*
X136372600Y-88900000D01*
X135966200Y-98247200D02*
X135966200Y-97241412D01*
X135966200Y-97241412D02*
X136372600Y-96835012D01*
X138150600Y-90170000D02*
X137642600Y-90170000D01*
X139115800Y-91135200D02*
X138150600Y-90170000D01*
X139115800Y-93954600D02*
X139115800Y-91135200D01*
X137236200Y-95834200D02*
X139115800Y-93954600D01*
X135966200Y-100787200D02*
X137236200Y-99517200D01*
X137236200Y-99517200D02*
X137236200Y-95834200D01*
D22*
X121361200Y-112471200D02*
X122478800Y-112471200D01*
X119100600Y-114757200D02*
X119100600Y-114731800D01*
X119100600Y-114731800D02*
X121361200Y-112471200D01*
X123190000Y-96316800D02*
X123190000Y-103066315D01*
X123190000Y-103066315D02*
X123190000Y-103632000D01*
X124231400Y-95275400D02*
X123190000Y-96316800D01*
X124180600Y-99085400D02*
X124180600Y-102692202D01*
X124180600Y-102692202D02*
X124129800Y-102743002D01*
X124180600Y-99085400D02*
X124180600Y-97866200D01*
X124180600Y-97866200D02*
X124129800Y-97815400D01*
D24*
X123882203Y-92855999D02*
X124282202Y-92456000D01*
X123831403Y-92906799D02*
X123882203Y-92855999D01*
X118649801Y-92906799D02*
X123831403Y-92906799D01*
X116281200Y-95275400D02*
X118649801Y-92906799D01*
X115011200Y-95275400D02*
X116281200Y-95275400D01*
D22*
X117881400Y-94843600D02*
X118719600Y-94005400D01*
X117881400Y-97358200D02*
X117881400Y-94843600D01*
X115036600Y-97799600D02*
X117440000Y-97799600D01*
X117440000Y-97799600D02*
X117881400Y-97358200D01*
X113411000Y-108432600D02*
X112649000Y-109194600D01*
X113411000Y-107467400D02*
X113411000Y-108432600D01*
X112391810Y-106448210D02*
X113411000Y-107467400D01*
X112725200Y-99060000D02*
X112391810Y-99393390D01*
X112391810Y-99393390D02*
X112391810Y-106448210D01*
X118770400Y-97282000D02*
X118770400Y-96545400D01*
X117525800Y-98526600D02*
X118770400Y-97282000D01*
X112699800Y-97815400D02*
X113411000Y-98526600D01*
X113411000Y-98526600D02*
X117525800Y-98526600D01*
X111861600Y-107162598D02*
X112623602Y-107924600D01*
X112623600Y-96545400D02*
X111861600Y-97307400D01*
X111861600Y-97307400D02*
X111861600Y-107162598D01*
X115036600Y-109194600D02*
X115036600Y-104114600D01*
X122809000Y-114757200D02*
X121705000Y-114757200D01*
X121705000Y-114757200D02*
X120206400Y-116255800D01*
X120206400Y-116255800D02*
X115900200Y-116255800D01*
X115290601Y-114129084D02*
X115290601Y-113563399D01*
X115290601Y-115646201D02*
X115290601Y-114129084D01*
X115900200Y-116255800D02*
X115290601Y-115646201D01*
X118116401Y-102050799D02*
X118516400Y-101650800D01*
X117094000Y-103073200D02*
X118116401Y-102050799D01*
X117094000Y-109093000D02*
X117094000Y-103073200D01*
X118643400Y-109347000D02*
X117348000Y-109347000D01*
X117348000Y-109347000D02*
X117094000Y-109093000D01*
X128219200Y-105638600D02*
X125577600Y-108280200D01*
X128219200Y-104927400D02*
X128219200Y-105638600D01*
X127660400Y-104368600D02*
X128219200Y-104927400D01*
X127025400Y-104368600D02*
X127660400Y-104368600D01*
X124180600Y-106603800D02*
X124790200Y-106603800D01*
X121158000Y-109118400D02*
X119405400Y-110871000D01*
X119405400Y-110871000D02*
X112732266Y-110871000D01*
X112732266Y-110871000D02*
X111328200Y-109466934D01*
X125577600Y-108280200D02*
X125577600Y-109016802D01*
X111328200Y-109466934D02*
X111328200Y-96570800D01*
X124790200Y-106603800D02*
X127025400Y-104368600D01*
X125577600Y-109016802D02*
X124968002Y-109626400D01*
X124968002Y-109626400D02*
X123418600Y-109626400D01*
X123418600Y-109626400D02*
X122910600Y-109118400D01*
X113588800Y-94310200D02*
X113588800Y-91084400D01*
X122910600Y-109118400D02*
X121158000Y-109118400D01*
X111328200Y-96570800D02*
X113588800Y-94310200D01*
D23*
X141046200Y-103809800D02*
X141046200Y-103327200D01*
X139776200Y-107721400D02*
X140411200Y-107086400D01*
X139776200Y-112344200D02*
X139776200Y-107721400D01*
X140411200Y-107086400D02*
X141833600Y-107086400D01*
X141833600Y-107086400D02*
X142290800Y-106629200D01*
X142290800Y-106629200D02*
X142290800Y-105054400D01*
X142290800Y-105054400D02*
X141046200Y-103809800D01*
D22*
X126796800Y-113487200D02*
X131673600Y-113487200D01*
X124031391Y-110721791D02*
X126796800Y-113487200D01*
X121894600Y-110388400D02*
X122227991Y-110721791D01*
X122227991Y-110721791D02*
X124031391Y-110721791D01*
D23*
X141046200Y-108407200D02*
X141046200Y-110947200D01*
D22*
X124879162Y-104775000D02*
X122688885Y-104775000D01*
X122688885Y-104775000D02*
X122123200Y-104775000D01*
X127361981Y-102292181D02*
X124879162Y-104775000D01*
X127361981Y-91814619D02*
X127361981Y-102292181D01*
X128549400Y-90627200D02*
X127361981Y-91814619D01*
X118745000Y-106959400D02*
X118770400Y-106984800D01*
X119068134Y-102565200D02*
X119837200Y-101796134D01*
X119837200Y-96367606D02*
X119144993Y-95675399D01*
X119837200Y-101796134D02*
X119837200Y-96367606D01*
X119144993Y-95675399D02*
X118744994Y-95275400D01*
X118414800Y-102565200D02*
X119068134Y-102565200D01*
X117983000Y-106197400D02*
X117983000Y-102997000D01*
X117983000Y-102997000D02*
X118414800Y-102565200D01*
X118770400Y-106984800D02*
X117983000Y-106197400D01*
X119126000Y-103454200D02*
X118821200Y-103454200D01*
X120319800Y-102260400D02*
X119126000Y-103454200D01*
X120319800Y-95021400D02*
X120319800Y-102260400D01*
X121488200Y-93853000D02*
X120319800Y-95021400D01*
X122631200Y-93929200D02*
X122555000Y-93853000D01*
X122555000Y-93853000D02*
X121488200Y-93853000D01*
X123952000Y-108305600D02*
X124028200Y-108229400D01*
X123520200Y-107721400D02*
X124028200Y-108229400D01*
X120472200Y-107721400D02*
X123520200Y-107721400D01*
X117932200Y-108559600D02*
X119634000Y-108559600D01*
X119634000Y-108559600D02*
X120472200Y-107721400D01*
X113131600Y-106545934D02*
X113131600Y-102819200D01*
X113919000Y-109524800D02*
X113919000Y-107333334D01*
X119253000Y-110312200D02*
X114706400Y-110312200D01*
X125069600Y-107645200D02*
X125069600Y-108686600D01*
X113919000Y-107333334D02*
X113131600Y-106545934D01*
X120929400Y-108635800D02*
X119253000Y-110312200D01*
X127381000Y-105333800D02*
X125069600Y-107645200D01*
X114706400Y-110312200D02*
X113919000Y-109524800D01*
X124764800Y-108991400D02*
X123545600Y-108991400D01*
X123545600Y-108991400D02*
X123190000Y-108635800D01*
X125069600Y-108686600D02*
X124764800Y-108991400D01*
X123190000Y-108635800D02*
X120929400Y-108635800D01*
G36*
X125602340Y-113370371D02*
G01*
X125476000Y-113437045D01*
X125476000Y-114630200D01*
X126669814Y-114630200D01*
X126790481Y-114400309D01*
X126736064Y-114246904D01*
X126759374Y-114249200D01*
X126759377Y-114249200D01*
X126796800Y-114252886D01*
X126834223Y-114249200D01*
X128367732Y-114249200D01*
X128339998Y-114308709D01*
X128277024Y-114566302D01*
X128265513Y-114831230D01*
X128305909Y-115093313D01*
X128396658Y-115342480D01*
X128452017Y-115446048D01*
X128686927Y-115506868D01*
X129436595Y-114757200D01*
X129422453Y-114743058D01*
X129602058Y-114563453D01*
X129616200Y-114577595D01*
X129630343Y-114563453D01*
X129809948Y-114743058D01*
X129795805Y-114757200D01*
X130545473Y-115506868D01*
X130780383Y-115446048D01*
X130892402Y-115205691D01*
X130955376Y-114948098D01*
X130966887Y-114683170D01*
X130926491Y-114421087D01*
X130863888Y-114249200D01*
X130971889Y-114249200D01*
X131013826Y-114291137D01*
X131183344Y-114404405D01*
X131371702Y-114482426D01*
X131571661Y-114522200D01*
X131775539Y-114522200D01*
X131975498Y-114482426D01*
X132163856Y-114404405D01*
X132333374Y-114291137D01*
X132339931Y-114284580D01*
X132380538Y-114345353D01*
X132568047Y-114532862D01*
X132788535Y-114680187D01*
X133033528Y-114781667D01*
X133293611Y-114833400D01*
X133558789Y-114833400D01*
X133818872Y-114781667D01*
X134063865Y-114680187D01*
X134284353Y-114532862D01*
X134471862Y-114345353D01*
X134619187Y-114124865D01*
X134697169Y-113936600D01*
X134746658Y-114072480D01*
X134802017Y-114176048D01*
X135036927Y-114236868D01*
X135786595Y-113487200D01*
X135772453Y-113473058D01*
X135952058Y-113293453D01*
X135966200Y-113307595D01*
X135980343Y-113293453D01*
X136159948Y-113473058D01*
X136145805Y-113487200D01*
X136159948Y-113501343D01*
X135980343Y-113680948D01*
X135966200Y-113666805D01*
X135216532Y-114416473D01*
X135277352Y-114651383D01*
X135517709Y-114763402D01*
X135775302Y-114826376D01*
X136040230Y-114837887D01*
X136302313Y-114797491D01*
X136551480Y-114706742D01*
X136612542Y-114674103D01*
X136702131Y-114783269D01*
X136732177Y-114807928D01*
X137795077Y-115870828D01*
X137819731Y-115900869D01*
X137939628Y-115999266D01*
X138076417Y-116072382D01*
X138179989Y-116103800D01*
X129716746Y-116103800D01*
X129952313Y-116067491D01*
X130201480Y-115976742D01*
X130305048Y-115921383D01*
X130365868Y-115686473D01*
X129616200Y-114936805D01*
X128866532Y-115686473D01*
X128927352Y-115921383D01*
X129167709Y-116033402D01*
X129425302Y-116096376D01*
X129596167Y-116103800D01*
X125958545Y-116103800D01*
X126115920Y-116028841D01*
X126349269Y-115854788D01*
X126544178Y-115638555D01*
X126693157Y-115388452D01*
X126790481Y-115114091D01*
X126669814Y-114884200D01*
X125476000Y-114884200D01*
X125476000Y-114904200D01*
X125222000Y-114904200D01*
X125222000Y-114884200D01*
X125202000Y-114884200D01*
X125202000Y-114630200D01*
X125222000Y-114630200D01*
X125222000Y-113437045D01*
X124992110Y-113315724D01*
X124844901Y-113360375D01*
X124582080Y-113485559D01*
X124348731Y-113659612D01*
X124272966Y-113743666D01*
X124248502Y-113663020D01*
X124189537Y-113552706D01*
X124110185Y-113456015D01*
X124013494Y-113376663D01*
X123903180Y-113317698D01*
X123783482Y-113281388D01*
X123659000Y-113269128D01*
X123144583Y-113269128D01*
X123282737Y-113130974D01*
X123396005Y-112961456D01*
X123474026Y-112773098D01*
X123513800Y-112573139D01*
X123513800Y-112369261D01*
X123474026Y-112169302D01*
X123396005Y-111980944D01*
X123282737Y-111811426D01*
X123138574Y-111667263D01*
X122969056Y-111553995D01*
X122799570Y-111483791D01*
X123715761Y-111483791D01*
X125602340Y-113370371D01*
X125602340Y-113370371D01*
G37*
X125602340Y-113370371D02*
X125476000Y-113437045D01*
X125476000Y-114630200D01*
X126669814Y-114630200D01*
X126790481Y-114400309D01*
X126736064Y-114246904D01*
X126759374Y-114249200D01*
X126759377Y-114249200D01*
X126796800Y-114252886D01*
X126834223Y-114249200D01*
X128367732Y-114249200D01*
X128339998Y-114308709D01*
X128277024Y-114566302D01*
X128265513Y-114831230D01*
X128305909Y-115093313D01*
X128396658Y-115342480D01*
X128452017Y-115446048D01*
X128686927Y-115506868D01*
X129436595Y-114757200D01*
X129422453Y-114743058D01*
X129602058Y-114563453D01*
X129616200Y-114577595D01*
X129630343Y-114563453D01*
X129809948Y-114743058D01*
X129795805Y-114757200D01*
X130545473Y-115506868D01*
X130780383Y-115446048D01*
X130892402Y-115205691D01*
X130955376Y-114948098D01*
X130966887Y-114683170D01*
X130926491Y-114421087D01*
X130863888Y-114249200D01*
X130971889Y-114249200D01*
X131013826Y-114291137D01*
X131183344Y-114404405D01*
X131371702Y-114482426D01*
X131571661Y-114522200D01*
X131775539Y-114522200D01*
X131975498Y-114482426D01*
X132163856Y-114404405D01*
X132333374Y-114291137D01*
X132339931Y-114284580D01*
X132380538Y-114345353D01*
X132568047Y-114532862D01*
X132788535Y-114680187D01*
X133033528Y-114781667D01*
X133293611Y-114833400D01*
X133558789Y-114833400D01*
X133818872Y-114781667D01*
X134063865Y-114680187D01*
X134284353Y-114532862D01*
X134471862Y-114345353D01*
X134619187Y-114124865D01*
X134697169Y-113936600D01*
X134746658Y-114072480D01*
X134802017Y-114176048D01*
X135036927Y-114236868D01*
X135786595Y-113487200D01*
X135772453Y-113473058D01*
X135952058Y-113293453D01*
X135966200Y-113307595D01*
X135980343Y-113293453D01*
X136159948Y-113473058D01*
X136145805Y-113487200D01*
X136159948Y-113501343D01*
X135980343Y-113680948D01*
X135966200Y-113666805D01*
X135216532Y-114416473D01*
X135277352Y-114651383D01*
X135517709Y-114763402D01*
X135775302Y-114826376D01*
X136040230Y-114837887D01*
X136302313Y-114797491D01*
X136551480Y-114706742D01*
X136612542Y-114674103D01*
X136702131Y-114783269D01*
X136732177Y-114807928D01*
X137795077Y-115870828D01*
X137819731Y-115900869D01*
X137939628Y-115999266D01*
X138076417Y-116072382D01*
X138179989Y-116103800D01*
X129716746Y-116103800D01*
X129952313Y-116067491D01*
X130201480Y-115976742D01*
X130305048Y-115921383D01*
X130365868Y-115686473D01*
X129616200Y-114936805D01*
X128866532Y-115686473D01*
X128927352Y-115921383D01*
X129167709Y-116033402D01*
X129425302Y-116096376D01*
X129596167Y-116103800D01*
X125958545Y-116103800D01*
X126115920Y-116028841D01*
X126349269Y-115854788D01*
X126544178Y-115638555D01*
X126693157Y-115388452D01*
X126790481Y-115114091D01*
X126669814Y-114884200D01*
X125476000Y-114884200D01*
X125476000Y-114904200D01*
X125222000Y-114904200D01*
X125222000Y-114884200D01*
X125202000Y-114884200D01*
X125202000Y-114630200D01*
X125222000Y-114630200D01*
X125222000Y-113437045D01*
X124992110Y-113315724D01*
X124844901Y-113360375D01*
X124582080Y-113485559D01*
X124348731Y-113659612D01*
X124272966Y-113743666D01*
X124248502Y-113663020D01*
X124189537Y-113552706D01*
X124110185Y-113456015D01*
X124013494Y-113376663D01*
X123903180Y-113317698D01*
X123783482Y-113281388D01*
X123659000Y-113269128D01*
X123144583Y-113269128D01*
X123282737Y-113130974D01*
X123396005Y-112961456D01*
X123474026Y-112773098D01*
X123513800Y-112573139D01*
X123513800Y-112369261D01*
X123474026Y-112169302D01*
X123396005Y-111980944D01*
X123282737Y-111811426D01*
X123138574Y-111667263D01*
X122969056Y-111553995D01*
X122799570Y-111483791D01*
X123715761Y-111483791D01*
X125602340Y-113370371D01*
G36*
X146583800Y-89971249D02*
G01*
X146185799Y-89573249D01*
X146202400Y-89489789D01*
X146202400Y-89224611D01*
X146150667Y-88964528D01*
X146049187Y-88719535D01*
X145901862Y-88499047D01*
X145714353Y-88311538D01*
X145497246Y-88166472D01*
X145567400Y-88166472D01*
X145691882Y-88154212D01*
X145811580Y-88117902D01*
X145921894Y-88058937D01*
X146018585Y-87979585D01*
X146097937Y-87882894D01*
X146156902Y-87772580D01*
X146193212Y-87652882D01*
X146205472Y-87528400D01*
X146205472Y-86106000D01*
X146193212Y-85981518D01*
X146156902Y-85861820D01*
X146097937Y-85751506D01*
X146018585Y-85654815D01*
X145921894Y-85575463D01*
X145811580Y-85516498D01*
X145691882Y-85480188D01*
X145567400Y-85467928D01*
X144145000Y-85467928D01*
X144020518Y-85480188D01*
X143900820Y-85516498D01*
X143790506Y-85575463D01*
X143693815Y-85654815D01*
X143614463Y-85751506D01*
X143601477Y-85775800D01*
X143383344Y-85775800D01*
X143332200Y-85770763D01*
X143281056Y-85775800D01*
X143281048Y-85775800D01*
X143128050Y-85790869D01*
X142931746Y-85850417D01*
X142915758Y-85858963D01*
X142750830Y-85947119D01*
X142631989Y-86044649D01*
X142631985Y-86044653D01*
X142592257Y-86077257D01*
X142559653Y-86116986D01*
X140904786Y-87771853D01*
X140865058Y-87804457D01*
X140832454Y-87844185D01*
X140832450Y-87844189D01*
X140734919Y-87963031D01*
X140638218Y-88143945D01*
X140615245Y-88219677D01*
X140578670Y-88340250D01*
X140566230Y-88466555D01*
X140558563Y-88544400D01*
X140563601Y-88595551D01*
X140563600Y-92329438D01*
X139903200Y-92989838D01*
X139903200Y-91173863D01*
X139907008Y-91135200D01*
X139903200Y-91096537D01*
X139903200Y-91096527D01*
X139891806Y-90980843D01*
X139846782Y-90832417D01*
X139816936Y-90776579D01*
X139773666Y-90695627D01*
X139717509Y-90627201D01*
X139675269Y-90575731D01*
X139645228Y-90551077D01*
X139120652Y-90026501D01*
X139106113Y-89878889D01*
X139021199Y-89598966D01*
X138883306Y-89340986D01*
X138697734Y-89114866D01*
X138471614Y-88929294D01*
X138416809Y-88900000D01*
X138471614Y-88870706D01*
X138697734Y-88685134D01*
X138883306Y-88459014D01*
X139021199Y-88201034D01*
X139106113Y-87921111D01*
X139134785Y-87630000D01*
X139106113Y-87338889D01*
X139021199Y-87058966D01*
X138883306Y-86800986D01*
X138697734Y-86574866D01*
X138471614Y-86389294D01*
X138213634Y-86251401D01*
X137933711Y-86166487D01*
X137715550Y-86145000D01*
X137569650Y-86145000D01*
X137351489Y-86166487D01*
X137071566Y-86251401D01*
X136813586Y-86389294D01*
X136587466Y-86574866D01*
X136401894Y-86800986D01*
X136371016Y-86858756D01*
X136200188Y-86629731D01*
X135983955Y-86434822D01*
X135733852Y-86285843D01*
X135459491Y-86188519D01*
X135229600Y-86309186D01*
X135229600Y-87503000D01*
X135249600Y-87503000D01*
X135249600Y-87757000D01*
X135229600Y-87757000D01*
X135229600Y-90043000D01*
X135249600Y-90043000D01*
X135249600Y-90297000D01*
X135229600Y-90297000D01*
X135229600Y-92583000D01*
X135249600Y-92583000D01*
X135249600Y-92837000D01*
X135229600Y-92837000D01*
X135229600Y-92857000D01*
X134975600Y-92857000D01*
X134975600Y-92837000D01*
X134955600Y-92837000D01*
X134955600Y-92583000D01*
X134975600Y-92583000D01*
X134975600Y-90297000D01*
X134955600Y-90297000D01*
X134955600Y-90043000D01*
X134975600Y-90043000D01*
X134975600Y-87757000D01*
X133782445Y-87757000D01*
X133661124Y-87986890D01*
X133705775Y-88134099D01*
X133830959Y-88396920D01*
X134005012Y-88630269D01*
X134221245Y-88825178D01*
X134346855Y-88900000D01*
X134221245Y-88974822D01*
X134005012Y-89169731D01*
X133830959Y-89403080D01*
X133705775Y-89665901D01*
X133672034Y-89777142D01*
X133669174Y-89748107D01*
X133625602Y-89604470D01*
X133554845Y-89472093D01*
X133459622Y-89356063D01*
X133430553Y-89332207D01*
X132742700Y-88644355D01*
X132795826Y-88516098D01*
X132835600Y-88316139D01*
X132835600Y-88112261D01*
X132795826Y-87912302D01*
X132717805Y-87723944D01*
X132604537Y-87554426D01*
X132460374Y-87410263D01*
X132290856Y-87296995D01*
X132233193Y-87273110D01*
X133661124Y-87273110D01*
X133782445Y-87503000D01*
X134975600Y-87503000D01*
X134975600Y-86309186D01*
X134745709Y-86188519D01*
X134471348Y-86285843D01*
X134221245Y-86434822D01*
X134005012Y-86629731D01*
X133830959Y-86863080D01*
X133705775Y-87125901D01*
X133661124Y-87273110D01*
X132233193Y-87273110D01*
X132102498Y-87218974D01*
X131902539Y-87179200D01*
X131698661Y-87179200D01*
X131498702Y-87218974D01*
X131310344Y-87296995D01*
X131249920Y-87337369D01*
X130965472Y-87052921D01*
X130965472Y-86106000D01*
X130953212Y-85981518D01*
X130916902Y-85861820D01*
X130857937Y-85751506D01*
X130778585Y-85654815D01*
X130681894Y-85575463D01*
X130571580Y-85516498D01*
X130451882Y-85480188D01*
X130327400Y-85467928D01*
X128905000Y-85467928D01*
X128780518Y-85480188D01*
X128660820Y-85516498D01*
X128550506Y-85575463D01*
X128453815Y-85654815D01*
X128374463Y-85751506D01*
X128315498Y-85861820D01*
X128279188Y-85981518D01*
X128266928Y-86106000D01*
X128266928Y-87208974D01*
X128244939Y-87204600D01*
X128041061Y-87204600D01*
X127841102Y-87244374D01*
X127652744Y-87322395D01*
X127483226Y-87435663D01*
X127339063Y-87579826D01*
X127225795Y-87749344D01*
X127147774Y-87937702D01*
X127117432Y-88090245D01*
X127028302Y-88107974D01*
X126839944Y-88185995D01*
X126670426Y-88299263D01*
X126628489Y-88341200D01*
X126427823Y-88341200D01*
X126390400Y-88337514D01*
X126352977Y-88341200D01*
X126352974Y-88341200D01*
X126241022Y-88352226D01*
X126097385Y-88395798D01*
X126071283Y-88409750D01*
X125965007Y-88466555D01*
X125932482Y-88493248D01*
X125848978Y-88561778D01*
X125825121Y-88590848D01*
X123102970Y-91313000D01*
X120141730Y-91313000D01*
X121449081Y-90005650D01*
X121508389Y-90005650D01*
X121708348Y-89965876D01*
X121896706Y-89887855D01*
X122066224Y-89774587D01*
X122210387Y-89630424D01*
X122323655Y-89460906D01*
X122401676Y-89272548D01*
X122441450Y-89072589D01*
X122441450Y-89013280D01*
X123175259Y-88279472D01*
X124073200Y-88279472D01*
X124246454Y-88262408D01*
X124413050Y-88211872D01*
X124566586Y-88129805D01*
X124701162Y-88019362D01*
X124811605Y-87884786D01*
X124893672Y-87731250D01*
X124944208Y-87564654D01*
X124961272Y-87391400D01*
X124961272Y-86141400D01*
X124944208Y-85968146D01*
X124893672Y-85801550D01*
X124811605Y-85648014D01*
X124701162Y-85513438D01*
X124566586Y-85402995D01*
X124413050Y-85320928D01*
X124246454Y-85270392D01*
X124073200Y-85253328D01*
X123148200Y-85253328D01*
X122974946Y-85270392D01*
X122808350Y-85320928D01*
X122654814Y-85402995D01*
X122520238Y-85513438D01*
X122409795Y-85648014D01*
X122327728Y-85801550D01*
X122277192Y-85968146D01*
X122260128Y-86141400D01*
X122260128Y-87039341D01*
X121986272Y-87313197D01*
X121986272Y-86141400D01*
X121969208Y-85968146D01*
X121918672Y-85801550D01*
X121836605Y-85648014D01*
X121726162Y-85513438D01*
X121591586Y-85402995D01*
X121438050Y-85320928D01*
X121271454Y-85270392D01*
X121098200Y-85253328D01*
X120173200Y-85253328D01*
X119999946Y-85270392D01*
X119833350Y-85320928D01*
X119758821Y-85360765D01*
X119683580Y-85329599D01*
X119473960Y-85287903D01*
X119260234Y-85287903D01*
X119050614Y-85329599D01*
X118853157Y-85411388D01*
X118819016Y-85434200D01*
X118672197Y-85434200D01*
X118579942Y-85358488D01*
X118428567Y-85277577D01*
X118264316Y-85227752D01*
X118093500Y-85210928D01*
X117618500Y-85210928D01*
X117447684Y-85227752D01*
X117283433Y-85277577D01*
X117132058Y-85358488D01*
X116999377Y-85467377D01*
X116890488Y-85600058D01*
X116809577Y-85751433D01*
X116759752Y-85915684D01*
X116742928Y-86086500D01*
X116742928Y-86661500D01*
X116759752Y-86832316D01*
X116809577Y-86996567D01*
X116890488Y-87147942D01*
X116910099Y-87171839D01*
X116850463Y-87244506D01*
X116791498Y-87354820D01*
X116755188Y-87474518D01*
X116742928Y-87599000D01*
X116746000Y-87838250D01*
X116904750Y-87997000D01*
X117729000Y-87997000D01*
X117729000Y-87977000D01*
X117983000Y-87977000D01*
X117983000Y-87997000D01*
X118807250Y-87997000D01*
X118966000Y-87838250D01*
X118969072Y-87599000D01*
X118956812Y-87474518D01*
X118923102Y-87363390D01*
X119050614Y-87416207D01*
X119260234Y-87457903D01*
X119291678Y-87457903D01*
X119302192Y-87564654D01*
X119352728Y-87731250D01*
X119434795Y-87884786D01*
X119545238Y-88019362D01*
X119679814Y-88129805D01*
X119833350Y-88211872D01*
X119999946Y-88262408D01*
X120173200Y-88279472D01*
X120633917Y-88279472D01*
X120602513Y-88310876D01*
X120489245Y-88480394D01*
X120411224Y-88668752D01*
X120371450Y-88868711D01*
X120371450Y-88928019D01*
X119129470Y-90170000D01*
X119091111Y-90170000D01*
X119049174Y-90128063D01*
X118879656Y-90014795D01*
X118691298Y-89936774D01*
X118491339Y-89897000D01*
X118287461Y-89897000D01*
X118087502Y-89936774D01*
X117899144Y-90014795D01*
X117729626Y-90128063D01*
X117585463Y-90272226D01*
X117472195Y-90441744D01*
X117394174Y-90630102D01*
X117354400Y-90830061D01*
X117354400Y-91033939D01*
X117394174Y-91233898D01*
X117472195Y-91422256D01*
X117585463Y-91591774D01*
X117729626Y-91735937D01*
X117819428Y-91795941D01*
X116371970Y-93243400D01*
X115712911Y-93243400D01*
X115670974Y-93201463D01*
X115501456Y-93088195D01*
X115313098Y-93010174D01*
X115113139Y-92970400D01*
X114909261Y-92970400D01*
X114709302Y-93010174D01*
X114520944Y-93088195D01*
X114351426Y-93201463D01*
X114350800Y-93202089D01*
X114350800Y-91786111D01*
X114392737Y-91744174D01*
X114506005Y-91574656D01*
X114584026Y-91386298D01*
X114623800Y-91186339D01*
X114623800Y-90982461D01*
X114584026Y-90782502D01*
X114506005Y-90594144D01*
X114392737Y-90424626D01*
X114248574Y-90280463D01*
X114079056Y-90167195D01*
X113890698Y-90089174D01*
X113690739Y-90049400D01*
X113486861Y-90049400D01*
X113286902Y-90089174D01*
X113098544Y-90167195D01*
X112929026Y-90280463D01*
X112784863Y-90424626D01*
X112671595Y-90594144D01*
X112593574Y-90782502D01*
X112553800Y-90982461D01*
X112553800Y-91186339D01*
X112593574Y-91386298D01*
X112671595Y-91574656D01*
X112772586Y-91725800D01*
X112597861Y-91725800D01*
X112397902Y-91765574D01*
X112209544Y-91843595D01*
X112040026Y-91956863D01*
X111895863Y-92101026D01*
X111782595Y-92270544D01*
X111704574Y-92458902D01*
X111664800Y-92658861D01*
X111664800Y-92718169D01*
X110282454Y-94100516D01*
X110253378Y-94124378D01*
X110228430Y-94154778D01*
X110158155Y-94240408D01*
X110134427Y-94284801D01*
X110087398Y-94372786D01*
X110043826Y-94516423D01*
X110034056Y-94615626D01*
X110029114Y-94665800D01*
X110032800Y-94703223D01*
X110032801Y-109690567D01*
X110029114Y-109728000D01*
X110043827Y-109877378D01*
X110087399Y-110021015D01*
X110158155Y-110153392D01*
X110220698Y-110229600D01*
X110253379Y-110269422D01*
X110282449Y-110293279D01*
X111931316Y-111942146D01*
X111955178Y-111971222D01*
X112028819Y-112031657D01*
X112071207Y-112066445D01*
X112105194Y-112084611D01*
X112203585Y-112137202D01*
X112347222Y-112180774D01*
X112459174Y-112191800D01*
X112459177Y-112191800D01*
X112496600Y-112195486D01*
X112534023Y-112191800D01*
X119520377Y-112191800D01*
X119557800Y-112195486D01*
X119595223Y-112191800D01*
X119595226Y-112191800D01*
X119707178Y-112180774D01*
X119850815Y-112137202D01*
X119983192Y-112066445D01*
X120099222Y-111971222D01*
X120123084Y-111942146D01*
X121061180Y-111004050D01*
X121090663Y-111048174D01*
X121234826Y-111192337D01*
X121404344Y-111305605D01*
X121592702Y-111383626D01*
X121792661Y-111423400D01*
X121924138Y-111423400D01*
X121934976Y-111429193D01*
X122078613Y-111472765D01*
X122164280Y-111481202D01*
X121988544Y-111553995D01*
X121819026Y-111667263D01*
X121777089Y-111709200D01*
X121398622Y-111709200D01*
X121361199Y-111705514D01*
X121323776Y-111709200D01*
X121323774Y-111709200D01*
X121211822Y-111720226D01*
X121068185Y-111763798D01*
X120935808Y-111834555D01*
X120819778Y-111929778D01*
X120795921Y-111958848D01*
X119485642Y-113269128D01*
X118250600Y-113269128D01*
X118126118Y-113281388D01*
X118006420Y-113317698D01*
X117896106Y-113376663D01*
X117799415Y-113456015D01*
X117720063Y-113552706D01*
X117661098Y-113663020D01*
X117640207Y-113731887D01*
X117615734Y-113702066D01*
X117389614Y-113516494D01*
X117131634Y-113378601D01*
X116851711Y-113293687D01*
X116633550Y-113272200D01*
X116487650Y-113272200D01*
X116291792Y-113291490D01*
X116285827Y-113261501D01*
X116207806Y-113073143D01*
X116094538Y-112903625D01*
X115950375Y-112759462D01*
X115780857Y-112646194D01*
X115592499Y-112568173D01*
X115392540Y-112528399D01*
X115188662Y-112528399D01*
X114988703Y-112568173D01*
X114800345Y-112646194D01*
X114630827Y-112759462D01*
X114486664Y-112903625D01*
X114373396Y-113073143D01*
X114295375Y-113261501D01*
X114289410Y-113291491D01*
X114093550Y-113272200D01*
X113947650Y-113272200D01*
X113729489Y-113293687D01*
X113449566Y-113378601D01*
X113191586Y-113516494D01*
X112965466Y-113702066D01*
X112779894Y-113928186D01*
X112750600Y-113982991D01*
X112721306Y-113928186D01*
X112535734Y-113702066D01*
X112309614Y-113516494D01*
X112051634Y-113378601D01*
X111771711Y-113293687D01*
X111553550Y-113272200D01*
X111407650Y-113272200D01*
X111189489Y-113293687D01*
X110909566Y-113378601D01*
X110651586Y-113516494D01*
X110425466Y-113702066D01*
X110239894Y-113928186D01*
X110102001Y-114186166D01*
X110017087Y-114466089D01*
X109988415Y-114757200D01*
X110017087Y-115048311D01*
X110102001Y-115328234D01*
X110239894Y-115586214D01*
X110425466Y-115812334D01*
X110651586Y-115997906D01*
X110849700Y-116103800D01*
X108914800Y-116103800D01*
X108914800Y-88649000D01*
X116742928Y-88649000D01*
X116755188Y-88773482D01*
X116791498Y-88893180D01*
X116850463Y-89003494D01*
X116929815Y-89100185D01*
X117026506Y-89179537D01*
X117136820Y-89238502D01*
X117256518Y-89274812D01*
X117381000Y-89287072D01*
X117570250Y-89284000D01*
X117729000Y-89125250D01*
X117729000Y-88251000D01*
X117983000Y-88251000D01*
X117983000Y-89125250D01*
X118141750Y-89284000D01*
X118331000Y-89287072D01*
X118455482Y-89274812D01*
X118575180Y-89238502D01*
X118685494Y-89179537D01*
X118782185Y-89100185D01*
X118861537Y-89003494D01*
X118920502Y-88893180D01*
X118956812Y-88773482D01*
X118969072Y-88649000D01*
X118966000Y-88409750D01*
X118807250Y-88251000D01*
X117983000Y-88251000D01*
X117729000Y-88251000D01*
X116904750Y-88251000D01*
X116746000Y-88409750D01*
X116742928Y-88649000D01*
X108914800Y-88649000D01*
X108914800Y-85191200D01*
X146583800Y-85191200D01*
X146583800Y-89971249D01*
X146583800Y-89971249D01*
G37*
X146583800Y-89971249D02*
X146185799Y-89573249D01*
X146202400Y-89489789D01*
X146202400Y-89224611D01*
X146150667Y-88964528D01*
X146049187Y-88719535D01*
X145901862Y-88499047D01*
X145714353Y-88311538D01*
X145497246Y-88166472D01*
X145567400Y-88166472D01*
X145691882Y-88154212D01*
X145811580Y-88117902D01*
X145921894Y-88058937D01*
X146018585Y-87979585D01*
X146097937Y-87882894D01*
X146156902Y-87772580D01*
X146193212Y-87652882D01*
X146205472Y-87528400D01*
X146205472Y-86106000D01*
X146193212Y-85981518D01*
X146156902Y-85861820D01*
X146097937Y-85751506D01*
X146018585Y-85654815D01*
X145921894Y-85575463D01*
X145811580Y-85516498D01*
X145691882Y-85480188D01*
X145567400Y-85467928D01*
X144145000Y-85467928D01*
X144020518Y-85480188D01*
X143900820Y-85516498D01*
X143790506Y-85575463D01*
X143693815Y-85654815D01*
X143614463Y-85751506D01*
X143601477Y-85775800D01*
X143383344Y-85775800D01*
X143332200Y-85770763D01*
X143281056Y-85775800D01*
X143281048Y-85775800D01*
X143128050Y-85790869D01*
X142931746Y-85850417D01*
X142915758Y-85858963D01*
X142750830Y-85947119D01*
X142631989Y-86044649D01*
X142631985Y-86044653D01*
X142592257Y-86077257D01*
X142559653Y-86116986D01*
X140904786Y-87771853D01*
X140865058Y-87804457D01*
X140832454Y-87844185D01*
X140832450Y-87844189D01*
X140734919Y-87963031D01*
X140638218Y-88143945D01*
X140615245Y-88219677D01*
X140578670Y-88340250D01*
X140566230Y-88466555D01*
X140558563Y-88544400D01*
X140563601Y-88595551D01*
X140563600Y-92329438D01*
X139903200Y-92989838D01*
X139903200Y-91173863D01*
X139907008Y-91135200D01*
X139903200Y-91096537D01*
X139903200Y-91096527D01*
X139891806Y-90980843D01*
X139846782Y-90832417D01*
X139816936Y-90776579D01*
X139773666Y-90695627D01*
X139717509Y-90627201D01*
X139675269Y-90575731D01*
X139645228Y-90551077D01*
X139120652Y-90026501D01*
X139106113Y-89878889D01*
X139021199Y-89598966D01*
X138883306Y-89340986D01*
X138697734Y-89114866D01*
X138471614Y-88929294D01*
X138416809Y-88900000D01*
X138471614Y-88870706D01*
X138697734Y-88685134D01*
X138883306Y-88459014D01*
X139021199Y-88201034D01*
X139106113Y-87921111D01*
X139134785Y-87630000D01*
X139106113Y-87338889D01*
X139021199Y-87058966D01*
X138883306Y-86800986D01*
X138697734Y-86574866D01*
X138471614Y-86389294D01*
X138213634Y-86251401D01*
X137933711Y-86166487D01*
X137715550Y-86145000D01*
X137569650Y-86145000D01*
X137351489Y-86166487D01*
X137071566Y-86251401D01*
X136813586Y-86389294D01*
X136587466Y-86574866D01*
X136401894Y-86800986D01*
X136371016Y-86858756D01*
X136200188Y-86629731D01*
X135983955Y-86434822D01*
X135733852Y-86285843D01*
X135459491Y-86188519D01*
X135229600Y-86309186D01*
X135229600Y-87503000D01*
X135249600Y-87503000D01*
X135249600Y-87757000D01*
X135229600Y-87757000D01*
X135229600Y-90043000D01*
X135249600Y-90043000D01*
X135249600Y-90297000D01*
X135229600Y-90297000D01*
X135229600Y-92583000D01*
X135249600Y-92583000D01*
X135249600Y-92837000D01*
X135229600Y-92837000D01*
X135229600Y-92857000D01*
X134975600Y-92857000D01*
X134975600Y-92837000D01*
X134955600Y-92837000D01*
X134955600Y-92583000D01*
X134975600Y-92583000D01*
X134975600Y-90297000D01*
X134955600Y-90297000D01*
X134955600Y-90043000D01*
X134975600Y-90043000D01*
X134975600Y-87757000D01*
X133782445Y-87757000D01*
X133661124Y-87986890D01*
X133705775Y-88134099D01*
X133830959Y-88396920D01*
X134005012Y-88630269D01*
X134221245Y-88825178D01*
X134346855Y-88900000D01*
X134221245Y-88974822D01*
X134005012Y-89169731D01*
X133830959Y-89403080D01*
X133705775Y-89665901D01*
X133672034Y-89777142D01*
X133669174Y-89748107D01*
X133625602Y-89604470D01*
X133554845Y-89472093D01*
X133459622Y-89356063D01*
X133430553Y-89332207D01*
X132742700Y-88644355D01*
X132795826Y-88516098D01*
X132835600Y-88316139D01*
X132835600Y-88112261D01*
X132795826Y-87912302D01*
X132717805Y-87723944D01*
X132604537Y-87554426D01*
X132460374Y-87410263D01*
X132290856Y-87296995D01*
X132233193Y-87273110D01*
X133661124Y-87273110D01*
X133782445Y-87503000D01*
X134975600Y-87503000D01*
X134975600Y-86309186D01*
X134745709Y-86188519D01*
X134471348Y-86285843D01*
X134221245Y-86434822D01*
X134005012Y-86629731D01*
X133830959Y-86863080D01*
X133705775Y-87125901D01*
X133661124Y-87273110D01*
X132233193Y-87273110D01*
X132102498Y-87218974D01*
X131902539Y-87179200D01*
X131698661Y-87179200D01*
X131498702Y-87218974D01*
X131310344Y-87296995D01*
X131249920Y-87337369D01*
X130965472Y-87052921D01*
X130965472Y-86106000D01*
X130953212Y-85981518D01*
X130916902Y-85861820D01*
X130857937Y-85751506D01*
X130778585Y-85654815D01*
X130681894Y-85575463D01*
X130571580Y-85516498D01*
X130451882Y-85480188D01*
X130327400Y-85467928D01*
X128905000Y-85467928D01*
X128780518Y-85480188D01*
X128660820Y-85516498D01*
X128550506Y-85575463D01*
X128453815Y-85654815D01*
X128374463Y-85751506D01*
X128315498Y-85861820D01*
X128279188Y-85981518D01*
X128266928Y-86106000D01*
X128266928Y-87208974D01*
X128244939Y-87204600D01*
X128041061Y-87204600D01*
X127841102Y-87244374D01*
X127652744Y-87322395D01*
X127483226Y-87435663D01*
X127339063Y-87579826D01*
X127225795Y-87749344D01*
X127147774Y-87937702D01*
X127117432Y-88090245D01*
X127028302Y-88107974D01*
X126839944Y-88185995D01*
X126670426Y-88299263D01*
X126628489Y-88341200D01*
X126427823Y-88341200D01*
X126390400Y-88337514D01*
X126352977Y-88341200D01*
X126352974Y-88341200D01*
X126241022Y-88352226D01*
X126097385Y-88395798D01*
X126071283Y-88409750D01*
X125965007Y-88466555D01*
X125932482Y-88493248D01*
X125848978Y-88561778D01*
X125825121Y-88590848D01*
X123102970Y-91313000D01*
X120141730Y-91313000D01*
X121449081Y-90005650D01*
X121508389Y-90005650D01*
X121708348Y-89965876D01*
X121896706Y-89887855D01*
X122066224Y-89774587D01*
X122210387Y-89630424D01*
X122323655Y-89460906D01*
X122401676Y-89272548D01*
X122441450Y-89072589D01*
X122441450Y-89013280D01*
X123175259Y-88279472D01*
X124073200Y-88279472D01*
X124246454Y-88262408D01*
X124413050Y-88211872D01*
X124566586Y-88129805D01*
X124701162Y-88019362D01*
X124811605Y-87884786D01*
X124893672Y-87731250D01*
X124944208Y-87564654D01*
X124961272Y-87391400D01*
X124961272Y-86141400D01*
X124944208Y-85968146D01*
X124893672Y-85801550D01*
X124811605Y-85648014D01*
X124701162Y-85513438D01*
X124566586Y-85402995D01*
X124413050Y-85320928D01*
X124246454Y-85270392D01*
X124073200Y-85253328D01*
X123148200Y-85253328D01*
X122974946Y-85270392D01*
X122808350Y-85320928D01*
X122654814Y-85402995D01*
X122520238Y-85513438D01*
X122409795Y-85648014D01*
X122327728Y-85801550D01*
X122277192Y-85968146D01*
X122260128Y-86141400D01*
X122260128Y-87039341D01*
X121986272Y-87313197D01*
X121986272Y-86141400D01*
X121969208Y-85968146D01*
X121918672Y-85801550D01*
X121836605Y-85648014D01*
X121726162Y-85513438D01*
X121591586Y-85402995D01*
X121438050Y-85320928D01*
X121271454Y-85270392D01*
X121098200Y-85253328D01*
X120173200Y-85253328D01*
X119999946Y-85270392D01*
X119833350Y-85320928D01*
X119758821Y-85360765D01*
X119683580Y-85329599D01*
X119473960Y-85287903D01*
X119260234Y-85287903D01*
X119050614Y-85329599D01*
X118853157Y-85411388D01*
X118819016Y-85434200D01*
X118672197Y-85434200D01*
X118579942Y-85358488D01*
X118428567Y-85277577D01*
X118264316Y-85227752D01*
X118093500Y-85210928D01*
X117618500Y-85210928D01*
X117447684Y-85227752D01*
X117283433Y-85277577D01*
X117132058Y-85358488D01*
X116999377Y-85467377D01*
X116890488Y-85600058D01*
X116809577Y-85751433D01*
X116759752Y-85915684D01*
X116742928Y-86086500D01*
X116742928Y-86661500D01*
X116759752Y-86832316D01*
X116809577Y-86996567D01*
X116890488Y-87147942D01*
X116910099Y-87171839D01*
X116850463Y-87244506D01*
X116791498Y-87354820D01*
X116755188Y-87474518D01*
X116742928Y-87599000D01*
X116746000Y-87838250D01*
X116904750Y-87997000D01*
X117729000Y-87997000D01*
X117729000Y-87977000D01*
X117983000Y-87977000D01*
X117983000Y-87997000D01*
X118807250Y-87997000D01*
X118966000Y-87838250D01*
X118969072Y-87599000D01*
X118956812Y-87474518D01*
X118923102Y-87363390D01*
X119050614Y-87416207D01*
X119260234Y-87457903D01*
X119291678Y-87457903D01*
X119302192Y-87564654D01*
X119352728Y-87731250D01*
X119434795Y-87884786D01*
X119545238Y-88019362D01*
X119679814Y-88129805D01*
X119833350Y-88211872D01*
X119999946Y-88262408D01*
X120173200Y-88279472D01*
X120633917Y-88279472D01*
X120602513Y-88310876D01*
X120489245Y-88480394D01*
X120411224Y-88668752D01*
X120371450Y-88868711D01*
X120371450Y-88928019D01*
X119129470Y-90170000D01*
X119091111Y-90170000D01*
X119049174Y-90128063D01*
X118879656Y-90014795D01*
X118691298Y-89936774D01*
X118491339Y-89897000D01*
X118287461Y-89897000D01*
X118087502Y-89936774D01*
X117899144Y-90014795D01*
X117729626Y-90128063D01*
X117585463Y-90272226D01*
X117472195Y-90441744D01*
X117394174Y-90630102D01*
X117354400Y-90830061D01*
X117354400Y-91033939D01*
X117394174Y-91233898D01*
X117472195Y-91422256D01*
X117585463Y-91591774D01*
X117729626Y-91735937D01*
X117819428Y-91795941D01*
X116371970Y-93243400D01*
X115712911Y-93243400D01*
X115670974Y-93201463D01*
X115501456Y-93088195D01*
X115313098Y-93010174D01*
X115113139Y-92970400D01*
X114909261Y-92970400D01*
X114709302Y-93010174D01*
X114520944Y-93088195D01*
X114351426Y-93201463D01*
X114350800Y-93202089D01*
X114350800Y-91786111D01*
X114392737Y-91744174D01*
X114506005Y-91574656D01*
X114584026Y-91386298D01*
X114623800Y-91186339D01*
X114623800Y-90982461D01*
X114584026Y-90782502D01*
X114506005Y-90594144D01*
X114392737Y-90424626D01*
X114248574Y-90280463D01*
X114079056Y-90167195D01*
X113890698Y-90089174D01*
X113690739Y-90049400D01*
X113486861Y-90049400D01*
X113286902Y-90089174D01*
X113098544Y-90167195D01*
X112929026Y-90280463D01*
X112784863Y-90424626D01*
X112671595Y-90594144D01*
X112593574Y-90782502D01*
X112553800Y-90982461D01*
X112553800Y-91186339D01*
X112593574Y-91386298D01*
X112671595Y-91574656D01*
X112772586Y-91725800D01*
X112597861Y-91725800D01*
X112397902Y-91765574D01*
X112209544Y-91843595D01*
X112040026Y-91956863D01*
X111895863Y-92101026D01*
X111782595Y-92270544D01*
X111704574Y-92458902D01*
X111664800Y-92658861D01*
X111664800Y-92718169D01*
X110282454Y-94100516D01*
X110253378Y-94124378D01*
X110228430Y-94154778D01*
X110158155Y-94240408D01*
X110134427Y-94284801D01*
X110087398Y-94372786D01*
X110043826Y-94516423D01*
X110034056Y-94615626D01*
X110029114Y-94665800D01*
X110032800Y-94703223D01*
X110032801Y-109690567D01*
X110029114Y-109728000D01*
X110043827Y-109877378D01*
X110087399Y-110021015D01*
X110158155Y-110153392D01*
X110220698Y-110229600D01*
X110253379Y-110269422D01*
X110282449Y-110293279D01*
X111931316Y-111942146D01*
X111955178Y-111971222D01*
X112028819Y-112031657D01*
X112071207Y-112066445D01*
X112105194Y-112084611D01*
X112203585Y-112137202D01*
X112347222Y-112180774D01*
X112459174Y-112191800D01*
X112459177Y-112191800D01*
X112496600Y-112195486D01*
X112534023Y-112191800D01*
X119520377Y-112191800D01*
X119557800Y-112195486D01*
X119595223Y-112191800D01*
X119595226Y-112191800D01*
X119707178Y-112180774D01*
X119850815Y-112137202D01*
X119983192Y-112066445D01*
X120099222Y-111971222D01*
X120123084Y-111942146D01*
X121061180Y-111004050D01*
X121090663Y-111048174D01*
X121234826Y-111192337D01*
X121404344Y-111305605D01*
X121592702Y-111383626D01*
X121792661Y-111423400D01*
X121924138Y-111423400D01*
X121934976Y-111429193D01*
X122078613Y-111472765D01*
X122164280Y-111481202D01*
X121988544Y-111553995D01*
X121819026Y-111667263D01*
X121777089Y-111709200D01*
X121398622Y-111709200D01*
X121361199Y-111705514D01*
X121323776Y-111709200D01*
X121323774Y-111709200D01*
X121211822Y-111720226D01*
X121068185Y-111763798D01*
X120935808Y-111834555D01*
X120819778Y-111929778D01*
X120795921Y-111958848D01*
X119485642Y-113269128D01*
X118250600Y-113269128D01*
X118126118Y-113281388D01*
X118006420Y-113317698D01*
X117896106Y-113376663D01*
X117799415Y-113456015D01*
X117720063Y-113552706D01*
X117661098Y-113663020D01*
X117640207Y-113731887D01*
X117615734Y-113702066D01*
X117389614Y-113516494D01*
X117131634Y-113378601D01*
X116851711Y-113293687D01*
X116633550Y-113272200D01*
X116487650Y-113272200D01*
X116291792Y-113291490D01*
X116285827Y-113261501D01*
X116207806Y-113073143D01*
X116094538Y-112903625D01*
X115950375Y-112759462D01*
X115780857Y-112646194D01*
X115592499Y-112568173D01*
X115392540Y-112528399D01*
X115188662Y-112528399D01*
X114988703Y-112568173D01*
X114800345Y-112646194D01*
X114630827Y-112759462D01*
X114486664Y-112903625D01*
X114373396Y-113073143D01*
X114295375Y-113261501D01*
X114289410Y-113291491D01*
X114093550Y-113272200D01*
X113947650Y-113272200D01*
X113729489Y-113293687D01*
X113449566Y-113378601D01*
X113191586Y-113516494D01*
X112965466Y-113702066D01*
X112779894Y-113928186D01*
X112750600Y-113982991D01*
X112721306Y-113928186D01*
X112535734Y-113702066D01*
X112309614Y-113516494D01*
X112051634Y-113378601D01*
X111771711Y-113293687D01*
X111553550Y-113272200D01*
X111407650Y-113272200D01*
X111189489Y-113293687D01*
X110909566Y-113378601D01*
X110651586Y-113516494D01*
X110425466Y-113702066D01*
X110239894Y-113928186D01*
X110102001Y-114186166D01*
X110017087Y-114466089D01*
X109988415Y-114757200D01*
X110017087Y-115048311D01*
X110102001Y-115328234D01*
X110239894Y-115586214D01*
X110425466Y-115812334D01*
X110651586Y-115997906D01*
X110849700Y-116103800D01*
X108914800Y-116103800D01*
X108914800Y-88649000D01*
X116742928Y-88649000D01*
X116755188Y-88773482D01*
X116791498Y-88893180D01*
X116850463Y-89003494D01*
X116929815Y-89100185D01*
X117026506Y-89179537D01*
X117136820Y-89238502D01*
X117256518Y-89274812D01*
X117381000Y-89287072D01*
X117570250Y-89284000D01*
X117729000Y-89125250D01*
X117729000Y-88251000D01*
X117983000Y-88251000D01*
X117983000Y-89125250D01*
X118141750Y-89284000D01*
X118331000Y-89287072D01*
X118455482Y-89274812D01*
X118575180Y-89238502D01*
X118685494Y-89179537D01*
X118782185Y-89100185D01*
X118861537Y-89003494D01*
X118920502Y-88893180D01*
X118956812Y-88773482D01*
X118969072Y-88649000D01*
X118966000Y-88409750D01*
X118807250Y-88251000D01*
X117983000Y-88251000D01*
X117729000Y-88251000D01*
X116904750Y-88251000D01*
X116746000Y-88409750D01*
X116742928Y-88649000D01*
X108914800Y-88649000D01*
X108914800Y-85191200D01*
X146583800Y-85191200D01*
X146583800Y-89971249D01*
G36*
X134773213Y-101424865D02*
G01*
X134920538Y-101645353D01*
X135108047Y-101832862D01*
X135328535Y-101980187D01*
X135573528Y-102081667D01*
X135833611Y-102133400D01*
X136098789Y-102133400D01*
X136358872Y-102081667D01*
X136603865Y-101980187D01*
X136824353Y-101832862D01*
X137011862Y-101645353D01*
X137156928Y-101428246D01*
X137156928Y-101498400D01*
X137169188Y-101622882D01*
X137205498Y-101742580D01*
X137264463Y-101852894D01*
X137343815Y-101949585D01*
X137440506Y-102028937D01*
X137550820Y-102087902D01*
X137670518Y-102124212D01*
X137795000Y-102136472D01*
X139146425Y-102136472D01*
X139134682Y-102150781D01*
X139118335Y-102170700D01*
X139045218Y-102307490D01*
X139000195Y-102455915D01*
X138984992Y-102610272D01*
X138988801Y-102648945D01*
X138988800Y-104558537D01*
X138984992Y-104597200D01*
X138988800Y-104635863D01*
X138988800Y-104635872D01*
X139000194Y-104751556D01*
X139045218Y-104899982D01*
X139118334Y-105036771D01*
X139216731Y-105156669D01*
X139246777Y-105181327D01*
X139716601Y-105651152D01*
X139700000Y-105734611D01*
X139700000Y-105999789D01*
X139751733Y-106259872D01*
X139853213Y-106504865D01*
X139862210Y-106518331D01*
X139851731Y-106526931D01*
X139827081Y-106556967D01*
X139246772Y-107137278D01*
X139216732Y-107161931D01*
X139173825Y-107214213D01*
X139118335Y-107281828D01*
X139045218Y-107418618D01*
X139000195Y-107567043D01*
X138984992Y-107721400D01*
X138988801Y-107760073D01*
X138988801Y-109689983D01*
X138898872Y-109652733D01*
X138638789Y-109601000D01*
X138373611Y-109601000D01*
X138113528Y-109652733D01*
X137868535Y-109754213D01*
X137648047Y-109901538D01*
X137460538Y-110089047D01*
X137313213Y-110309535D01*
X137236200Y-110495460D01*
X137159187Y-110309535D01*
X137011862Y-110089047D01*
X136824353Y-109901538D01*
X136603865Y-109754213D01*
X136358872Y-109652733D01*
X136098789Y-109601000D01*
X135833611Y-109601000D01*
X135573528Y-109652733D01*
X135328535Y-109754213D01*
X135322649Y-109758146D01*
X135280322Y-109706570D01*
X135280319Y-109706567D01*
X135255669Y-109676531D01*
X135225632Y-109651881D01*
X134721527Y-109147777D01*
X134696869Y-109117731D01*
X134615254Y-109050751D01*
X134619187Y-109044865D01*
X134720667Y-108799872D01*
X134772400Y-108539789D01*
X134772400Y-108274611D01*
X134720667Y-108014528D01*
X134619187Y-107769535D01*
X134471862Y-107549047D01*
X134284353Y-107361538D01*
X134063865Y-107214213D01*
X133877940Y-107137200D01*
X134063865Y-107060187D01*
X134284353Y-106912862D01*
X134471862Y-106725353D01*
X134619187Y-106504865D01*
X134720667Y-106259872D01*
X134772400Y-105999789D01*
X134772400Y-105734611D01*
X134720667Y-105474528D01*
X134619187Y-105229535D01*
X134471862Y-105009047D01*
X134284353Y-104821538D01*
X134063865Y-104674213D01*
X133877940Y-104597200D01*
X134063865Y-104520187D01*
X134284353Y-104372862D01*
X134471862Y-104185353D01*
X134619187Y-103964865D01*
X134720667Y-103719872D01*
X134772400Y-103459789D01*
X134772400Y-103194611D01*
X134720667Y-102934528D01*
X134619187Y-102689535D01*
X134471862Y-102469047D01*
X134284353Y-102281538D01*
X134063865Y-102134213D01*
X133877940Y-102057200D01*
X134063865Y-101980187D01*
X134284353Y-101832862D01*
X134471862Y-101645353D01*
X134619187Y-101424865D01*
X134696200Y-101238940D01*
X134773213Y-101424865D01*
X134773213Y-101424865D01*
G37*
X134773213Y-101424865D02*
X134920538Y-101645353D01*
X135108047Y-101832862D01*
X135328535Y-101980187D01*
X135573528Y-102081667D01*
X135833611Y-102133400D01*
X136098789Y-102133400D01*
X136358872Y-102081667D01*
X136603865Y-101980187D01*
X136824353Y-101832862D01*
X137011862Y-101645353D01*
X137156928Y-101428246D01*
X137156928Y-101498400D01*
X137169188Y-101622882D01*
X137205498Y-101742580D01*
X137264463Y-101852894D01*
X137343815Y-101949585D01*
X137440506Y-102028937D01*
X137550820Y-102087902D01*
X137670518Y-102124212D01*
X137795000Y-102136472D01*
X139146425Y-102136472D01*
X139134682Y-102150781D01*
X139118335Y-102170700D01*
X139045218Y-102307490D01*
X139000195Y-102455915D01*
X138984992Y-102610272D01*
X138988801Y-102648945D01*
X138988800Y-104558537D01*
X138984992Y-104597200D01*
X138988800Y-104635863D01*
X138988800Y-104635872D01*
X139000194Y-104751556D01*
X139045218Y-104899982D01*
X139118334Y-105036771D01*
X139216731Y-105156669D01*
X139246777Y-105181327D01*
X139716601Y-105651152D01*
X139700000Y-105734611D01*
X139700000Y-105999789D01*
X139751733Y-106259872D01*
X139853213Y-106504865D01*
X139862210Y-106518331D01*
X139851731Y-106526931D01*
X139827081Y-106556967D01*
X139246772Y-107137278D01*
X139216732Y-107161931D01*
X139173825Y-107214213D01*
X139118335Y-107281828D01*
X139045218Y-107418618D01*
X139000195Y-107567043D01*
X138984992Y-107721400D01*
X138988801Y-107760073D01*
X138988801Y-109689983D01*
X138898872Y-109652733D01*
X138638789Y-109601000D01*
X138373611Y-109601000D01*
X138113528Y-109652733D01*
X137868535Y-109754213D01*
X137648047Y-109901538D01*
X137460538Y-110089047D01*
X137313213Y-110309535D01*
X137236200Y-110495460D01*
X137159187Y-110309535D01*
X137011862Y-110089047D01*
X136824353Y-109901538D01*
X136603865Y-109754213D01*
X136358872Y-109652733D01*
X136098789Y-109601000D01*
X135833611Y-109601000D01*
X135573528Y-109652733D01*
X135328535Y-109754213D01*
X135322649Y-109758146D01*
X135280322Y-109706570D01*
X135280319Y-109706567D01*
X135255669Y-109676531D01*
X135225632Y-109651881D01*
X134721527Y-109147777D01*
X134696869Y-109117731D01*
X134615254Y-109050751D01*
X134619187Y-109044865D01*
X134720667Y-108799872D01*
X134772400Y-108539789D01*
X134772400Y-108274611D01*
X134720667Y-108014528D01*
X134619187Y-107769535D01*
X134471862Y-107549047D01*
X134284353Y-107361538D01*
X134063865Y-107214213D01*
X133877940Y-107137200D01*
X134063865Y-107060187D01*
X134284353Y-106912862D01*
X134471862Y-106725353D01*
X134619187Y-106504865D01*
X134720667Y-106259872D01*
X134772400Y-105999789D01*
X134772400Y-105734611D01*
X134720667Y-105474528D01*
X134619187Y-105229535D01*
X134471862Y-105009047D01*
X134284353Y-104821538D01*
X134063865Y-104674213D01*
X133877940Y-104597200D01*
X134063865Y-104520187D01*
X134284353Y-104372862D01*
X134471862Y-104185353D01*
X134619187Y-103964865D01*
X134720667Y-103719872D01*
X134772400Y-103459789D01*
X134772400Y-103194611D01*
X134720667Y-102934528D01*
X134619187Y-102689535D01*
X134471862Y-102469047D01*
X134284353Y-102281538D01*
X134063865Y-102134213D01*
X133877940Y-102057200D01*
X134063865Y-101980187D01*
X134284353Y-101832862D01*
X134471862Y-101645353D01*
X134619187Y-101424865D01*
X134696200Y-101238940D01*
X134773213Y-101424865D01*
G36*
X119075200Y-100779395D02*
G01*
X119006656Y-100733595D01*
X118818298Y-100655574D01*
X118618339Y-100615800D01*
X118414461Y-100615800D01*
X118214502Y-100655574D01*
X118026144Y-100733595D01*
X117856626Y-100846863D01*
X117712463Y-100991026D01*
X117599195Y-101160544D01*
X117521174Y-101348902D01*
X117481400Y-101548861D01*
X117481400Y-101608169D01*
X116581649Y-102507921D01*
X116552579Y-102531778D01*
X116528722Y-102560848D01*
X116528721Y-102560849D01*
X116457355Y-102647808D01*
X116386599Y-102780185D01*
X116343027Y-102923822D01*
X116328314Y-103073200D01*
X116332001Y-103110633D01*
X116332000Y-109055577D01*
X116328314Y-109093000D01*
X116332000Y-109130423D01*
X116332000Y-109130425D01*
X116343026Y-109242377D01*
X116386598Y-109386014D01*
X116412774Y-109434985D01*
X116457355Y-109518392D01*
X116483459Y-109550200D01*
X116009582Y-109550200D01*
X116031826Y-109496498D01*
X116071600Y-109296539D01*
X116071600Y-109092661D01*
X116031826Y-108892702D01*
X115953805Y-108704344D01*
X115840537Y-108534826D01*
X115798600Y-108492889D01*
X115798600Y-104816311D01*
X115840537Y-104774374D01*
X115953805Y-104604856D01*
X116031826Y-104416498D01*
X116071600Y-104216539D01*
X116071600Y-104012661D01*
X116031826Y-103812702D01*
X115953805Y-103624344D01*
X115840537Y-103454826D01*
X115696374Y-103310663D01*
X115526856Y-103197395D01*
X115338498Y-103119374D01*
X115138539Y-103079600D01*
X114934661Y-103079600D01*
X114734702Y-103119374D01*
X114546344Y-103197395D01*
X114376826Y-103310663D01*
X114232663Y-103454826D01*
X114119395Y-103624344D01*
X114041374Y-103812702D01*
X114001600Y-104012661D01*
X114001600Y-104216539D01*
X114041374Y-104416498D01*
X114119395Y-104604856D01*
X114232663Y-104774374D01*
X114274601Y-104816312D01*
X114274601Y-106611304D01*
X113893600Y-106230304D01*
X113893600Y-103520911D01*
X113935537Y-103478974D01*
X114048805Y-103309456D01*
X114126826Y-103121098D01*
X114166600Y-102921139D01*
X114166600Y-102717261D01*
X114126826Y-102517302D01*
X114048805Y-102328944D01*
X113935537Y-102159426D01*
X113791374Y-102015263D01*
X113621856Y-101901995D01*
X113433498Y-101823974D01*
X113233539Y-101784200D01*
X113153810Y-101784200D01*
X113153810Y-100002740D01*
X113215456Y-99977205D01*
X113384974Y-99863937D01*
X113529137Y-99719774D01*
X113642405Y-99550256D01*
X113720426Y-99361898D01*
X113735006Y-99288600D01*
X117488377Y-99288600D01*
X117525800Y-99292286D01*
X117563223Y-99288600D01*
X117563226Y-99288600D01*
X117675178Y-99277574D01*
X117818815Y-99234002D01*
X117951192Y-99163245D01*
X118067222Y-99068022D01*
X118091084Y-99038946D01*
X119075201Y-98054830D01*
X119075200Y-100779395D01*
X119075200Y-100779395D01*
G37*
X119075200Y-100779395D02*
X119006656Y-100733595D01*
X118818298Y-100655574D01*
X118618339Y-100615800D01*
X118414461Y-100615800D01*
X118214502Y-100655574D01*
X118026144Y-100733595D01*
X117856626Y-100846863D01*
X117712463Y-100991026D01*
X117599195Y-101160544D01*
X117521174Y-101348902D01*
X117481400Y-101548861D01*
X117481400Y-101608169D01*
X116581649Y-102507921D01*
X116552579Y-102531778D01*
X116528722Y-102560848D01*
X116528721Y-102560849D01*
X116457355Y-102647808D01*
X116386599Y-102780185D01*
X116343027Y-102923822D01*
X116328314Y-103073200D01*
X116332001Y-103110633D01*
X116332000Y-109055577D01*
X116328314Y-109093000D01*
X116332000Y-109130423D01*
X116332000Y-109130425D01*
X116343026Y-109242377D01*
X116386598Y-109386014D01*
X116412774Y-109434985D01*
X116457355Y-109518392D01*
X116483459Y-109550200D01*
X116009582Y-109550200D01*
X116031826Y-109496498D01*
X116071600Y-109296539D01*
X116071600Y-109092661D01*
X116031826Y-108892702D01*
X115953805Y-108704344D01*
X115840537Y-108534826D01*
X115798600Y-108492889D01*
X115798600Y-104816311D01*
X115840537Y-104774374D01*
X115953805Y-104604856D01*
X116031826Y-104416498D01*
X116071600Y-104216539D01*
X116071600Y-104012661D01*
X116031826Y-103812702D01*
X115953805Y-103624344D01*
X115840537Y-103454826D01*
X115696374Y-103310663D01*
X115526856Y-103197395D01*
X115338498Y-103119374D01*
X115138539Y-103079600D01*
X114934661Y-103079600D01*
X114734702Y-103119374D01*
X114546344Y-103197395D01*
X114376826Y-103310663D01*
X114232663Y-103454826D01*
X114119395Y-103624344D01*
X114041374Y-103812702D01*
X114001600Y-104012661D01*
X114001600Y-104216539D01*
X114041374Y-104416498D01*
X114119395Y-104604856D01*
X114232663Y-104774374D01*
X114274601Y-104816312D01*
X114274601Y-106611304D01*
X113893600Y-106230304D01*
X113893600Y-103520911D01*
X113935537Y-103478974D01*
X114048805Y-103309456D01*
X114126826Y-103121098D01*
X114166600Y-102921139D01*
X114166600Y-102717261D01*
X114126826Y-102517302D01*
X114048805Y-102328944D01*
X113935537Y-102159426D01*
X113791374Y-102015263D01*
X113621856Y-101901995D01*
X113433498Y-101823974D01*
X113233539Y-101784200D01*
X113153810Y-101784200D01*
X113153810Y-100002740D01*
X113215456Y-99977205D01*
X113384974Y-99863937D01*
X113529137Y-99719774D01*
X113642405Y-99550256D01*
X113720426Y-99361898D01*
X113735006Y-99288600D01*
X117488377Y-99288600D01*
X117525800Y-99292286D01*
X117563223Y-99288600D01*
X117563226Y-99288600D01*
X117675178Y-99277574D01*
X117818815Y-99234002D01*
X117951192Y-99163245D01*
X118067222Y-99068022D01*
X118091084Y-99038946D01*
X119075201Y-98054830D01*
X119075200Y-100779395D01*
G36*
X123001263Y-95427907D02*
G01*
X122677654Y-95751516D01*
X122648578Y-95775378D01*
X122612101Y-95819826D01*
X122553355Y-95891408D01*
X122515535Y-95962165D01*
X122482598Y-96023786D01*
X122439026Y-96167423D01*
X122428157Y-96277785D01*
X122424314Y-96316800D01*
X122428000Y-96354223D01*
X122428001Y-102930288D01*
X122386063Y-102972226D01*
X122272795Y-103141744D01*
X122194774Y-103330102D01*
X122155000Y-103530061D01*
X122155000Y-103733939D01*
X122156206Y-103740000D01*
X122021261Y-103740000D01*
X121821302Y-103779774D01*
X121632944Y-103857795D01*
X121463426Y-103971063D01*
X121319263Y-104115226D01*
X121205995Y-104284744D01*
X121127974Y-104473102D01*
X121088200Y-104673061D01*
X121088200Y-104876939D01*
X121127974Y-105076898D01*
X121205995Y-105265256D01*
X121319263Y-105434774D01*
X121463426Y-105578937D01*
X121632944Y-105692205D01*
X121821302Y-105770226D01*
X122021261Y-105810000D01*
X122225139Y-105810000D01*
X122425098Y-105770226D01*
X122613456Y-105692205D01*
X122782974Y-105578937D01*
X122824911Y-105537000D01*
X124779370Y-105537000D01*
X124641807Y-105674563D01*
X124482498Y-105608574D01*
X124282539Y-105568800D01*
X124078661Y-105568800D01*
X123878702Y-105608574D01*
X123690344Y-105686595D01*
X123520826Y-105799863D01*
X123376663Y-105944026D01*
X123263395Y-106113544D01*
X123185374Y-106301902D01*
X123145600Y-106501861D01*
X123145600Y-106705739D01*
X123185374Y-106905698D01*
X123207618Y-106959400D01*
X120509623Y-106959400D01*
X120472200Y-106955714D01*
X120434777Y-106959400D01*
X120434774Y-106959400D01*
X120322822Y-106970426D01*
X120179185Y-107013998D01*
X120134030Y-107038134D01*
X120046807Y-107084755D01*
X119983717Y-107136532D01*
X119930778Y-107179978D01*
X119906920Y-107209049D01*
X119720621Y-107395348D01*
X119765626Y-107286698D01*
X119805400Y-107086739D01*
X119805400Y-106882861D01*
X119765626Y-106682902D01*
X119687605Y-106494544D01*
X119574337Y-106325026D01*
X119430174Y-106180863D01*
X119260656Y-106067595D01*
X119182887Y-106035382D01*
X119336856Y-105971605D01*
X119506374Y-105858337D01*
X119650537Y-105714174D01*
X119763805Y-105544656D01*
X119841826Y-105356298D01*
X119881600Y-105156339D01*
X119881600Y-105097030D01*
X121365552Y-103613079D01*
X121394622Y-103589222D01*
X121443174Y-103530061D01*
X121489845Y-103473193D01*
X121548409Y-103363626D01*
X121560602Y-103340815D01*
X121604174Y-103197178D01*
X121615200Y-103085226D01*
X121615200Y-103085223D01*
X121618886Y-103047800D01*
X121615200Y-103010377D01*
X121615200Y-95680658D01*
X121716461Y-95700800D01*
X121920339Y-95700800D01*
X122120298Y-95661026D01*
X122308656Y-95583005D01*
X122478174Y-95469737D01*
X122520111Y-95427800D01*
X123000177Y-95427800D01*
X123001263Y-95427907D01*
X123001263Y-95427907D01*
G37*
X123001263Y-95427907D02*
X122677654Y-95751516D01*
X122648578Y-95775378D01*
X122612101Y-95819826D01*
X122553355Y-95891408D01*
X122515535Y-95962165D01*
X122482598Y-96023786D01*
X122439026Y-96167423D01*
X122428157Y-96277785D01*
X122424314Y-96316800D01*
X122428000Y-96354223D01*
X122428001Y-102930288D01*
X122386063Y-102972226D01*
X122272795Y-103141744D01*
X122194774Y-103330102D01*
X122155000Y-103530061D01*
X122155000Y-103733939D01*
X122156206Y-103740000D01*
X122021261Y-103740000D01*
X121821302Y-103779774D01*
X121632944Y-103857795D01*
X121463426Y-103971063D01*
X121319263Y-104115226D01*
X121205995Y-104284744D01*
X121127974Y-104473102D01*
X121088200Y-104673061D01*
X121088200Y-104876939D01*
X121127974Y-105076898D01*
X121205995Y-105265256D01*
X121319263Y-105434774D01*
X121463426Y-105578937D01*
X121632944Y-105692205D01*
X121821302Y-105770226D01*
X122021261Y-105810000D01*
X122225139Y-105810000D01*
X122425098Y-105770226D01*
X122613456Y-105692205D01*
X122782974Y-105578937D01*
X122824911Y-105537000D01*
X124779370Y-105537000D01*
X124641807Y-105674563D01*
X124482498Y-105608574D01*
X124282539Y-105568800D01*
X124078661Y-105568800D01*
X123878702Y-105608574D01*
X123690344Y-105686595D01*
X123520826Y-105799863D01*
X123376663Y-105944026D01*
X123263395Y-106113544D01*
X123185374Y-106301902D01*
X123145600Y-106501861D01*
X123145600Y-106705739D01*
X123185374Y-106905698D01*
X123207618Y-106959400D01*
X120509623Y-106959400D01*
X120472200Y-106955714D01*
X120434777Y-106959400D01*
X120434774Y-106959400D01*
X120322822Y-106970426D01*
X120179185Y-107013998D01*
X120134030Y-107038134D01*
X120046807Y-107084755D01*
X119983717Y-107136532D01*
X119930778Y-107179978D01*
X119906920Y-107209049D01*
X119720621Y-107395348D01*
X119765626Y-107286698D01*
X119805400Y-107086739D01*
X119805400Y-106882861D01*
X119765626Y-106682902D01*
X119687605Y-106494544D01*
X119574337Y-106325026D01*
X119430174Y-106180863D01*
X119260656Y-106067595D01*
X119182887Y-106035382D01*
X119336856Y-105971605D01*
X119506374Y-105858337D01*
X119650537Y-105714174D01*
X119763805Y-105544656D01*
X119841826Y-105356298D01*
X119881600Y-105156339D01*
X119881600Y-105097030D01*
X121365552Y-103613079D01*
X121394622Y-103589222D01*
X121443174Y-103530061D01*
X121489845Y-103473193D01*
X121548409Y-103363626D01*
X121560602Y-103340815D01*
X121604174Y-103197178D01*
X121615200Y-103085226D01*
X121615200Y-103085223D01*
X121618886Y-103047800D01*
X121615200Y-103010377D01*
X121615200Y-95680658D01*
X121716461Y-95700800D01*
X121920339Y-95700800D01*
X122120298Y-95661026D01*
X122308656Y-95583005D01*
X122478174Y-95469737D01*
X122520111Y-95427800D01*
X123000177Y-95427800D01*
X123001263Y-95427907D01*
G36*
X128525180Y-103806931D02*
G01*
X128423213Y-103959535D01*
X128395608Y-104026178D01*
X128225684Y-103856254D01*
X128201822Y-103827178D01*
X128085792Y-103731955D01*
X127953415Y-103661198D01*
X127809778Y-103617626D01*
X127697826Y-103606600D01*
X127697823Y-103606600D01*
X127660400Y-103602914D01*
X127622977Y-103606600D01*
X127125193Y-103606600D01*
X127725021Y-103006772D01*
X128525180Y-103806931D01*
X128525180Y-103806931D01*
G37*
X128525180Y-103806931D02*
X128423213Y-103959535D01*
X128395608Y-104026178D01*
X128225684Y-103856254D01*
X128201822Y-103827178D01*
X128085792Y-103731955D01*
X127953415Y-103661198D01*
X127809778Y-103617626D01*
X127697826Y-103606600D01*
X127697823Y-103606600D01*
X127660400Y-103602914D01*
X127622977Y-103606600D01*
X127125193Y-103606600D01*
X127725021Y-103006772D01*
X128525180Y-103806931D01*
G36*
X143693815Y-87979585D02*
G01*
X143790506Y-88058937D01*
X143900820Y-88117902D01*
X144020518Y-88154212D01*
X144145000Y-88166472D01*
X144215154Y-88166472D01*
X143998047Y-88311538D01*
X143810538Y-88499047D01*
X143663213Y-88719535D01*
X143561733Y-88964528D01*
X143510000Y-89224611D01*
X143510000Y-89489789D01*
X143561733Y-89749872D01*
X143663213Y-89994865D01*
X143810538Y-90215353D01*
X143998047Y-90402862D01*
X144218535Y-90550187D01*
X144404460Y-90627200D01*
X144218535Y-90704213D01*
X143998047Y-90851538D01*
X143810538Y-91039047D01*
X143663213Y-91259535D01*
X143561733Y-91504528D01*
X143510000Y-91764611D01*
X143510000Y-92029789D01*
X143561733Y-92289872D01*
X143663213Y-92534865D01*
X143810538Y-92755353D01*
X143998047Y-92942862D01*
X144218535Y-93090187D01*
X144404460Y-93167200D01*
X144218535Y-93244213D01*
X143998047Y-93391538D01*
X143810538Y-93579047D01*
X143663213Y-93799535D01*
X143561733Y-94044528D01*
X143510000Y-94304611D01*
X143510000Y-94569789D01*
X143561733Y-94829872D01*
X143663213Y-95074865D01*
X143810538Y-95295353D01*
X143998047Y-95482862D01*
X144218535Y-95630187D01*
X144404460Y-95707200D01*
X144218535Y-95784213D01*
X143998047Y-95931538D01*
X143810538Y-96119047D01*
X143663213Y-96339535D01*
X143561733Y-96584528D01*
X143510000Y-96844611D01*
X143510000Y-97109789D01*
X143561733Y-97369872D01*
X143663213Y-97614865D01*
X143665117Y-97617715D01*
X143609841Y-97663079D01*
X143609839Y-97663081D01*
X143579803Y-97687731D01*
X143555153Y-97717767D01*
X141786773Y-99486149D01*
X141756732Y-99510803D01*
X141732079Y-99540843D01*
X141686716Y-99596118D01*
X141683865Y-99594213D01*
X141497940Y-99517200D01*
X141683865Y-99440187D01*
X141904353Y-99292862D01*
X142091862Y-99105353D01*
X142239187Y-98884865D01*
X142340667Y-98639872D01*
X142392400Y-98379789D01*
X142392400Y-98114611D01*
X142340667Y-97854528D01*
X142239187Y-97609535D01*
X142091862Y-97389047D01*
X141904353Y-97201538D01*
X141683865Y-97054213D01*
X141626078Y-97030277D01*
X141655937Y-96993894D01*
X141714902Y-96883580D01*
X141751212Y-96763882D01*
X141763472Y-96639400D01*
X141760400Y-96450150D01*
X141601650Y-96291400D01*
X140727400Y-96291400D01*
X140727400Y-96311400D01*
X140473400Y-96311400D01*
X140473400Y-96291400D01*
X140453400Y-96291400D01*
X140453400Y-96037400D01*
X140473400Y-96037400D01*
X140473400Y-96017400D01*
X140727400Y-96017400D01*
X140727400Y-96037400D01*
X141601650Y-96037400D01*
X141760400Y-95878650D01*
X141763472Y-95689400D01*
X141751212Y-95564918D01*
X141714902Y-95445220D01*
X141655937Y-95334906D01*
X141576585Y-95238215D01*
X141479894Y-95158863D01*
X141369580Y-95099898D01*
X141249882Y-95063588D01*
X141125400Y-95051328D01*
X140886150Y-95054400D01*
X140727402Y-95213148D01*
X140727402Y-95111159D01*
X142305215Y-93533347D01*
X142344943Y-93500743D01*
X142377547Y-93461015D01*
X142377551Y-93461011D01*
X142475081Y-93342170D01*
X142498691Y-93297999D01*
X142571783Y-93161254D01*
X142631331Y-92964950D01*
X142646400Y-92811952D01*
X142646400Y-92811942D01*
X142651437Y-92760800D01*
X142646400Y-92709659D01*
X142646400Y-88975761D01*
X143670719Y-87951443D01*
X143693815Y-87979585D01*
X143693815Y-87979585D01*
G37*
X143693815Y-87979585D02*
X143790506Y-88058937D01*
X143900820Y-88117902D01*
X144020518Y-88154212D01*
X144145000Y-88166472D01*
X144215154Y-88166472D01*
X143998047Y-88311538D01*
X143810538Y-88499047D01*
X143663213Y-88719535D01*
X143561733Y-88964528D01*
X143510000Y-89224611D01*
X143510000Y-89489789D01*
X143561733Y-89749872D01*
X143663213Y-89994865D01*
X143810538Y-90215353D01*
X143998047Y-90402862D01*
X144218535Y-90550187D01*
X144404460Y-90627200D01*
X144218535Y-90704213D01*
X143998047Y-90851538D01*
X143810538Y-91039047D01*
X143663213Y-91259535D01*
X143561733Y-91504528D01*
X143510000Y-91764611D01*
X143510000Y-92029789D01*
X143561733Y-92289872D01*
X143663213Y-92534865D01*
X143810538Y-92755353D01*
X143998047Y-92942862D01*
X144218535Y-93090187D01*
X144404460Y-93167200D01*
X144218535Y-93244213D01*
X143998047Y-93391538D01*
X143810538Y-93579047D01*
X143663213Y-93799535D01*
X143561733Y-94044528D01*
X143510000Y-94304611D01*
X143510000Y-94569789D01*
X143561733Y-94829872D01*
X143663213Y-95074865D01*
X143810538Y-95295353D01*
X143998047Y-95482862D01*
X144218535Y-95630187D01*
X144404460Y-95707200D01*
X144218535Y-95784213D01*
X143998047Y-95931538D01*
X143810538Y-96119047D01*
X143663213Y-96339535D01*
X143561733Y-96584528D01*
X143510000Y-96844611D01*
X143510000Y-97109789D01*
X143561733Y-97369872D01*
X143663213Y-97614865D01*
X143665117Y-97617715D01*
X143609841Y-97663079D01*
X143609839Y-97663081D01*
X143579803Y-97687731D01*
X143555153Y-97717767D01*
X141786773Y-99486149D01*
X141756732Y-99510803D01*
X141732079Y-99540843D01*
X141686716Y-99596118D01*
X141683865Y-99594213D01*
X141497940Y-99517200D01*
X141683865Y-99440187D01*
X141904353Y-99292862D01*
X142091862Y-99105353D01*
X142239187Y-98884865D01*
X142340667Y-98639872D01*
X142392400Y-98379789D01*
X142392400Y-98114611D01*
X142340667Y-97854528D01*
X142239187Y-97609535D01*
X142091862Y-97389047D01*
X141904353Y-97201538D01*
X141683865Y-97054213D01*
X141626078Y-97030277D01*
X141655937Y-96993894D01*
X141714902Y-96883580D01*
X141751212Y-96763882D01*
X141763472Y-96639400D01*
X141760400Y-96450150D01*
X141601650Y-96291400D01*
X140727400Y-96291400D01*
X140727400Y-96311400D01*
X140473400Y-96311400D01*
X140473400Y-96291400D01*
X140453400Y-96291400D01*
X140453400Y-96037400D01*
X140473400Y-96037400D01*
X140473400Y-96017400D01*
X140727400Y-96017400D01*
X140727400Y-96037400D01*
X141601650Y-96037400D01*
X141760400Y-95878650D01*
X141763472Y-95689400D01*
X141751212Y-95564918D01*
X141714902Y-95445220D01*
X141655937Y-95334906D01*
X141576585Y-95238215D01*
X141479894Y-95158863D01*
X141369580Y-95099898D01*
X141249882Y-95063588D01*
X141125400Y-95051328D01*
X140886150Y-95054400D01*
X140727402Y-95213148D01*
X140727402Y-95111159D01*
X142305215Y-93533347D01*
X142344943Y-93500743D01*
X142377547Y-93461015D01*
X142377551Y-93461011D01*
X142475081Y-93342170D01*
X142498691Y-93297999D01*
X142571783Y-93161254D01*
X142631331Y-92964950D01*
X142646400Y-92811952D01*
X142646400Y-92811942D01*
X142651437Y-92760800D01*
X142646400Y-92709659D01*
X142646400Y-88975761D01*
X143670719Y-87951443D01*
X143693815Y-87979585D01*
M02*
