%FSLAX45Y45*%
G04 Gerber Fmt 4.5, Leading zero omitted, Abs format (unit mm)*
G04 Created by KiCad (PCBNEW (5.1.0)-1) date 2021-03-04 19:56:53*
%MOMM*%
%LPD*%
G04 APERTURE LIST*
%ADD10C,0.050000*%
%ADD11C,0.200000*%
%ADD12C,0.300000*%
G04 APERTURE END LIST*
D10*
X10825480Y-11676380D02*
X10825480Y-8453120D01*
X14724380Y-11676380D02*
X10825480Y-11676380D01*
X14724380Y-8453120D02*
X14724380Y-11676380D01*
X10825480Y-8453120D02*
X14724380Y-8453120D01*
D11*
D12*
X11109408Y-12144594D02*
X11109408Y-11844594D01*
X11180837Y-11844594D01*
X11223694Y-11858880D01*
X11252266Y-11887451D01*
X11266551Y-11916023D01*
X11280837Y-11973166D01*
X11280837Y-12016023D01*
X11266551Y-12073166D01*
X11252266Y-12101737D01*
X11223694Y-12130309D01*
X11180837Y-12144594D01*
X11109408Y-12144594D01*
X11409408Y-12144594D02*
X11409408Y-11944594D01*
X11409408Y-12001737D02*
X11423694Y-11973166D01*
X11437980Y-11958880D01*
X11466551Y-11944594D01*
X11495123Y-11944594D01*
X11595123Y-12144594D02*
X11595123Y-11944594D01*
X11595123Y-11844594D02*
X11580837Y-11858880D01*
X11595123Y-11873166D01*
X11609408Y-11858880D01*
X11595123Y-11844594D01*
X11595123Y-11873166D01*
X11780837Y-12144594D02*
X11752266Y-12130309D01*
X11737980Y-12101737D01*
X11737980Y-11844594D01*
X11937980Y-12144594D02*
X11909408Y-12130309D01*
X11895123Y-12101737D01*
X11895123Y-11844594D01*
X12280837Y-12144594D02*
X12280837Y-11844594D01*
X12380837Y-12058880D01*
X12480837Y-11844594D01*
X12480837Y-12144594D01*
X12752266Y-12144594D02*
X12752266Y-11987451D01*
X12737980Y-11958880D01*
X12709408Y-11944594D01*
X12652266Y-11944594D01*
X12623694Y-11958880D01*
X12752266Y-12130309D02*
X12723694Y-12144594D01*
X12652266Y-12144594D01*
X12623694Y-12130309D01*
X12609408Y-12101737D01*
X12609408Y-12073166D01*
X12623694Y-12044594D01*
X12652266Y-12030309D01*
X12723694Y-12030309D01*
X12752266Y-12016023D01*
X12895123Y-11944594D02*
X12895123Y-12244594D01*
X12895123Y-11958880D02*
X12923694Y-11944594D01*
X12980837Y-11944594D01*
X13009408Y-11958880D01*
X13023694Y-11973166D01*
X13037980Y-12001737D01*
X13037980Y-12087451D01*
X13023694Y-12116023D01*
X13009408Y-12130309D01*
X12980837Y-12144594D01*
X12923694Y-12144594D01*
X12895123Y-12130309D01*
X13166551Y-12116023D02*
X13180837Y-12130309D01*
X13166551Y-12144594D01*
X13152266Y-12130309D01*
X13166551Y-12116023D01*
X13166551Y-12144594D01*
X13166551Y-11958880D02*
X13180837Y-11973166D01*
X13166551Y-11987451D01*
X13152266Y-11973166D01*
X13166551Y-11958880D01*
X13166551Y-11987451D01*
M02*
