G04 #@! TF.GenerationSoftware,KiCad,Pcbnew,(5.1.0)-1*
G04 #@! TF.CreationDate,2021-03-05T09:04:21+01:00*
G04 #@! TF.ProjectId,Atari OSS Cartridge,41746172-6920-44f5-9353-204361727472,rev?*
G04 #@! TF.SameCoordinates,Original*
G04 #@! TF.FileFunction,Soldermask,Bot*
G04 #@! TF.FilePolarity,Negative*
%FSLAX46Y46*%
G04 Gerber Fmt 4.6, Leading zero omitted, Abs format (unit mm)*
G04 Created by KiCad (PCBNEW (5.1.0)-1) date 2021-03-05 09:04:21*
%MOMM*%
%LPD*%
G04 APERTURE LIST*
%ADD10C,0.100000*%
G04 APERTURE END LIST*
D10*
G36*
X125459443Y-113862719D02*
G01*
X125525627Y-113869237D01*
X125695466Y-113920757D01*
X125851991Y-114004422D01*
X125876200Y-114024290D01*
X125989186Y-114117014D01*
X126072448Y-114218471D01*
X126101778Y-114254209D01*
X126185443Y-114410734D01*
X126236963Y-114580573D01*
X126254359Y-114757200D01*
X126236963Y-114933827D01*
X126185443Y-115103666D01*
X126101778Y-115260191D01*
X126072448Y-115295929D01*
X125989186Y-115397386D01*
X125887729Y-115480648D01*
X125851991Y-115509978D01*
X125695466Y-115593643D01*
X125525627Y-115645163D01*
X125459442Y-115651682D01*
X125393260Y-115658200D01*
X125304740Y-115658200D01*
X125238558Y-115651682D01*
X125172373Y-115645163D01*
X125002534Y-115593643D01*
X124846009Y-115509978D01*
X124810271Y-115480648D01*
X124708814Y-115397386D01*
X124625552Y-115295929D01*
X124596222Y-115260191D01*
X124512557Y-115103666D01*
X124461037Y-114933827D01*
X124443641Y-114757200D01*
X124461037Y-114580573D01*
X124512557Y-114410734D01*
X124596222Y-114254209D01*
X124625552Y-114218471D01*
X124708814Y-114117014D01*
X124821800Y-114024290D01*
X124846009Y-114004422D01*
X125002534Y-113920757D01*
X125172373Y-113869237D01*
X125238557Y-113862719D01*
X125304740Y-113856200D01*
X125393260Y-113856200D01*
X125459443Y-113862719D01*
X125459443Y-113862719D01*
G37*
G36*
X111591043Y-113862719D02*
G01*
X111657227Y-113869237D01*
X111827066Y-113920757D01*
X111983591Y-114004422D01*
X112007800Y-114024290D01*
X112120786Y-114117014D01*
X112204048Y-114218471D01*
X112233378Y-114254209D01*
X112317043Y-114410734D01*
X112368563Y-114580573D01*
X112385959Y-114757200D01*
X112368563Y-114933827D01*
X112317043Y-115103666D01*
X112233378Y-115260191D01*
X112204048Y-115295929D01*
X112120786Y-115397386D01*
X112019329Y-115480648D01*
X111983591Y-115509978D01*
X111827066Y-115593643D01*
X111657227Y-115645163D01*
X111591042Y-115651682D01*
X111524860Y-115658200D01*
X111436340Y-115658200D01*
X111370158Y-115651682D01*
X111303973Y-115645163D01*
X111134134Y-115593643D01*
X110977609Y-115509978D01*
X110941871Y-115480648D01*
X110840414Y-115397386D01*
X110757152Y-115295929D01*
X110727822Y-115260191D01*
X110644157Y-115103666D01*
X110592637Y-114933827D01*
X110575241Y-114757200D01*
X110592637Y-114580573D01*
X110644157Y-114410734D01*
X110727822Y-114254209D01*
X110757152Y-114218471D01*
X110840414Y-114117014D01*
X110953400Y-114024290D01*
X110977609Y-114004422D01*
X111134134Y-113920757D01*
X111303973Y-113869237D01*
X111370157Y-113862719D01*
X111436340Y-113856200D01*
X111524860Y-113856200D01*
X111591043Y-113862719D01*
X111591043Y-113862719D01*
G37*
G36*
X114131043Y-113862719D02*
G01*
X114197227Y-113869237D01*
X114367066Y-113920757D01*
X114523591Y-114004422D01*
X114547800Y-114024290D01*
X114660786Y-114117014D01*
X114744048Y-114218471D01*
X114773378Y-114254209D01*
X114857043Y-114410734D01*
X114908563Y-114580573D01*
X114925959Y-114757200D01*
X114908563Y-114933827D01*
X114857043Y-115103666D01*
X114773378Y-115260191D01*
X114744048Y-115295929D01*
X114660786Y-115397386D01*
X114559329Y-115480648D01*
X114523591Y-115509978D01*
X114367066Y-115593643D01*
X114197227Y-115645163D01*
X114131042Y-115651682D01*
X114064860Y-115658200D01*
X113976340Y-115658200D01*
X113910158Y-115651682D01*
X113843973Y-115645163D01*
X113674134Y-115593643D01*
X113517609Y-115509978D01*
X113481871Y-115480648D01*
X113380414Y-115397386D01*
X113297152Y-115295929D01*
X113267822Y-115260191D01*
X113184157Y-115103666D01*
X113132637Y-114933827D01*
X113115241Y-114757200D01*
X113132637Y-114580573D01*
X113184157Y-114410734D01*
X113267822Y-114254209D01*
X113297152Y-114218471D01*
X113380414Y-114117014D01*
X113493400Y-114024290D01*
X113517609Y-114004422D01*
X113674134Y-113920757D01*
X113843973Y-113869237D01*
X113910157Y-113862719D01*
X113976340Y-113856200D01*
X114064860Y-113856200D01*
X114131043Y-113862719D01*
X114131043Y-113862719D01*
G37*
G36*
X116671043Y-113862719D02*
G01*
X116737227Y-113869237D01*
X116907066Y-113920757D01*
X117063591Y-114004422D01*
X117087800Y-114024290D01*
X117200786Y-114117014D01*
X117284048Y-114218471D01*
X117313378Y-114254209D01*
X117397043Y-114410734D01*
X117448563Y-114580573D01*
X117465959Y-114757200D01*
X117448563Y-114933827D01*
X117397043Y-115103666D01*
X117313378Y-115260191D01*
X117284048Y-115295929D01*
X117200786Y-115397386D01*
X117099329Y-115480648D01*
X117063591Y-115509978D01*
X116907066Y-115593643D01*
X116737227Y-115645163D01*
X116671042Y-115651682D01*
X116604860Y-115658200D01*
X116516340Y-115658200D01*
X116450158Y-115651682D01*
X116383973Y-115645163D01*
X116214134Y-115593643D01*
X116057609Y-115509978D01*
X116021871Y-115480648D01*
X115920414Y-115397386D01*
X115837152Y-115295929D01*
X115807822Y-115260191D01*
X115724157Y-115103666D01*
X115672637Y-114933827D01*
X115655241Y-114757200D01*
X115672637Y-114580573D01*
X115724157Y-114410734D01*
X115807822Y-114254209D01*
X115837152Y-114218471D01*
X115920414Y-114117014D01*
X116033400Y-114024290D01*
X116057609Y-114004422D01*
X116214134Y-113920757D01*
X116383973Y-113869237D01*
X116450157Y-113862719D01*
X116516340Y-113856200D01*
X116604860Y-113856200D01*
X116671043Y-113862719D01*
X116671043Y-113862719D01*
G37*
G36*
X120001600Y-115658200D02*
G01*
X118199600Y-115658200D01*
X118199600Y-113856200D01*
X120001600Y-113856200D01*
X120001600Y-115658200D01*
X120001600Y-115658200D01*
G37*
G36*
X123710000Y-115658200D02*
G01*
X121908000Y-115658200D01*
X121908000Y-113856200D01*
X123710000Y-113856200D01*
X123710000Y-115658200D01*
X123710000Y-115658200D01*
G37*
G36*
X145078525Y-114024290D02*
G01*
X145217238Y-114081747D01*
X145342072Y-114165158D01*
X145448242Y-114271328D01*
X145531653Y-114396162D01*
X145589110Y-114534875D01*
X145618400Y-114682129D01*
X145618400Y-114832271D01*
X145589110Y-114979525D01*
X145531653Y-115118238D01*
X145448242Y-115243072D01*
X145342072Y-115349242D01*
X145217238Y-115432653D01*
X145078525Y-115490110D01*
X144931271Y-115519400D01*
X144781129Y-115519400D01*
X144633875Y-115490110D01*
X144495162Y-115432653D01*
X144370328Y-115349242D01*
X144264158Y-115243072D01*
X144180747Y-115118238D01*
X144123290Y-114979525D01*
X144094000Y-114832271D01*
X144094000Y-114682129D01*
X144123290Y-114534875D01*
X144180747Y-114396162D01*
X144264158Y-114271328D01*
X144370328Y-114165158D01*
X144495162Y-114081747D01*
X144633875Y-114024290D01*
X144781129Y-113995000D01*
X144931271Y-113995000D01*
X145078525Y-114024290D01*
X145078525Y-114024290D01*
G37*
G36*
X129838525Y-114024290D02*
G01*
X129977238Y-114081747D01*
X130102072Y-114165158D01*
X130208242Y-114271328D01*
X130291653Y-114396162D01*
X130349110Y-114534875D01*
X130378400Y-114682129D01*
X130378400Y-114832271D01*
X130349110Y-114979525D01*
X130291653Y-115118238D01*
X130208242Y-115243072D01*
X130102072Y-115349242D01*
X129977238Y-115432653D01*
X129838525Y-115490110D01*
X129691271Y-115519400D01*
X129541129Y-115519400D01*
X129393875Y-115490110D01*
X129255162Y-115432653D01*
X129130328Y-115349242D01*
X129024158Y-115243072D01*
X128940747Y-115118238D01*
X128883290Y-114979525D01*
X128854000Y-114832271D01*
X128854000Y-114682129D01*
X128883290Y-114534875D01*
X128940747Y-114396162D01*
X129024158Y-114271328D01*
X129130328Y-114165158D01*
X129255162Y-114081747D01*
X129393875Y-114024290D01*
X129541129Y-113995000D01*
X129691271Y-113995000D01*
X129838525Y-114024290D01*
X129838525Y-114024290D01*
G37*
G36*
X141268525Y-112754290D02*
G01*
X141407238Y-112811747D01*
X141532072Y-112895158D01*
X141638242Y-113001328D01*
X141721653Y-113126162D01*
X141779110Y-113264875D01*
X141808400Y-113412129D01*
X141808400Y-113562271D01*
X141779110Y-113709525D01*
X141721653Y-113848238D01*
X141638242Y-113973072D01*
X141532072Y-114079242D01*
X141407238Y-114162653D01*
X141268525Y-114220110D01*
X141121271Y-114249400D01*
X140971129Y-114249400D01*
X140823875Y-114220110D01*
X140685162Y-114162653D01*
X140560328Y-114079242D01*
X140454158Y-113973072D01*
X140370747Y-113848238D01*
X140313290Y-113709525D01*
X140284000Y-113562271D01*
X140284000Y-113412129D01*
X140313290Y-113264875D01*
X140370747Y-113126162D01*
X140454158Y-113001328D01*
X140560328Y-112895158D01*
X140685162Y-112811747D01*
X140823875Y-112754290D01*
X140971129Y-112725000D01*
X141121271Y-112725000D01*
X141268525Y-112754290D01*
X141268525Y-112754290D01*
G37*
G36*
X133648525Y-112754290D02*
G01*
X133787238Y-112811747D01*
X133912072Y-112895158D01*
X134018242Y-113001328D01*
X134101653Y-113126162D01*
X134159110Y-113264875D01*
X134188400Y-113412129D01*
X134188400Y-113562271D01*
X134159110Y-113709525D01*
X134101653Y-113848238D01*
X134018242Y-113973072D01*
X133912072Y-114079242D01*
X133787238Y-114162653D01*
X133648525Y-114220110D01*
X133501271Y-114249400D01*
X133351129Y-114249400D01*
X133203875Y-114220110D01*
X133065162Y-114162653D01*
X132940328Y-114079242D01*
X132834158Y-113973072D01*
X132750747Y-113848238D01*
X132693290Y-113709525D01*
X132664000Y-113562271D01*
X132664000Y-113412129D01*
X132693290Y-113264875D01*
X132750747Y-113126162D01*
X132834158Y-113001328D01*
X132940328Y-112895158D01*
X133065162Y-112811747D01*
X133203875Y-112754290D01*
X133351129Y-112725000D01*
X133501271Y-112725000D01*
X133648525Y-112754290D01*
X133648525Y-112754290D01*
G37*
G36*
X136188525Y-112754290D02*
G01*
X136327238Y-112811747D01*
X136452072Y-112895158D01*
X136558242Y-113001328D01*
X136641653Y-113126162D01*
X136699110Y-113264875D01*
X136728400Y-113412129D01*
X136728400Y-113562271D01*
X136699110Y-113709525D01*
X136641653Y-113848238D01*
X136558242Y-113973072D01*
X136452072Y-114079242D01*
X136327238Y-114162653D01*
X136188525Y-114220110D01*
X136041271Y-114249400D01*
X135891129Y-114249400D01*
X135743875Y-114220110D01*
X135605162Y-114162653D01*
X135480328Y-114079242D01*
X135374158Y-113973072D01*
X135290747Y-113848238D01*
X135233290Y-113709525D01*
X135204000Y-113562271D01*
X135204000Y-113412129D01*
X135233290Y-113264875D01*
X135290747Y-113126162D01*
X135374158Y-113001328D01*
X135480328Y-112895158D01*
X135605162Y-112811747D01*
X135743875Y-112754290D01*
X135891129Y-112725000D01*
X136041271Y-112725000D01*
X136188525Y-112754290D01*
X136188525Y-112754290D01*
G37*
G36*
X138728525Y-112754290D02*
G01*
X138867238Y-112811747D01*
X138992072Y-112895158D01*
X139098242Y-113001328D01*
X139181653Y-113126162D01*
X139239110Y-113264875D01*
X139268400Y-113412129D01*
X139268400Y-113562271D01*
X139239110Y-113709525D01*
X139181653Y-113848238D01*
X139098242Y-113973072D01*
X138992072Y-114079242D01*
X138867238Y-114162653D01*
X138728525Y-114220110D01*
X138581271Y-114249400D01*
X138431129Y-114249400D01*
X138283875Y-114220110D01*
X138145162Y-114162653D01*
X138020328Y-114079242D01*
X137914158Y-113973072D01*
X137830747Y-113848238D01*
X137773290Y-113709525D01*
X137744000Y-113562271D01*
X137744000Y-113412129D01*
X137773290Y-113264875D01*
X137830747Y-113126162D01*
X137914158Y-113001328D01*
X138020328Y-112895158D01*
X138145162Y-112811747D01*
X138283875Y-112754290D01*
X138431129Y-112725000D01*
X138581271Y-112725000D01*
X138728525Y-112754290D01*
X138728525Y-112754290D01*
G37*
G36*
X129838525Y-111484290D02*
G01*
X129977238Y-111541747D01*
X130102072Y-111625158D01*
X130208242Y-111731328D01*
X130291653Y-111856162D01*
X130349110Y-111994875D01*
X130378400Y-112142129D01*
X130378400Y-112292271D01*
X130349110Y-112439525D01*
X130291653Y-112578238D01*
X130208242Y-112703072D01*
X130102072Y-112809242D01*
X129977238Y-112892653D01*
X129838525Y-112950110D01*
X129691271Y-112979400D01*
X129541129Y-112979400D01*
X129393875Y-112950110D01*
X129255162Y-112892653D01*
X129130328Y-112809242D01*
X129024158Y-112703072D01*
X128940747Y-112578238D01*
X128883290Y-112439525D01*
X128854000Y-112292271D01*
X128854000Y-112142129D01*
X128883290Y-111994875D01*
X128940747Y-111856162D01*
X129024158Y-111731328D01*
X129130328Y-111625158D01*
X129255162Y-111541747D01*
X129393875Y-111484290D01*
X129541129Y-111455000D01*
X129691271Y-111455000D01*
X129838525Y-111484290D01*
X129838525Y-111484290D01*
G37*
G36*
X145078525Y-111484290D02*
G01*
X145217238Y-111541747D01*
X145342072Y-111625158D01*
X145448242Y-111731328D01*
X145531653Y-111856162D01*
X145589110Y-111994875D01*
X145618400Y-112142129D01*
X145618400Y-112292271D01*
X145589110Y-112439525D01*
X145531653Y-112578238D01*
X145448242Y-112703072D01*
X145342072Y-112809242D01*
X145217238Y-112892653D01*
X145078525Y-112950110D01*
X144931271Y-112979400D01*
X144781129Y-112979400D01*
X144633875Y-112950110D01*
X144495162Y-112892653D01*
X144370328Y-112809242D01*
X144264158Y-112703072D01*
X144180747Y-112578238D01*
X144123290Y-112439525D01*
X144094000Y-112292271D01*
X144094000Y-112142129D01*
X144123290Y-111994875D01*
X144180747Y-111856162D01*
X144264158Y-111731328D01*
X144370328Y-111625158D01*
X144495162Y-111541747D01*
X144633875Y-111484290D01*
X144781129Y-111455000D01*
X144931271Y-111455000D01*
X145078525Y-111484290D01*
X145078525Y-111484290D01*
G37*
G36*
X141268525Y-110214290D02*
G01*
X141407238Y-110271747D01*
X141532072Y-110355158D01*
X141638242Y-110461328D01*
X141721653Y-110586162D01*
X141779110Y-110724875D01*
X141808400Y-110872129D01*
X141808400Y-111022271D01*
X141779110Y-111169525D01*
X141721653Y-111308238D01*
X141638242Y-111433072D01*
X141532072Y-111539242D01*
X141407238Y-111622653D01*
X141268525Y-111680110D01*
X141121271Y-111709400D01*
X140971129Y-111709400D01*
X140823875Y-111680110D01*
X140685162Y-111622653D01*
X140560328Y-111539242D01*
X140454158Y-111433072D01*
X140370747Y-111308238D01*
X140313290Y-111169525D01*
X140284000Y-111022271D01*
X140284000Y-110872129D01*
X140313290Y-110724875D01*
X140370747Y-110586162D01*
X140454158Y-110461328D01*
X140560328Y-110355158D01*
X140685162Y-110271747D01*
X140823875Y-110214290D01*
X140971129Y-110185000D01*
X141121271Y-110185000D01*
X141268525Y-110214290D01*
X141268525Y-110214290D01*
G37*
G36*
X136188525Y-110214290D02*
G01*
X136327238Y-110271747D01*
X136452072Y-110355158D01*
X136558242Y-110461328D01*
X136641653Y-110586162D01*
X136699110Y-110724875D01*
X136728400Y-110872129D01*
X136728400Y-111022271D01*
X136699110Y-111169525D01*
X136641653Y-111308238D01*
X136558242Y-111433072D01*
X136452072Y-111539242D01*
X136327238Y-111622653D01*
X136188525Y-111680110D01*
X136041271Y-111709400D01*
X135891129Y-111709400D01*
X135743875Y-111680110D01*
X135605162Y-111622653D01*
X135480328Y-111539242D01*
X135374158Y-111433072D01*
X135290747Y-111308238D01*
X135233290Y-111169525D01*
X135204000Y-111022271D01*
X135204000Y-110872129D01*
X135233290Y-110724875D01*
X135290747Y-110586162D01*
X135374158Y-110461328D01*
X135480328Y-110355158D01*
X135605162Y-110271747D01*
X135743875Y-110214290D01*
X135891129Y-110185000D01*
X136041271Y-110185000D01*
X136188525Y-110214290D01*
X136188525Y-110214290D01*
G37*
G36*
X143808525Y-110214290D02*
G01*
X143947238Y-110271747D01*
X144072072Y-110355158D01*
X144178242Y-110461328D01*
X144261653Y-110586162D01*
X144319110Y-110724875D01*
X144348400Y-110872129D01*
X144348400Y-111022271D01*
X144319110Y-111169525D01*
X144261653Y-111308238D01*
X144178242Y-111433072D01*
X144072072Y-111539242D01*
X143947238Y-111622653D01*
X143808525Y-111680110D01*
X143661271Y-111709400D01*
X143511129Y-111709400D01*
X143363875Y-111680110D01*
X143225162Y-111622653D01*
X143100328Y-111539242D01*
X142994158Y-111433072D01*
X142910747Y-111308238D01*
X142853290Y-111169525D01*
X142824000Y-111022271D01*
X142824000Y-110872129D01*
X142853290Y-110724875D01*
X142910747Y-110586162D01*
X142994158Y-110461328D01*
X143100328Y-110355158D01*
X143225162Y-110271747D01*
X143363875Y-110214290D01*
X143511129Y-110185000D01*
X143661271Y-110185000D01*
X143808525Y-110214290D01*
X143808525Y-110214290D01*
G37*
G36*
X138728525Y-110214290D02*
G01*
X138867238Y-110271747D01*
X138992072Y-110355158D01*
X139098242Y-110461328D01*
X139181653Y-110586162D01*
X139239110Y-110724875D01*
X139268400Y-110872129D01*
X139268400Y-111022271D01*
X139239110Y-111169525D01*
X139181653Y-111308238D01*
X139098242Y-111433072D01*
X138992072Y-111539242D01*
X138867238Y-111622653D01*
X138728525Y-111680110D01*
X138581271Y-111709400D01*
X138431129Y-111709400D01*
X138283875Y-111680110D01*
X138145162Y-111622653D01*
X138020328Y-111539242D01*
X137914158Y-111433072D01*
X137830747Y-111308238D01*
X137773290Y-111169525D01*
X137744000Y-111022271D01*
X137744000Y-110872129D01*
X137773290Y-110724875D01*
X137830747Y-110586162D01*
X137914158Y-110461328D01*
X138020328Y-110355158D01*
X138145162Y-110271747D01*
X138283875Y-110214290D01*
X138431129Y-110185000D01*
X138581271Y-110185000D01*
X138728525Y-110214290D01*
X138728525Y-110214290D01*
G37*
G36*
X131108525Y-110214290D02*
G01*
X131247238Y-110271747D01*
X131372072Y-110355158D01*
X131478242Y-110461328D01*
X131561653Y-110586162D01*
X131619110Y-110724875D01*
X131648400Y-110872129D01*
X131648400Y-111022271D01*
X131619110Y-111169525D01*
X131561653Y-111308238D01*
X131478242Y-111433072D01*
X131372072Y-111539242D01*
X131247238Y-111622653D01*
X131108525Y-111680110D01*
X130961271Y-111709400D01*
X130811129Y-111709400D01*
X130663875Y-111680110D01*
X130525162Y-111622653D01*
X130400328Y-111539242D01*
X130294158Y-111433072D01*
X130210747Y-111308238D01*
X130153290Y-111169525D01*
X130124000Y-111022271D01*
X130124000Y-110872129D01*
X130153290Y-110724875D01*
X130210747Y-110586162D01*
X130294158Y-110461328D01*
X130400328Y-110355158D01*
X130525162Y-110271747D01*
X130663875Y-110214290D01*
X130811129Y-110185000D01*
X130961271Y-110185000D01*
X131108525Y-110214290D01*
X131108525Y-110214290D01*
G37*
G36*
X133648525Y-110214290D02*
G01*
X133787238Y-110271747D01*
X133912072Y-110355158D01*
X134018242Y-110461328D01*
X134101653Y-110586162D01*
X134159110Y-110724875D01*
X134188400Y-110872129D01*
X134188400Y-111022271D01*
X134159110Y-111169525D01*
X134101653Y-111308238D01*
X134018242Y-111433072D01*
X133912072Y-111539242D01*
X133787238Y-111622653D01*
X133648525Y-111680110D01*
X133501271Y-111709400D01*
X133351129Y-111709400D01*
X133203875Y-111680110D01*
X133065162Y-111622653D01*
X132940328Y-111539242D01*
X132834158Y-111433072D01*
X132750747Y-111308238D01*
X132693290Y-111169525D01*
X132664000Y-111022271D01*
X132664000Y-110872129D01*
X132693290Y-110724875D01*
X132750747Y-110586162D01*
X132834158Y-110461328D01*
X132940328Y-110355158D01*
X133065162Y-110271747D01*
X133203875Y-110214290D01*
X133351129Y-110185000D01*
X133501271Y-110185000D01*
X133648525Y-110214290D01*
X133648525Y-110214290D01*
G37*
G36*
X145078525Y-108944290D02*
G01*
X145217238Y-109001747D01*
X145342072Y-109085158D01*
X145448242Y-109191328D01*
X145531653Y-109316162D01*
X145589110Y-109454875D01*
X145618400Y-109602129D01*
X145618400Y-109752271D01*
X145589110Y-109899525D01*
X145531653Y-110038238D01*
X145448242Y-110163072D01*
X145342072Y-110269242D01*
X145217238Y-110352653D01*
X145078525Y-110410110D01*
X144931271Y-110439400D01*
X144781129Y-110439400D01*
X144633875Y-110410110D01*
X144495162Y-110352653D01*
X144370328Y-110269242D01*
X144264158Y-110163072D01*
X144180747Y-110038238D01*
X144123290Y-109899525D01*
X144094000Y-109752271D01*
X144094000Y-109602129D01*
X144123290Y-109454875D01*
X144180747Y-109316162D01*
X144264158Y-109191328D01*
X144370328Y-109085158D01*
X144495162Y-109001747D01*
X144633875Y-108944290D01*
X144781129Y-108915000D01*
X144931271Y-108915000D01*
X145078525Y-108944290D01*
X145078525Y-108944290D01*
G37*
G36*
X129838525Y-108944290D02*
G01*
X129977238Y-109001747D01*
X130102072Y-109085158D01*
X130208242Y-109191328D01*
X130291653Y-109316162D01*
X130349110Y-109454875D01*
X130378400Y-109602129D01*
X130378400Y-109752271D01*
X130349110Y-109899525D01*
X130291653Y-110038238D01*
X130208242Y-110163072D01*
X130102072Y-110269242D01*
X129977238Y-110352653D01*
X129838525Y-110410110D01*
X129691271Y-110439400D01*
X129541129Y-110439400D01*
X129393875Y-110410110D01*
X129255162Y-110352653D01*
X129130328Y-110269242D01*
X129024158Y-110163072D01*
X128940747Y-110038238D01*
X128883290Y-109899525D01*
X128854000Y-109752271D01*
X128854000Y-109602129D01*
X128883290Y-109454875D01*
X128940747Y-109316162D01*
X129024158Y-109191328D01*
X129130328Y-109085158D01*
X129255162Y-109001747D01*
X129393875Y-108944290D01*
X129541129Y-108915000D01*
X129691271Y-108915000D01*
X129838525Y-108944290D01*
X129838525Y-108944290D01*
G37*
G36*
X143808525Y-107674290D02*
G01*
X143947238Y-107731747D01*
X144072072Y-107815158D01*
X144178242Y-107921328D01*
X144261653Y-108046162D01*
X144319110Y-108184875D01*
X144348400Y-108332129D01*
X144348400Y-108482271D01*
X144319110Y-108629525D01*
X144261653Y-108768238D01*
X144178242Y-108893072D01*
X144072072Y-108999242D01*
X143947238Y-109082653D01*
X143808525Y-109140110D01*
X143661271Y-109169400D01*
X143511129Y-109169400D01*
X143363875Y-109140110D01*
X143225162Y-109082653D01*
X143100328Y-108999242D01*
X142994158Y-108893072D01*
X142910747Y-108768238D01*
X142853290Y-108629525D01*
X142824000Y-108482271D01*
X142824000Y-108332129D01*
X142853290Y-108184875D01*
X142910747Y-108046162D01*
X142994158Y-107921328D01*
X143100328Y-107815158D01*
X143225162Y-107731747D01*
X143363875Y-107674290D01*
X143511129Y-107645000D01*
X143661271Y-107645000D01*
X143808525Y-107674290D01*
X143808525Y-107674290D01*
G37*
G36*
X131108525Y-107674290D02*
G01*
X131247238Y-107731747D01*
X131372072Y-107815158D01*
X131478242Y-107921328D01*
X131561653Y-108046162D01*
X131619110Y-108184875D01*
X131648400Y-108332129D01*
X131648400Y-108482271D01*
X131619110Y-108629525D01*
X131561653Y-108768238D01*
X131478242Y-108893072D01*
X131372072Y-108999242D01*
X131247238Y-109082653D01*
X131108525Y-109140110D01*
X130961271Y-109169400D01*
X130811129Y-109169400D01*
X130663875Y-109140110D01*
X130525162Y-109082653D01*
X130400328Y-108999242D01*
X130294158Y-108893072D01*
X130210747Y-108768238D01*
X130153290Y-108629525D01*
X130124000Y-108482271D01*
X130124000Y-108332129D01*
X130153290Y-108184875D01*
X130210747Y-108046162D01*
X130294158Y-107921328D01*
X130400328Y-107815158D01*
X130525162Y-107731747D01*
X130663875Y-107674290D01*
X130811129Y-107645000D01*
X130961271Y-107645000D01*
X131108525Y-107674290D01*
X131108525Y-107674290D01*
G37*
G36*
X133648525Y-107674290D02*
G01*
X133787238Y-107731747D01*
X133912072Y-107815158D01*
X134018242Y-107921328D01*
X134101653Y-108046162D01*
X134159110Y-108184875D01*
X134188400Y-108332129D01*
X134188400Y-108482271D01*
X134159110Y-108629525D01*
X134101653Y-108768238D01*
X134018242Y-108893072D01*
X133912072Y-108999242D01*
X133787238Y-109082653D01*
X133648525Y-109140110D01*
X133501271Y-109169400D01*
X133351129Y-109169400D01*
X133203875Y-109140110D01*
X133065162Y-109082653D01*
X132940328Y-108999242D01*
X132834158Y-108893072D01*
X132750747Y-108768238D01*
X132693290Y-108629525D01*
X132664000Y-108482271D01*
X132664000Y-108332129D01*
X132693290Y-108184875D01*
X132750747Y-108046162D01*
X132834158Y-107921328D01*
X132940328Y-107815158D01*
X133065162Y-107731747D01*
X133203875Y-107674290D01*
X133351129Y-107645000D01*
X133501271Y-107645000D01*
X133648525Y-107674290D01*
X133648525Y-107674290D01*
G37*
G36*
X141268525Y-107674290D02*
G01*
X141407238Y-107731747D01*
X141532072Y-107815158D01*
X141638242Y-107921328D01*
X141721653Y-108046162D01*
X141779110Y-108184875D01*
X141808400Y-108332129D01*
X141808400Y-108482271D01*
X141779110Y-108629525D01*
X141721653Y-108768238D01*
X141638242Y-108893072D01*
X141532072Y-108999242D01*
X141407238Y-109082653D01*
X141268525Y-109140110D01*
X141121271Y-109169400D01*
X140971129Y-109169400D01*
X140823875Y-109140110D01*
X140685162Y-109082653D01*
X140560328Y-108999242D01*
X140454158Y-108893072D01*
X140370747Y-108768238D01*
X140313290Y-108629525D01*
X140284000Y-108482271D01*
X140284000Y-108332129D01*
X140313290Y-108184875D01*
X140370747Y-108046162D01*
X140454158Y-107921328D01*
X140560328Y-107815158D01*
X140685162Y-107731747D01*
X140823875Y-107674290D01*
X140971129Y-107645000D01*
X141121271Y-107645000D01*
X141268525Y-107674290D01*
X141268525Y-107674290D01*
G37*
G36*
X129838525Y-106404290D02*
G01*
X129977238Y-106461747D01*
X130102072Y-106545158D01*
X130208242Y-106651328D01*
X130291653Y-106776162D01*
X130349110Y-106914875D01*
X130378400Y-107062129D01*
X130378400Y-107212271D01*
X130349110Y-107359525D01*
X130291653Y-107498238D01*
X130208242Y-107623072D01*
X130102072Y-107729242D01*
X129977238Y-107812653D01*
X129838525Y-107870110D01*
X129691271Y-107899400D01*
X129541129Y-107899400D01*
X129393875Y-107870110D01*
X129255162Y-107812653D01*
X129130328Y-107729242D01*
X129024158Y-107623072D01*
X128940747Y-107498238D01*
X128883290Y-107359525D01*
X128854000Y-107212271D01*
X128854000Y-107062129D01*
X128883290Y-106914875D01*
X128940747Y-106776162D01*
X129024158Y-106651328D01*
X129130328Y-106545158D01*
X129255162Y-106461747D01*
X129393875Y-106404290D01*
X129541129Y-106375000D01*
X129691271Y-106375000D01*
X129838525Y-106404290D01*
X129838525Y-106404290D01*
G37*
G36*
X145078525Y-106404290D02*
G01*
X145217238Y-106461747D01*
X145342072Y-106545158D01*
X145448242Y-106651328D01*
X145531653Y-106776162D01*
X145589110Y-106914875D01*
X145618400Y-107062129D01*
X145618400Y-107212271D01*
X145589110Y-107359525D01*
X145531653Y-107498238D01*
X145448242Y-107623072D01*
X145342072Y-107729242D01*
X145217238Y-107812653D01*
X145078525Y-107870110D01*
X144931271Y-107899400D01*
X144781129Y-107899400D01*
X144633875Y-107870110D01*
X144495162Y-107812653D01*
X144370328Y-107729242D01*
X144264158Y-107623072D01*
X144180747Y-107498238D01*
X144123290Y-107359525D01*
X144094000Y-107212271D01*
X144094000Y-107062129D01*
X144123290Y-106914875D01*
X144180747Y-106776162D01*
X144264158Y-106651328D01*
X144370328Y-106545158D01*
X144495162Y-106461747D01*
X144633875Y-106404290D01*
X144781129Y-106375000D01*
X144931271Y-106375000D01*
X145078525Y-106404290D01*
X145078525Y-106404290D01*
G37*
G36*
X131108525Y-105134290D02*
G01*
X131247238Y-105191747D01*
X131372072Y-105275158D01*
X131478242Y-105381328D01*
X131561653Y-105506162D01*
X131619110Y-105644875D01*
X131648400Y-105792129D01*
X131648400Y-105942271D01*
X131619110Y-106089525D01*
X131561653Y-106228238D01*
X131478242Y-106353072D01*
X131372072Y-106459242D01*
X131247238Y-106542653D01*
X131108525Y-106600110D01*
X130961271Y-106629400D01*
X130811129Y-106629400D01*
X130663875Y-106600110D01*
X130525162Y-106542653D01*
X130400328Y-106459242D01*
X130294158Y-106353072D01*
X130210747Y-106228238D01*
X130153290Y-106089525D01*
X130124000Y-105942271D01*
X130124000Y-105792129D01*
X130153290Y-105644875D01*
X130210747Y-105506162D01*
X130294158Y-105381328D01*
X130400328Y-105275158D01*
X130525162Y-105191747D01*
X130663875Y-105134290D01*
X130811129Y-105105000D01*
X130961271Y-105105000D01*
X131108525Y-105134290D01*
X131108525Y-105134290D01*
G37*
G36*
X133648525Y-105134290D02*
G01*
X133787238Y-105191747D01*
X133912072Y-105275158D01*
X134018242Y-105381328D01*
X134101653Y-105506162D01*
X134159110Y-105644875D01*
X134188400Y-105792129D01*
X134188400Y-105942271D01*
X134159110Y-106089525D01*
X134101653Y-106228238D01*
X134018242Y-106353072D01*
X133912072Y-106459242D01*
X133787238Y-106542653D01*
X133648525Y-106600110D01*
X133501271Y-106629400D01*
X133351129Y-106629400D01*
X133203875Y-106600110D01*
X133065162Y-106542653D01*
X132940328Y-106459242D01*
X132834158Y-106353072D01*
X132750747Y-106228238D01*
X132693290Y-106089525D01*
X132664000Y-105942271D01*
X132664000Y-105792129D01*
X132693290Y-105644875D01*
X132750747Y-105506162D01*
X132834158Y-105381328D01*
X132940328Y-105275158D01*
X133065162Y-105191747D01*
X133203875Y-105134290D01*
X133351129Y-105105000D01*
X133501271Y-105105000D01*
X133648525Y-105134290D01*
X133648525Y-105134290D01*
G37*
G36*
X141268525Y-105134290D02*
G01*
X141407238Y-105191747D01*
X141532072Y-105275158D01*
X141638242Y-105381328D01*
X141721653Y-105506162D01*
X141779110Y-105644875D01*
X141808400Y-105792129D01*
X141808400Y-105942271D01*
X141779110Y-106089525D01*
X141721653Y-106228238D01*
X141638242Y-106353072D01*
X141532072Y-106459242D01*
X141407238Y-106542653D01*
X141268525Y-106600110D01*
X141121271Y-106629400D01*
X140971129Y-106629400D01*
X140823875Y-106600110D01*
X140685162Y-106542653D01*
X140560328Y-106459242D01*
X140454158Y-106353072D01*
X140370747Y-106228238D01*
X140313290Y-106089525D01*
X140284000Y-105942271D01*
X140284000Y-105792129D01*
X140313290Y-105644875D01*
X140370747Y-105506162D01*
X140454158Y-105381328D01*
X140560328Y-105275158D01*
X140685162Y-105191747D01*
X140823875Y-105134290D01*
X140971129Y-105105000D01*
X141121271Y-105105000D01*
X141268525Y-105134290D01*
X141268525Y-105134290D01*
G37*
G36*
X143808525Y-105134290D02*
G01*
X143947238Y-105191747D01*
X144072072Y-105275158D01*
X144178242Y-105381328D01*
X144261653Y-105506162D01*
X144319110Y-105644875D01*
X144348400Y-105792129D01*
X144348400Y-105942271D01*
X144319110Y-106089525D01*
X144261653Y-106228238D01*
X144178242Y-106353072D01*
X144072072Y-106459242D01*
X143947238Y-106542653D01*
X143808525Y-106600110D01*
X143661271Y-106629400D01*
X143511129Y-106629400D01*
X143363875Y-106600110D01*
X143225162Y-106542653D01*
X143100328Y-106459242D01*
X142994158Y-106353072D01*
X142910747Y-106228238D01*
X142853290Y-106089525D01*
X142824000Y-105942271D01*
X142824000Y-105792129D01*
X142853290Y-105644875D01*
X142910747Y-105506162D01*
X142994158Y-105381328D01*
X143100328Y-105275158D01*
X143225162Y-105191747D01*
X143363875Y-105134290D01*
X143511129Y-105105000D01*
X143661271Y-105105000D01*
X143808525Y-105134290D01*
X143808525Y-105134290D01*
G37*
G36*
X129838525Y-103864290D02*
G01*
X129977238Y-103921747D01*
X130102072Y-104005158D01*
X130208242Y-104111328D01*
X130291653Y-104236162D01*
X130349110Y-104374875D01*
X130378400Y-104522129D01*
X130378400Y-104672271D01*
X130349110Y-104819525D01*
X130291653Y-104958238D01*
X130208242Y-105083072D01*
X130102072Y-105189242D01*
X129977238Y-105272653D01*
X129838525Y-105330110D01*
X129691271Y-105359400D01*
X129541129Y-105359400D01*
X129393875Y-105330110D01*
X129255162Y-105272653D01*
X129130328Y-105189242D01*
X129024158Y-105083072D01*
X128940747Y-104958238D01*
X128883290Y-104819525D01*
X128854000Y-104672271D01*
X128854000Y-104522129D01*
X128883290Y-104374875D01*
X128940747Y-104236162D01*
X129024158Y-104111328D01*
X129130328Y-104005158D01*
X129255162Y-103921747D01*
X129393875Y-103864290D01*
X129541129Y-103835000D01*
X129691271Y-103835000D01*
X129838525Y-103864290D01*
X129838525Y-103864290D01*
G37*
G36*
X145078525Y-103864290D02*
G01*
X145217238Y-103921747D01*
X145342072Y-104005158D01*
X145448242Y-104111328D01*
X145531653Y-104236162D01*
X145589110Y-104374875D01*
X145618400Y-104522129D01*
X145618400Y-104672271D01*
X145589110Y-104819525D01*
X145531653Y-104958238D01*
X145448242Y-105083072D01*
X145342072Y-105189242D01*
X145217238Y-105272653D01*
X145078525Y-105330110D01*
X144931271Y-105359400D01*
X144781129Y-105359400D01*
X144633875Y-105330110D01*
X144495162Y-105272653D01*
X144370328Y-105189242D01*
X144264158Y-105083072D01*
X144180747Y-104958238D01*
X144123290Y-104819525D01*
X144094000Y-104672271D01*
X144094000Y-104522129D01*
X144123290Y-104374875D01*
X144180747Y-104236162D01*
X144264158Y-104111328D01*
X144370328Y-104005158D01*
X144495162Y-103921747D01*
X144633875Y-103864290D01*
X144781129Y-103835000D01*
X144931271Y-103835000D01*
X145078525Y-103864290D01*
X145078525Y-103864290D01*
G37*
G36*
X131108525Y-102594290D02*
G01*
X131247238Y-102651747D01*
X131372072Y-102735158D01*
X131478242Y-102841328D01*
X131561653Y-102966162D01*
X131619110Y-103104875D01*
X131648400Y-103252129D01*
X131648400Y-103402271D01*
X131619110Y-103549525D01*
X131561653Y-103688238D01*
X131478242Y-103813072D01*
X131372072Y-103919242D01*
X131247238Y-104002653D01*
X131108525Y-104060110D01*
X130961271Y-104089400D01*
X130811129Y-104089400D01*
X130663875Y-104060110D01*
X130525162Y-104002653D01*
X130400328Y-103919242D01*
X130294158Y-103813072D01*
X130210747Y-103688238D01*
X130153290Y-103549525D01*
X130124000Y-103402271D01*
X130124000Y-103252129D01*
X130153290Y-103104875D01*
X130210747Y-102966162D01*
X130294158Y-102841328D01*
X130400328Y-102735158D01*
X130525162Y-102651747D01*
X130663875Y-102594290D01*
X130811129Y-102565000D01*
X130961271Y-102565000D01*
X131108525Y-102594290D01*
X131108525Y-102594290D01*
G37*
G36*
X133648525Y-102594290D02*
G01*
X133787238Y-102651747D01*
X133912072Y-102735158D01*
X134018242Y-102841328D01*
X134101653Y-102966162D01*
X134159110Y-103104875D01*
X134188400Y-103252129D01*
X134188400Y-103402271D01*
X134159110Y-103549525D01*
X134101653Y-103688238D01*
X134018242Y-103813072D01*
X133912072Y-103919242D01*
X133787238Y-104002653D01*
X133648525Y-104060110D01*
X133501271Y-104089400D01*
X133351129Y-104089400D01*
X133203875Y-104060110D01*
X133065162Y-104002653D01*
X132940328Y-103919242D01*
X132834158Y-103813072D01*
X132750747Y-103688238D01*
X132693290Y-103549525D01*
X132664000Y-103402271D01*
X132664000Y-103252129D01*
X132693290Y-103104875D01*
X132750747Y-102966162D01*
X132834158Y-102841328D01*
X132940328Y-102735158D01*
X133065162Y-102651747D01*
X133203875Y-102594290D01*
X133351129Y-102565000D01*
X133501271Y-102565000D01*
X133648525Y-102594290D01*
X133648525Y-102594290D01*
G37*
G36*
X141268525Y-102594290D02*
G01*
X141407238Y-102651747D01*
X141532072Y-102735158D01*
X141638242Y-102841328D01*
X141721653Y-102966162D01*
X141779110Y-103104875D01*
X141808400Y-103252129D01*
X141808400Y-103402271D01*
X141779110Y-103549525D01*
X141721653Y-103688238D01*
X141638242Y-103813072D01*
X141532072Y-103919242D01*
X141407238Y-104002653D01*
X141268525Y-104060110D01*
X141121271Y-104089400D01*
X140971129Y-104089400D01*
X140823875Y-104060110D01*
X140685162Y-104002653D01*
X140560328Y-103919242D01*
X140454158Y-103813072D01*
X140370747Y-103688238D01*
X140313290Y-103549525D01*
X140284000Y-103402271D01*
X140284000Y-103252129D01*
X140313290Y-103104875D01*
X140370747Y-102966162D01*
X140454158Y-102841328D01*
X140560328Y-102735158D01*
X140685162Y-102651747D01*
X140823875Y-102594290D01*
X140971129Y-102565000D01*
X141121271Y-102565000D01*
X141268525Y-102594290D01*
X141268525Y-102594290D01*
G37*
G36*
X143808525Y-102594290D02*
G01*
X143947238Y-102651747D01*
X144072072Y-102735158D01*
X144178242Y-102841328D01*
X144261653Y-102966162D01*
X144319110Y-103104875D01*
X144348400Y-103252129D01*
X144348400Y-103402271D01*
X144319110Y-103549525D01*
X144261653Y-103688238D01*
X144178242Y-103813072D01*
X144072072Y-103919242D01*
X143947238Y-104002653D01*
X143808525Y-104060110D01*
X143661271Y-104089400D01*
X143511129Y-104089400D01*
X143363875Y-104060110D01*
X143225162Y-104002653D01*
X143100328Y-103919242D01*
X142994158Y-103813072D01*
X142910747Y-103688238D01*
X142853290Y-103549525D01*
X142824000Y-103402271D01*
X142824000Y-103252129D01*
X142853290Y-103104875D01*
X142910747Y-102966162D01*
X142994158Y-102841328D01*
X143100328Y-102735158D01*
X143225162Y-102651747D01*
X143363875Y-102594290D01*
X143511129Y-102565000D01*
X143661271Y-102565000D01*
X143808525Y-102594290D01*
X143808525Y-102594290D01*
G37*
G36*
X129838525Y-101324290D02*
G01*
X129977238Y-101381747D01*
X130102072Y-101465158D01*
X130208242Y-101571328D01*
X130291653Y-101696162D01*
X130349110Y-101834875D01*
X130378400Y-101982129D01*
X130378400Y-102132271D01*
X130349110Y-102279525D01*
X130291653Y-102418238D01*
X130208242Y-102543072D01*
X130102072Y-102649242D01*
X129977238Y-102732653D01*
X129838525Y-102790110D01*
X129691271Y-102819400D01*
X129541129Y-102819400D01*
X129393875Y-102790110D01*
X129255162Y-102732653D01*
X129130328Y-102649242D01*
X129024158Y-102543072D01*
X128940747Y-102418238D01*
X128883290Y-102279525D01*
X128854000Y-102132271D01*
X128854000Y-101982129D01*
X128883290Y-101834875D01*
X128940747Y-101696162D01*
X129024158Y-101571328D01*
X129130328Y-101465158D01*
X129255162Y-101381747D01*
X129393875Y-101324290D01*
X129541129Y-101295000D01*
X129691271Y-101295000D01*
X129838525Y-101324290D01*
X129838525Y-101324290D01*
G37*
G36*
X145078525Y-101324290D02*
G01*
X145217238Y-101381747D01*
X145342072Y-101465158D01*
X145448242Y-101571328D01*
X145531653Y-101696162D01*
X145589110Y-101834875D01*
X145618400Y-101982129D01*
X145618400Y-102132271D01*
X145589110Y-102279525D01*
X145531653Y-102418238D01*
X145448242Y-102543072D01*
X145342072Y-102649242D01*
X145217238Y-102732653D01*
X145078525Y-102790110D01*
X144931271Y-102819400D01*
X144781129Y-102819400D01*
X144633875Y-102790110D01*
X144495162Y-102732653D01*
X144370328Y-102649242D01*
X144264158Y-102543072D01*
X144180747Y-102418238D01*
X144123290Y-102279525D01*
X144094000Y-102132271D01*
X144094000Y-101982129D01*
X144123290Y-101834875D01*
X144180747Y-101696162D01*
X144264158Y-101571328D01*
X144370328Y-101465158D01*
X144495162Y-101381747D01*
X144633875Y-101324290D01*
X144781129Y-101295000D01*
X144931271Y-101295000D01*
X145078525Y-101324290D01*
X145078525Y-101324290D01*
G37*
G36*
X131108525Y-100054290D02*
G01*
X131247238Y-100111747D01*
X131372072Y-100195158D01*
X131478242Y-100301328D01*
X131561653Y-100426162D01*
X131619110Y-100564875D01*
X131648400Y-100712129D01*
X131648400Y-100862271D01*
X131619110Y-101009525D01*
X131561653Y-101148238D01*
X131478242Y-101273072D01*
X131372072Y-101379242D01*
X131247238Y-101462653D01*
X131108525Y-101520110D01*
X130961271Y-101549400D01*
X130811129Y-101549400D01*
X130663875Y-101520110D01*
X130525162Y-101462653D01*
X130400328Y-101379242D01*
X130294158Y-101273072D01*
X130210747Y-101148238D01*
X130153290Y-101009525D01*
X130124000Y-100862271D01*
X130124000Y-100712129D01*
X130153290Y-100564875D01*
X130210747Y-100426162D01*
X130294158Y-100301328D01*
X130400328Y-100195158D01*
X130525162Y-100111747D01*
X130663875Y-100054290D01*
X130811129Y-100025000D01*
X130961271Y-100025000D01*
X131108525Y-100054290D01*
X131108525Y-100054290D01*
G37*
G36*
X139268400Y-101549400D02*
G01*
X137744000Y-101549400D01*
X137744000Y-100025000D01*
X139268400Y-100025000D01*
X139268400Y-101549400D01*
X139268400Y-101549400D01*
G37*
G36*
X136188525Y-100054290D02*
G01*
X136327238Y-100111747D01*
X136452072Y-100195158D01*
X136558242Y-100301328D01*
X136641653Y-100426162D01*
X136699110Y-100564875D01*
X136728400Y-100712129D01*
X136728400Y-100862271D01*
X136699110Y-101009525D01*
X136641653Y-101148238D01*
X136558242Y-101273072D01*
X136452072Y-101379242D01*
X136327238Y-101462653D01*
X136188525Y-101520110D01*
X136041271Y-101549400D01*
X135891129Y-101549400D01*
X135743875Y-101520110D01*
X135605162Y-101462653D01*
X135480328Y-101379242D01*
X135374158Y-101273072D01*
X135290747Y-101148238D01*
X135233290Y-101009525D01*
X135204000Y-100862271D01*
X135204000Y-100712129D01*
X135233290Y-100564875D01*
X135290747Y-100426162D01*
X135374158Y-100301328D01*
X135480328Y-100195158D01*
X135605162Y-100111747D01*
X135743875Y-100054290D01*
X135891129Y-100025000D01*
X136041271Y-100025000D01*
X136188525Y-100054290D01*
X136188525Y-100054290D01*
G37*
G36*
X133648525Y-100054290D02*
G01*
X133787238Y-100111747D01*
X133912072Y-100195158D01*
X134018242Y-100301328D01*
X134101653Y-100426162D01*
X134159110Y-100564875D01*
X134188400Y-100712129D01*
X134188400Y-100862271D01*
X134159110Y-101009525D01*
X134101653Y-101148238D01*
X134018242Y-101273072D01*
X133912072Y-101379242D01*
X133787238Y-101462653D01*
X133648525Y-101520110D01*
X133501271Y-101549400D01*
X133351129Y-101549400D01*
X133203875Y-101520110D01*
X133065162Y-101462653D01*
X132940328Y-101379242D01*
X132834158Y-101273072D01*
X132750747Y-101148238D01*
X132693290Y-101009525D01*
X132664000Y-100862271D01*
X132664000Y-100712129D01*
X132693290Y-100564875D01*
X132750747Y-100426162D01*
X132834158Y-100301328D01*
X132940328Y-100195158D01*
X133065162Y-100111747D01*
X133203875Y-100054290D01*
X133351129Y-100025000D01*
X133501271Y-100025000D01*
X133648525Y-100054290D01*
X133648525Y-100054290D01*
G37*
G36*
X141268525Y-100054290D02*
G01*
X141407238Y-100111747D01*
X141532072Y-100195158D01*
X141638242Y-100301328D01*
X141721653Y-100426162D01*
X141779110Y-100564875D01*
X141808400Y-100712129D01*
X141808400Y-100862271D01*
X141779110Y-101009525D01*
X141721653Y-101148238D01*
X141638242Y-101273072D01*
X141532072Y-101379242D01*
X141407238Y-101462653D01*
X141268525Y-101520110D01*
X141121271Y-101549400D01*
X140971129Y-101549400D01*
X140823875Y-101520110D01*
X140685162Y-101462653D01*
X140560328Y-101379242D01*
X140454158Y-101273072D01*
X140370747Y-101148238D01*
X140313290Y-101009525D01*
X140284000Y-100862271D01*
X140284000Y-100712129D01*
X140313290Y-100564875D01*
X140370747Y-100426162D01*
X140454158Y-100301328D01*
X140560328Y-100195158D01*
X140685162Y-100111747D01*
X140823875Y-100054290D01*
X140971129Y-100025000D01*
X141121271Y-100025000D01*
X141268525Y-100054290D01*
X141268525Y-100054290D01*
G37*
G36*
X143808525Y-100054290D02*
G01*
X143947238Y-100111747D01*
X144072072Y-100195158D01*
X144178242Y-100301328D01*
X144261653Y-100426162D01*
X144319110Y-100564875D01*
X144348400Y-100712129D01*
X144348400Y-100862271D01*
X144319110Y-101009525D01*
X144261653Y-101148238D01*
X144178242Y-101273072D01*
X144072072Y-101379242D01*
X143947238Y-101462653D01*
X143808525Y-101520110D01*
X143661271Y-101549400D01*
X143511129Y-101549400D01*
X143363875Y-101520110D01*
X143225162Y-101462653D01*
X143100328Y-101379242D01*
X142994158Y-101273072D01*
X142910747Y-101148238D01*
X142853290Y-101009525D01*
X142824000Y-100862271D01*
X142824000Y-100712129D01*
X142853290Y-100564875D01*
X142910747Y-100426162D01*
X142994158Y-100301328D01*
X143100328Y-100195158D01*
X143225162Y-100111747D01*
X143363875Y-100054290D01*
X143511129Y-100025000D01*
X143661271Y-100025000D01*
X143808525Y-100054290D01*
X143808525Y-100054290D01*
G37*
G36*
X145078525Y-98784290D02*
G01*
X145217238Y-98841747D01*
X145342072Y-98925158D01*
X145448242Y-99031328D01*
X145531653Y-99156162D01*
X145589110Y-99294875D01*
X145618400Y-99442129D01*
X145618400Y-99592271D01*
X145589110Y-99739525D01*
X145531653Y-99878238D01*
X145448242Y-100003072D01*
X145342072Y-100109242D01*
X145217238Y-100192653D01*
X145078525Y-100250110D01*
X144931271Y-100279400D01*
X144781129Y-100279400D01*
X144633875Y-100250110D01*
X144495162Y-100192653D01*
X144370328Y-100109242D01*
X144264158Y-100003072D01*
X144180747Y-99878238D01*
X144123290Y-99739525D01*
X144094000Y-99592271D01*
X144094000Y-99442129D01*
X144123290Y-99294875D01*
X144180747Y-99156162D01*
X144264158Y-99031328D01*
X144370328Y-98925158D01*
X144495162Y-98841747D01*
X144633875Y-98784290D01*
X144781129Y-98755000D01*
X144931271Y-98755000D01*
X145078525Y-98784290D01*
X145078525Y-98784290D01*
G37*
G36*
X129838525Y-98784290D02*
G01*
X129977238Y-98841747D01*
X130102072Y-98925158D01*
X130208242Y-99031328D01*
X130291653Y-99156162D01*
X130349110Y-99294875D01*
X130378400Y-99442129D01*
X130378400Y-99592271D01*
X130349110Y-99739525D01*
X130291653Y-99878238D01*
X130208242Y-100003072D01*
X130102072Y-100109242D01*
X129977238Y-100192653D01*
X129838525Y-100250110D01*
X129691271Y-100279400D01*
X129541129Y-100279400D01*
X129393875Y-100250110D01*
X129255162Y-100192653D01*
X129130328Y-100109242D01*
X129024158Y-100003072D01*
X128940747Y-99878238D01*
X128883290Y-99739525D01*
X128854000Y-99592271D01*
X128854000Y-99442129D01*
X128883290Y-99294875D01*
X128940747Y-99156162D01*
X129024158Y-99031328D01*
X129130328Y-98925158D01*
X129255162Y-98841747D01*
X129393875Y-98784290D01*
X129541129Y-98755000D01*
X129691271Y-98755000D01*
X129838525Y-98784290D01*
X129838525Y-98784290D01*
G37*
G36*
X141268525Y-97514290D02*
G01*
X141407238Y-97571747D01*
X141532072Y-97655158D01*
X141638242Y-97761328D01*
X141721653Y-97886162D01*
X141779110Y-98024875D01*
X141808400Y-98172129D01*
X141808400Y-98322271D01*
X141779110Y-98469525D01*
X141721653Y-98608238D01*
X141638242Y-98733072D01*
X141532072Y-98839242D01*
X141407238Y-98922653D01*
X141268525Y-98980110D01*
X141121271Y-99009400D01*
X140971129Y-99009400D01*
X140823875Y-98980110D01*
X140685162Y-98922653D01*
X140560328Y-98839242D01*
X140454158Y-98733072D01*
X140370747Y-98608238D01*
X140313290Y-98469525D01*
X140284000Y-98322271D01*
X140284000Y-98172129D01*
X140313290Y-98024875D01*
X140370747Y-97886162D01*
X140454158Y-97761328D01*
X140560328Y-97655158D01*
X140685162Y-97571747D01*
X140823875Y-97514290D01*
X140971129Y-97485000D01*
X141121271Y-97485000D01*
X141268525Y-97514290D01*
X141268525Y-97514290D01*
G37*
G36*
X136188525Y-97514290D02*
G01*
X136327238Y-97571747D01*
X136452072Y-97655158D01*
X136558242Y-97761328D01*
X136641653Y-97886162D01*
X136699110Y-98024875D01*
X136728400Y-98172129D01*
X136728400Y-98322271D01*
X136699110Y-98469525D01*
X136641653Y-98608238D01*
X136558242Y-98733072D01*
X136452072Y-98839242D01*
X136327238Y-98922653D01*
X136188525Y-98980110D01*
X136041271Y-99009400D01*
X135891129Y-99009400D01*
X135743875Y-98980110D01*
X135605162Y-98922653D01*
X135480328Y-98839242D01*
X135374158Y-98733072D01*
X135290747Y-98608238D01*
X135233290Y-98469525D01*
X135204000Y-98322271D01*
X135204000Y-98172129D01*
X135233290Y-98024875D01*
X135290747Y-97886162D01*
X135374158Y-97761328D01*
X135480328Y-97655158D01*
X135605162Y-97571747D01*
X135743875Y-97514290D01*
X135891129Y-97485000D01*
X136041271Y-97485000D01*
X136188525Y-97514290D01*
X136188525Y-97514290D01*
G37*
G36*
X133648525Y-97514290D02*
G01*
X133787238Y-97571747D01*
X133912072Y-97655158D01*
X134018242Y-97761328D01*
X134101653Y-97886162D01*
X134159110Y-98024875D01*
X134188400Y-98172129D01*
X134188400Y-98322271D01*
X134159110Y-98469525D01*
X134101653Y-98608238D01*
X134018242Y-98733072D01*
X133912072Y-98839242D01*
X133787238Y-98922653D01*
X133648525Y-98980110D01*
X133501271Y-99009400D01*
X133351129Y-99009400D01*
X133203875Y-98980110D01*
X133065162Y-98922653D01*
X132940328Y-98839242D01*
X132834158Y-98733072D01*
X132750747Y-98608238D01*
X132693290Y-98469525D01*
X132664000Y-98322271D01*
X132664000Y-98172129D01*
X132693290Y-98024875D01*
X132750747Y-97886162D01*
X132834158Y-97761328D01*
X132940328Y-97655158D01*
X133065162Y-97571747D01*
X133203875Y-97514290D01*
X133351129Y-97485000D01*
X133501271Y-97485000D01*
X133648525Y-97514290D01*
X133648525Y-97514290D01*
G37*
G36*
X138728525Y-97514290D02*
G01*
X138867238Y-97571747D01*
X138992072Y-97655158D01*
X139098242Y-97761328D01*
X139181653Y-97886162D01*
X139239110Y-98024875D01*
X139268400Y-98172129D01*
X139268400Y-98322271D01*
X139239110Y-98469525D01*
X139181653Y-98608238D01*
X139098242Y-98733072D01*
X138992072Y-98839242D01*
X138867238Y-98922653D01*
X138728525Y-98980110D01*
X138581271Y-99009400D01*
X138431129Y-99009400D01*
X138283875Y-98980110D01*
X138145162Y-98922653D01*
X138020328Y-98839242D01*
X137914158Y-98733072D01*
X137830747Y-98608238D01*
X137773290Y-98469525D01*
X137744000Y-98322271D01*
X137744000Y-98172129D01*
X137773290Y-98024875D01*
X137830747Y-97886162D01*
X137914158Y-97761328D01*
X138020328Y-97655158D01*
X138145162Y-97571747D01*
X138283875Y-97514290D01*
X138431129Y-97485000D01*
X138581271Y-97485000D01*
X138728525Y-97514290D01*
X138728525Y-97514290D01*
G37*
G36*
X129838525Y-96244290D02*
G01*
X129977238Y-96301747D01*
X130102072Y-96385158D01*
X130208242Y-96491328D01*
X130291653Y-96616162D01*
X130349110Y-96754875D01*
X130378400Y-96902129D01*
X130378400Y-97052271D01*
X130349110Y-97199525D01*
X130291653Y-97338238D01*
X130208242Y-97463072D01*
X130102072Y-97569242D01*
X129977238Y-97652653D01*
X129838525Y-97710110D01*
X129691271Y-97739400D01*
X129541129Y-97739400D01*
X129393875Y-97710110D01*
X129255162Y-97652653D01*
X129130328Y-97569242D01*
X129024158Y-97463072D01*
X128940747Y-97338238D01*
X128883290Y-97199525D01*
X128854000Y-97052271D01*
X128854000Y-96902129D01*
X128883290Y-96754875D01*
X128940747Y-96616162D01*
X129024158Y-96491328D01*
X129130328Y-96385158D01*
X129255162Y-96301747D01*
X129393875Y-96244290D01*
X129541129Y-96215000D01*
X129691271Y-96215000D01*
X129838525Y-96244290D01*
X129838525Y-96244290D01*
G37*
G36*
X145078525Y-96244290D02*
G01*
X145217238Y-96301747D01*
X145342072Y-96385158D01*
X145448242Y-96491328D01*
X145531653Y-96616162D01*
X145589110Y-96754875D01*
X145618400Y-96902129D01*
X145618400Y-97052271D01*
X145589110Y-97199525D01*
X145531653Y-97338238D01*
X145448242Y-97463072D01*
X145342072Y-97569242D01*
X145217238Y-97652653D01*
X145078525Y-97710110D01*
X144931271Y-97739400D01*
X144781129Y-97739400D01*
X144633875Y-97710110D01*
X144495162Y-97652653D01*
X144370328Y-97569242D01*
X144264158Y-97463072D01*
X144180747Y-97338238D01*
X144123290Y-97199525D01*
X144094000Y-97052271D01*
X144094000Y-96902129D01*
X144123290Y-96754875D01*
X144180747Y-96616162D01*
X144264158Y-96491328D01*
X144370328Y-96385158D01*
X144495162Y-96301747D01*
X144633875Y-96244290D01*
X144781129Y-96215000D01*
X144931271Y-96215000D01*
X145078525Y-96244290D01*
X145078525Y-96244290D01*
G37*
G36*
X139264899Y-95642845D02*
G01*
X139302395Y-95654220D01*
X139336954Y-95672692D01*
X139367247Y-95697553D01*
X139392108Y-95727846D01*
X139410580Y-95762405D01*
X139421955Y-95799901D01*
X139426400Y-95845038D01*
X139426400Y-96483762D01*
X139421955Y-96528899D01*
X139410580Y-96566395D01*
X139392108Y-96600954D01*
X139367247Y-96631247D01*
X139336954Y-96656108D01*
X139302395Y-96674580D01*
X139264899Y-96685955D01*
X139219762Y-96690400D01*
X138481038Y-96690400D01*
X138435901Y-96685955D01*
X138398405Y-96674580D01*
X138363846Y-96656108D01*
X138333553Y-96631247D01*
X138308692Y-96600954D01*
X138290220Y-96566395D01*
X138278845Y-96528899D01*
X138274400Y-96483762D01*
X138274400Y-95845038D01*
X138278845Y-95799901D01*
X138290220Y-95762405D01*
X138308692Y-95727846D01*
X138333553Y-95697553D01*
X138363846Y-95672692D01*
X138398405Y-95654220D01*
X138435901Y-95642845D01*
X138481038Y-95638400D01*
X139219762Y-95638400D01*
X139264899Y-95642845D01*
X139264899Y-95642845D01*
G37*
G36*
X141014899Y-95642845D02*
G01*
X141052395Y-95654220D01*
X141086954Y-95672692D01*
X141117247Y-95697553D01*
X141142108Y-95727846D01*
X141160580Y-95762405D01*
X141171955Y-95799901D01*
X141176400Y-95845038D01*
X141176400Y-96483762D01*
X141171955Y-96528899D01*
X141160580Y-96566395D01*
X141142108Y-96600954D01*
X141117247Y-96631247D01*
X141086954Y-96656108D01*
X141052395Y-96674580D01*
X141014899Y-96685955D01*
X140969762Y-96690400D01*
X140231038Y-96690400D01*
X140185901Y-96685955D01*
X140148405Y-96674580D01*
X140113846Y-96656108D01*
X140083553Y-96631247D01*
X140058692Y-96600954D01*
X140040220Y-96566395D01*
X140028845Y-96528899D01*
X140024400Y-96483762D01*
X140024400Y-95845038D01*
X140028845Y-95799901D01*
X140040220Y-95762405D01*
X140058692Y-95727846D01*
X140083553Y-95697553D01*
X140113846Y-95672692D01*
X140148405Y-95654220D01*
X140185901Y-95642845D01*
X140231038Y-95638400D01*
X140969762Y-95638400D01*
X141014899Y-95642845D01*
X141014899Y-95642845D01*
G37*
G36*
X145078525Y-93704290D02*
G01*
X145217238Y-93761747D01*
X145342072Y-93845158D01*
X145448242Y-93951328D01*
X145531653Y-94076162D01*
X145589110Y-94214875D01*
X145618400Y-94362129D01*
X145618400Y-94512271D01*
X145589110Y-94659525D01*
X145531653Y-94798238D01*
X145448242Y-94923072D01*
X145342072Y-95029242D01*
X145217238Y-95112653D01*
X145078525Y-95170110D01*
X144931271Y-95199400D01*
X144781129Y-95199400D01*
X144633875Y-95170110D01*
X144495162Y-95112653D01*
X144370328Y-95029242D01*
X144264158Y-94923072D01*
X144180747Y-94798238D01*
X144123290Y-94659525D01*
X144094000Y-94512271D01*
X144094000Y-94362129D01*
X144123290Y-94214875D01*
X144180747Y-94076162D01*
X144264158Y-93951328D01*
X144370328Y-93845158D01*
X144495162Y-93761747D01*
X144633875Y-93704290D01*
X144781129Y-93675000D01*
X144931271Y-93675000D01*
X145078525Y-93704290D01*
X145078525Y-93704290D01*
G37*
G36*
X129838525Y-93704290D02*
G01*
X129977238Y-93761747D01*
X130102072Y-93845158D01*
X130208242Y-93951328D01*
X130291653Y-94076162D01*
X130349110Y-94214875D01*
X130378400Y-94362129D01*
X130378400Y-94512271D01*
X130349110Y-94659525D01*
X130291653Y-94798238D01*
X130208242Y-94923072D01*
X130102072Y-95029242D01*
X129977238Y-95112653D01*
X129838525Y-95170110D01*
X129691271Y-95199400D01*
X129541129Y-95199400D01*
X129393875Y-95170110D01*
X129255162Y-95112653D01*
X129130328Y-95029242D01*
X129024158Y-94923072D01*
X128940747Y-94798238D01*
X128883290Y-94659525D01*
X128854000Y-94512271D01*
X128854000Y-94362129D01*
X128883290Y-94214875D01*
X128940747Y-94076162D01*
X129024158Y-93951328D01*
X129130328Y-93845158D01*
X129255162Y-93761747D01*
X129393875Y-93704290D01*
X129541129Y-93675000D01*
X129691271Y-93675000D01*
X129838525Y-93704290D01*
X129838525Y-93704290D01*
G37*
G36*
X135213042Y-91815518D02*
G01*
X135279227Y-91822037D01*
X135449066Y-91873557D01*
X135605591Y-91957222D01*
X135623927Y-91972270D01*
X135742786Y-92069814D01*
X135826048Y-92171271D01*
X135855378Y-92207009D01*
X135939043Y-92363534D01*
X135990563Y-92533373D01*
X136007959Y-92710000D01*
X135990563Y-92886627D01*
X135939043Y-93056466D01*
X135855378Y-93212991D01*
X135826048Y-93248729D01*
X135742786Y-93350186D01*
X135641329Y-93433448D01*
X135605591Y-93462778D01*
X135449066Y-93546443D01*
X135279227Y-93597963D01*
X135213042Y-93604482D01*
X135146860Y-93611000D01*
X135058340Y-93611000D01*
X134992157Y-93604481D01*
X134925973Y-93597963D01*
X134756134Y-93546443D01*
X134599609Y-93462778D01*
X134563871Y-93433448D01*
X134462414Y-93350186D01*
X134379152Y-93248729D01*
X134349822Y-93212991D01*
X134266157Y-93056466D01*
X134214637Y-92886627D01*
X134197241Y-92710000D01*
X134214637Y-92533373D01*
X134266157Y-92363534D01*
X134349822Y-92207009D01*
X134379152Y-92171271D01*
X134462414Y-92069814D01*
X134581273Y-91972270D01*
X134599609Y-91957222D01*
X134756134Y-91873557D01*
X134925973Y-91822037D01*
X134992158Y-91815518D01*
X135058340Y-91809000D01*
X135146860Y-91809000D01*
X135213042Y-91815518D01*
X135213042Y-91815518D01*
G37*
G36*
X138543600Y-93611000D02*
G01*
X136741600Y-93611000D01*
X136741600Y-91809000D01*
X138543600Y-91809000D01*
X138543600Y-93611000D01*
X138543600Y-93611000D01*
G37*
G36*
X145078525Y-91164290D02*
G01*
X145217238Y-91221747D01*
X145342072Y-91305158D01*
X145448242Y-91411328D01*
X145531653Y-91536162D01*
X145589110Y-91674875D01*
X145618400Y-91822129D01*
X145618400Y-91972271D01*
X145589110Y-92119525D01*
X145531653Y-92258238D01*
X145448242Y-92383072D01*
X145342072Y-92489242D01*
X145217238Y-92572653D01*
X145078525Y-92630110D01*
X144931271Y-92659400D01*
X144781129Y-92659400D01*
X144633875Y-92630110D01*
X144495162Y-92572653D01*
X144370328Y-92489242D01*
X144264158Y-92383072D01*
X144180747Y-92258238D01*
X144123290Y-92119525D01*
X144094000Y-91972271D01*
X144094000Y-91822129D01*
X144123290Y-91674875D01*
X144180747Y-91536162D01*
X144264158Y-91411328D01*
X144370328Y-91305158D01*
X144495162Y-91221747D01*
X144633875Y-91164290D01*
X144781129Y-91135000D01*
X144931271Y-91135000D01*
X145078525Y-91164290D01*
X145078525Y-91164290D01*
G37*
G36*
X129838525Y-91164290D02*
G01*
X129977238Y-91221747D01*
X130102072Y-91305158D01*
X130208242Y-91411328D01*
X130291653Y-91536162D01*
X130349110Y-91674875D01*
X130378400Y-91822129D01*
X130378400Y-91972271D01*
X130349110Y-92119525D01*
X130291653Y-92258238D01*
X130208242Y-92383072D01*
X130102072Y-92489242D01*
X129977238Y-92572653D01*
X129838525Y-92630110D01*
X129691271Y-92659400D01*
X129541129Y-92659400D01*
X129393875Y-92630110D01*
X129255162Y-92572653D01*
X129130328Y-92489242D01*
X129024158Y-92383072D01*
X128940747Y-92258238D01*
X128883290Y-92119525D01*
X128854000Y-91972271D01*
X128854000Y-91822129D01*
X128883290Y-91674875D01*
X128940747Y-91536162D01*
X129024158Y-91411328D01*
X129130328Y-91305158D01*
X129255162Y-91221747D01*
X129393875Y-91164290D01*
X129541129Y-91135000D01*
X129691271Y-91135000D01*
X129838525Y-91164290D01*
X129838525Y-91164290D01*
G37*
G36*
X137753043Y-89275519D02*
G01*
X137819227Y-89282037D01*
X137989066Y-89333557D01*
X138145591Y-89417222D01*
X138163927Y-89432270D01*
X138282786Y-89529814D01*
X138366048Y-89631271D01*
X138395378Y-89667009D01*
X138479043Y-89823534D01*
X138530563Y-89993373D01*
X138547959Y-90170000D01*
X138530563Y-90346627D01*
X138479043Y-90516466D01*
X138395378Y-90672991D01*
X138366048Y-90708729D01*
X138282786Y-90810186D01*
X138181329Y-90893448D01*
X138145591Y-90922778D01*
X137989066Y-91006443D01*
X137819227Y-91057963D01*
X137753042Y-91064482D01*
X137686860Y-91071000D01*
X137598340Y-91071000D01*
X137532158Y-91064482D01*
X137465973Y-91057963D01*
X137296134Y-91006443D01*
X137139609Y-90922778D01*
X137103871Y-90893448D01*
X137002414Y-90810186D01*
X136919152Y-90708729D01*
X136889822Y-90672991D01*
X136806157Y-90516466D01*
X136754637Y-90346627D01*
X136737241Y-90170000D01*
X136754637Y-89993373D01*
X136806157Y-89823534D01*
X136889822Y-89667009D01*
X136919152Y-89631271D01*
X137002414Y-89529814D01*
X137121273Y-89432270D01*
X137139609Y-89417222D01*
X137296134Y-89333557D01*
X137465973Y-89282037D01*
X137532157Y-89275519D01*
X137598340Y-89269000D01*
X137686860Y-89269000D01*
X137753043Y-89275519D01*
X137753043Y-89275519D01*
G37*
G36*
X135213043Y-89275519D02*
G01*
X135279227Y-89282037D01*
X135449066Y-89333557D01*
X135605591Y-89417222D01*
X135623927Y-89432270D01*
X135742786Y-89529814D01*
X135826048Y-89631271D01*
X135855378Y-89667009D01*
X135939043Y-89823534D01*
X135990563Y-89993373D01*
X136007959Y-90170000D01*
X135990563Y-90346627D01*
X135939043Y-90516466D01*
X135855378Y-90672991D01*
X135826048Y-90708729D01*
X135742786Y-90810186D01*
X135641329Y-90893448D01*
X135605591Y-90922778D01*
X135449066Y-91006443D01*
X135279227Y-91057963D01*
X135213042Y-91064482D01*
X135146860Y-91071000D01*
X135058340Y-91071000D01*
X134992158Y-91064482D01*
X134925973Y-91057963D01*
X134756134Y-91006443D01*
X134599609Y-90922778D01*
X134563871Y-90893448D01*
X134462414Y-90810186D01*
X134379152Y-90708729D01*
X134349822Y-90672991D01*
X134266157Y-90516466D01*
X134214637Y-90346627D01*
X134197241Y-90170000D01*
X134214637Y-89993373D01*
X134266157Y-89823534D01*
X134349822Y-89667009D01*
X134379152Y-89631271D01*
X134462414Y-89529814D01*
X134581273Y-89432270D01*
X134599609Y-89417222D01*
X134756134Y-89333557D01*
X134925973Y-89282037D01*
X134992157Y-89275519D01*
X135058340Y-89269000D01*
X135146860Y-89269000D01*
X135213043Y-89275519D01*
X135213043Y-89275519D01*
G37*
G36*
X129838525Y-88624290D02*
G01*
X129977238Y-88681747D01*
X130102072Y-88765158D01*
X130208242Y-88871328D01*
X130291653Y-88996162D01*
X130349110Y-89134875D01*
X130378400Y-89282129D01*
X130378400Y-89432271D01*
X130349110Y-89579525D01*
X130291653Y-89718238D01*
X130208242Y-89843072D01*
X130102072Y-89949242D01*
X129977238Y-90032653D01*
X129838525Y-90090110D01*
X129691271Y-90119400D01*
X129541129Y-90119400D01*
X129393875Y-90090110D01*
X129255162Y-90032653D01*
X129130328Y-89949242D01*
X129024158Y-89843072D01*
X128940747Y-89718238D01*
X128883290Y-89579525D01*
X128854000Y-89432271D01*
X128854000Y-89282129D01*
X128883290Y-89134875D01*
X128940747Y-88996162D01*
X129024158Y-88871328D01*
X129130328Y-88765158D01*
X129255162Y-88681747D01*
X129393875Y-88624290D01*
X129541129Y-88595000D01*
X129691271Y-88595000D01*
X129838525Y-88624290D01*
X129838525Y-88624290D01*
G37*
G36*
X145078525Y-88624290D02*
G01*
X145217238Y-88681747D01*
X145342072Y-88765158D01*
X145448242Y-88871328D01*
X145531653Y-88996162D01*
X145589110Y-89134875D01*
X145618400Y-89282129D01*
X145618400Y-89432271D01*
X145589110Y-89579525D01*
X145531653Y-89718238D01*
X145448242Y-89843072D01*
X145342072Y-89949242D01*
X145217238Y-90032653D01*
X145078525Y-90090110D01*
X144931271Y-90119400D01*
X144781129Y-90119400D01*
X144633875Y-90090110D01*
X144495162Y-90032653D01*
X144370328Y-89949242D01*
X144264158Y-89843072D01*
X144180747Y-89718238D01*
X144123290Y-89579525D01*
X144094000Y-89432271D01*
X144094000Y-89282129D01*
X144123290Y-89134875D01*
X144180747Y-88996162D01*
X144264158Y-88871328D01*
X144370328Y-88765158D01*
X144495162Y-88681747D01*
X144633875Y-88624290D01*
X144781129Y-88595000D01*
X144931271Y-88595000D01*
X145078525Y-88624290D01*
X145078525Y-88624290D01*
G37*
G36*
X118220499Y-87552445D02*
G01*
X118257995Y-87563820D01*
X118292554Y-87582292D01*
X118322847Y-87607153D01*
X118347708Y-87637446D01*
X118366180Y-87672005D01*
X118377555Y-87709501D01*
X118382000Y-87754638D01*
X118382000Y-88493362D01*
X118377555Y-88538499D01*
X118366180Y-88575995D01*
X118347708Y-88610554D01*
X118322847Y-88640847D01*
X118292554Y-88665708D01*
X118257995Y-88684180D01*
X118220499Y-88695555D01*
X118175362Y-88700000D01*
X117536638Y-88700000D01*
X117491501Y-88695555D01*
X117454005Y-88684180D01*
X117419446Y-88665708D01*
X117389153Y-88640847D01*
X117364292Y-88610554D01*
X117345820Y-88575995D01*
X117334445Y-88538499D01*
X117330000Y-88493362D01*
X117330000Y-87754638D01*
X117334445Y-87709501D01*
X117345820Y-87672005D01*
X117364292Y-87637446D01*
X117389153Y-87607153D01*
X117419446Y-87582292D01*
X117454005Y-87563820D01*
X117491501Y-87552445D01*
X117536638Y-87548000D01*
X118175362Y-87548000D01*
X118220499Y-87552445D01*
X118220499Y-87552445D01*
G37*
G36*
X137753042Y-86735518D02*
G01*
X137819227Y-86742037D01*
X137989066Y-86793557D01*
X138145591Y-86877222D01*
X138162193Y-86890847D01*
X138282786Y-86989814D01*
X138366048Y-87091271D01*
X138395378Y-87127009D01*
X138479043Y-87283534D01*
X138530563Y-87453373D01*
X138547959Y-87630000D01*
X138530563Y-87806627D01*
X138479043Y-87976466D01*
X138395378Y-88132991D01*
X138366048Y-88168729D01*
X138282786Y-88270186D01*
X138181329Y-88353448D01*
X138145591Y-88382778D01*
X137989066Y-88466443D01*
X137819227Y-88517963D01*
X137753042Y-88524482D01*
X137686860Y-88531000D01*
X137598340Y-88531000D01*
X137532158Y-88524482D01*
X137465973Y-88517963D01*
X137296134Y-88466443D01*
X137139609Y-88382778D01*
X137103871Y-88353448D01*
X137002414Y-88270186D01*
X136919152Y-88168729D01*
X136889822Y-88132991D01*
X136806157Y-87976466D01*
X136754637Y-87806627D01*
X136737241Y-87630000D01*
X136754637Y-87453373D01*
X136806157Y-87283534D01*
X136889822Y-87127009D01*
X136919152Y-87091271D01*
X137002414Y-86989814D01*
X137123007Y-86890847D01*
X137139609Y-86877222D01*
X137296134Y-86793557D01*
X137465973Y-86742037D01*
X137532158Y-86735518D01*
X137598340Y-86729000D01*
X137686860Y-86729000D01*
X137753042Y-86735518D01*
X137753042Y-86735518D01*
G37*
G36*
X135213042Y-86735518D02*
G01*
X135279227Y-86742037D01*
X135449066Y-86793557D01*
X135605591Y-86877222D01*
X135622193Y-86890847D01*
X135742786Y-86989814D01*
X135826048Y-87091271D01*
X135855378Y-87127009D01*
X135939043Y-87283534D01*
X135990563Y-87453373D01*
X136007959Y-87630000D01*
X135990563Y-87806627D01*
X135939043Y-87976466D01*
X135855378Y-88132991D01*
X135826048Y-88168729D01*
X135742786Y-88270186D01*
X135641329Y-88353448D01*
X135605591Y-88382778D01*
X135449066Y-88466443D01*
X135279227Y-88517963D01*
X135213042Y-88524482D01*
X135146860Y-88531000D01*
X135058340Y-88531000D01*
X134992158Y-88524482D01*
X134925973Y-88517963D01*
X134756134Y-88466443D01*
X134599609Y-88382778D01*
X134563871Y-88353448D01*
X134462414Y-88270186D01*
X134379152Y-88168729D01*
X134349822Y-88132991D01*
X134266157Y-87976466D01*
X134214637Y-87806627D01*
X134197241Y-87630000D01*
X134214637Y-87453373D01*
X134266157Y-87283534D01*
X134349822Y-87127009D01*
X134379152Y-87091271D01*
X134462414Y-86989814D01*
X134583007Y-86890847D01*
X134599609Y-86877222D01*
X134756134Y-86793557D01*
X134925973Y-86742037D01*
X134992158Y-86735518D01*
X135058340Y-86729000D01*
X135146860Y-86729000D01*
X135213042Y-86735518D01*
X135213042Y-86735518D01*
G37*
G36*
X121248762Y-85844581D02*
G01*
X121283681Y-85855174D01*
X121315863Y-85872376D01*
X121344073Y-85895527D01*
X121367224Y-85923737D01*
X121384426Y-85955919D01*
X121395019Y-85990838D01*
X121399200Y-86033295D01*
X121399200Y-87499505D01*
X121395019Y-87541962D01*
X121384426Y-87576881D01*
X121367224Y-87609063D01*
X121344073Y-87637273D01*
X121315863Y-87660424D01*
X121283681Y-87677626D01*
X121248762Y-87688219D01*
X121206305Y-87692400D01*
X120065095Y-87692400D01*
X120022638Y-87688219D01*
X119987719Y-87677626D01*
X119955537Y-87660424D01*
X119927327Y-87637273D01*
X119904176Y-87609063D01*
X119886974Y-87576881D01*
X119876381Y-87541962D01*
X119872200Y-87499505D01*
X119872200Y-86033295D01*
X119876381Y-85990838D01*
X119886974Y-85955919D01*
X119904176Y-85923737D01*
X119927327Y-85895527D01*
X119955537Y-85872376D01*
X119987719Y-85855174D01*
X120022638Y-85844581D01*
X120065095Y-85840400D01*
X121206305Y-85840400D01*
X121248762Y-85844581D01*
X121248762Y-85844581D01*
G37*
G36*
X124223762Y-85844581D02*
G01*
X124258681Y-85855174D01*
X124290863Y-85872376D01*
X124319073Y-85895527D01*
X124342224Y-85923737D01*
X124359426Y-85955919D01*
X124370019Y-85990838D01*
X124374200Y-86033295D01*
X124374200Y-87499505D01*
X124370019Y-87541962D01*
X124359426Y-87576881D01*
X124342224Y-87609063D01*
X124319073Y-87637273D01*
X124290863Y-87660424D01*
X124258681Y-87677626D01*
X124223762Y-87688219D01*
X124181305Y-87692400D01*
X123040095Y-87692400D01*
X122997638Y-87688219D01*
X122962719Y-87677626D01*
X122930537Y-87660424D01*
X122902327Y-87637273D01*
X122879176Y-87609063D01*
X122861974Y-87576881D01*
X122851381Y-87541962D01*
X122847200Y-87499505D01*
X122847200Y-86033295D01*
X122851381Y-85990838D01*
X122861974Y-85955919D01*
X122879176Y-85923737D01*
X122902327Y-85895527D01*
X122930537Y-85872376D01*
X122962719Y-85855174D01*
X122997638Y-85844581D01*
X123040095Y-85840400D01*
X124181305Y-85840400D01*
X124223762Y-85844581D01*
X124223762Y-85844581D01*
G37*
G36*
X130378400Y-87579400D02*
G01*
X128854000Y-87579400D01*
X128854000Y-86055000D01*
X130378400Y-86055000D01*
X130378400Y-87579400D01*
X130378400Y-87579400D01*
G37*
G36*
X145618400Y-87579400D02*
G01*
X144094000Y-87579400D01*
X144094000Y-86055000D01*
X145618400Y-86055000D01*
X145618400Y-87579400D01*
X145618400Y-87579400D01*
G37*
G36*
X118220499Y-85802445D02*
G01*
X118257995Y-85813820D01*
X118292554Y-85832292D01*
X118322847Y-85857153D01*
X118347708Y-85887446D01*
X118366180Y-85922005D01*
X118377555Y-85959501D01*
X118382000Y-86004638D01*
X118382000Y-86743362D01*
X118377555Y-86788499D01*
X118366180Y-86825995D01*
X118347708Y-86860554D01*
X118322847Y-86890847D01*
X118292554Y-86915708D01*
X118257995Y-86934180D01*
X118220499Y-86945555D01*
X118175362Y-86950000D01*
X117536638Y-86950000D01*
X117491501Y-86945555D01*
X117454005Y-86934180D01*
X117419446Y-86915708D01*
X117389153Y-86890847D01*
X117364292Y-86860554D01*
X117345820Y-86825995D01*
X117334445Y-86788499D01*
X117330000Y-86743362D01*
X117330000Y-86004638D01*
X117334445Y-85959501D01*
X117345820Y-85922005D01*
X117364292Y-85887446D01*
X117389153Y-85857153D01*
X117419446Y-85832292D01*
X117454005Y-85813820D01*
X117491501Y-85802445D01*
X117536638Y-85798000D01*
X118175362Y-85798000D01*
X118220499Y-85802445D01*
X118220499Y-85802445D01*
G37*
M02*
